<ttFont>
    <TTGlyph name="A" xMin="18" yMin="0" xMax="1060" yMax="1696">
      <contour>
        <pt x="288" y="1605" on="1"/>
        <pt x="292" y="1633" on="0"/>
        <pt x="311" y="1669" on="0"/>
        <pt x="362" y="1689" on="0"/>
        <pt x="458" y="1696" on="0"/>
        <pt x="540" y="1696" on="1"/>
        <pt x="621" y="1696" on="0"/>
        <pt x="717" y="1689" on="0"/>
        <pt x="768" y="1669" on="0"/>
        <pt x="786" y="1633" on="0"/>
        <pt x="791" y="1605" on="1"/>
        <pt x="1056" y="78" on="1"/>
        <pt x="1060" y="51" on="0"/>
        <pt x="1051" y="20" on="0"/>
        <pt x="1020" y="4" on="0"/>
        <pt x="966" y="0" on="0"/>
        <pt x="927" y="0" on="1"/>
        <pt x="879" y="0" on="0"/>
        <pt x="822" y="4" on="0"/>
        <pt x="790" y="20" on="0"/>
        <pt x="775" y="51" on="0"/>
        <pt x="771" y="78" on="1"/>
        <pt x="730" y="317" on="1"/>
        <pt x="349" y="317" on="1"/>
        <pt x="308" y="78" on="1"/>
        <pt x="303" y="51" on="0"/>
        <pt x="289" y="20" on="0"/>
        <pt x="257" y="4" on="0"/>
        <pt x="200" y="0" on="0"/>
        <pt x="152" y="0" on="1"/>
        <pt x="113" y="0" on="0"/>
        <pt x="60" y="4" on="0"/>
        <pt x="28" y="20" on="0"/>
        <pt x="18" y="51" on="0"/>
        <pt x="23" y="78" on="1"/>
      </contour>
      <contour>
        <pt x="697" y="507" on="1"/>
        <pt x="544" y="1394" on="1"/>
        <pt x="535" y="1394" on="1"/>
        <pt x="382" y="507" on="1"/>
      </contour>
    </TTGlyph>
    <TTGlyph name="AE" xMin="38" yMin="0" xMax="1399" yMax="1690">
      <contour>
        <pt x="385" y="1598" on="1"/>
        <pt x="391" y="1626" on="0"/>
        <pt x="411" y="1662" on="0"/>
        <pt x="459" y="1682" on="0"/>
        <pt x="545" y="1690" on="0"/>
        <pt x="617" y="1690" on="1"/>
        <pt x="865" y="1690" on="1"/>
        <pt x="897" y="1690" on="1"/>
        <pt x="1328" y="1690" on="1"/>
        <pt x="1354" y="1690" on="0"/>
        <pt x="1383" y="1682" on="0"/>
        <pt x="1396" y="1660" on="0"/>
        <pt x="1399" y="1622" on="0"/>
        <pt x="1399" y="1592" on="1"/>
        <pt x="1399" y="1562" on="0"/>
        <pt x="1396" y="1523" on="0"/>
        <pt x="1383" y="1502" on="0"/>
        <pt x="1354" y="1494" on="0"/>
        <pt x="1328" y="1494" on="1"/>
        <pt x="1043" y="1494" on="1"/>
        <pt x="1026" y="880" on="1"/>
        <pt x="1266" y="880" on="1"/>
        <pt x="1292" y="880" on="0"/>
        <pt x="1321" y="872" on="0"/>
        <pt x="1334" y="851" on="0"/>
        <pt x="1337" y="814" on="0"/>
        <pt x="1337" y="785" on="1"/>
        <pt x="1337" y="756" on="0"/>
        <pt x="1334" y="719" on="0"/>
        <pt x="1321" y="698" on="0"/>
        <pt x="1292" y="690" on="0"/>
        <pt x="1266" y="690" on="1"/>
        <pt x="1020" y="690" on="1"/>
        <pt x="1006" y="187" on="1"/>
        <pt x="1290" y="187" on="1"/>
        <pt x="1316" y="187" on="0"/>
        <pt x="1345" y="178" on="0"/>
        <pt x="1358" y="157" on="0"/>
        <pt x="1361" y="121" on="0"/>
        <pt x="1361" y="94" on="1"/>
        <pt x="1361" y="67" on="0"/>
        <pt x="1358" y="31" on="0"/>
        <pt x="1345" y="10" on="0"/>
        <pt x="1316" y="1" on="0"/>
        <pt x="1290" y="1" on="1"/>
        <pt x="890" y="1" on="1"/>
        <pt x="864" y="1" on="1"/>
        <pt x="821" y="1" on="0"/>
        <pt x="771" y="5" on="0"/>
        <pt x="745" y="19" on="0"/>
        <pt x="737" y="46" on="0"/>
        <pt x="736" y="69" on="1"/>
        <pt x="729" y="317" on="1"/>
        <pt x="377" y="317" on="1"/>
        <pt x="316" y="78" on="1"/>
        <pt x="309" y="52" on="0"/>
        <pt x="294" y="21" on="0"/>
        <pt x="264" y="5" on="0"/>
        <pt x="214" y="0" on="0"/>
        <pt x="172" y="0" on="1"/>
        <pt x="133" y="0" on="0"/>
        <pt x="79" y="4" on="0"/>
        <pt x="48" y="20" on="0"/>
        <pt x="38" y="51" on="0"/>
        <pt x="43" y="78" on="1"/>
      </contour>
      <contour>
        <pt x="723" y="507" on="1"/>
        <pt x="695" y="1494" on="1"/>
        <pt x="678" y="1494" on="1"/>
        <pt x="425" y="507" on="1"/>
      </contour>
    </TTGlyph>
    <TTGlyph name="Aacute" xMin="18" yMin="0" xMax="1060" yMax="2118">
      <component glyphName="A" x="0" y="0" flags="0x204"/>
      <component glyphName="acute.cap" x="309" y="0" flags="0x4"/>
    </TTGlyph>
    <TTGlyph name="Acircumflex" xMin="18" yMin="0" xMax="1060" yMax="2118">
      <component glyphName="A" x="0" y="0" flags="0x204"/>
      <component glyphName="circumflex.cap" x="62" y="0" flags="0x4"/>
    </TTGlyph>
    <TTGlyph name="Adieresis" xMin="18" yMin="0" xMax="1060" yMax="2110">
      <component glyphName="A" x="0" y="0" flags="0x204"/>
      <component glyphName="dieresis.cap" x="60" y="0" flags="0x4"/>
    </TTGlyph>
    <TTGlyph name="Agrave" xMin="18" yMin="0" xMax="1060" yMax="2118">
      <component glyphName="A" x="0" y="0" flags="0x204"/>
      <component glyphName="grave.cap" x="129" y="0" flags="0x4"/>
    </TTGlyph>
    <TTGlyph name="Aring" xMin="9" yMin="0" xMax="1052" yMax="2118">
      <contour>
        <pt x="314" y="1688" on="1"/>
        <pt x="269" y="1713" on="0"/>
        <pt x="217" y="1790" on="0"/>
        <pt x="217" y="1844" on="1"/>
        <pt x="217" y="1917" on="1"/>
        <pt x="217" y="1969" on="0"/>
        <pt x="266" y="2045" on="0"/>
        <pt x="350" y="2094" on="0"/>
        <pt x="465" y="2118" on="0"/>
        <pt x="531" y="2118" on="1"/>
        <pt x="597" y="2118" on="0"/>
        <pt x="712" y="2094" on="0"/>
        <pt x="796" y="2045" on="0"/>
        <pt x="845" y="1969" on="0"/>
        <pt x="845" y="1917" on="1"/>
        <pt x="845" y="1844" on="1"/>
        <pt x="845" y="1789" on="0"/>
        <pt x="792" y="1712" on="0"/>
        <pt x="747" y="1687" on="1"/>
        <pt x="1047" y="78" on="1"/>
        <pt x="1052" y="51" on="0"/>
        <pt x="1042" y="20" on="0"/>
        <pt x="1011" y="4" on="0"/>
        <pt x="957" y="0" on="0"/>
        <pt x="918" y="0" on="1"/>
        <pt x="870" y="0" on="0"/>
        <pt x="813" y="4" on="0"/>
        <pt x="781" y="20" on="0"/>
        <pt x="766" y="51" on="0"/>
        <pt x="762" y="78" on="1"/>
        <pt x="722" y="317" on="1"/>
        <pt x="339" y="317" on="1"/>
        <pt x="299" y="78" on="1"/>
        <pt x="294" y="51" on="0"/>
        <pt x="280" y="20" on="0"/>
        <pt x="248" y="4" on="0"/>
        <pt x="191" y="0" on="0"/>
        <pt x="143" y="0" on="1"/>
        <pt x="104" y="0" on="0"/>
        <pt x="50" y="4" on="0"/>
        <pt x="19" y="20" on="0"/>
        <pt x="9" y="51" on="0"/>
        <pt x="14" y="78" on="1"/>
      </contour>
      <contour>
        <pt x="531" y="1747" on="1"/>
        <pt x="582" y="1747" on="0"/>
        <pt x="631" y="1791" on="0"/>
        <pt x="631" y="1829" on="1"/>
        <pt x="631" y="1900" on="1"/>
        <pt x="631" y="1938" on="0"/>
        <pt x="582" y="1982" on="0"/>
        <pt x="531" y="1982" on="1"/>
        <pt x="480" y="1982" on="0"/>
        <pt x="431" y="1938" on="0"/>
        <pt x="431" y="1900" on="1"/>
        <pt x="431" y="1829" on="1"/>
        <pt x="431" y="1791" on="0"/>
        <pt x="480" y="1747" on="0"/>
      </contour>
      <contour>
        <pt x="690" y="507" on="1"/>
        <pt x="535" y="1426" on="1"/>
        <pt x="526" y="1426" on="1"/>
        <pt x="371" y="507" on="1"/>
      </contour>
    </TTGlyph>
    <TTGlyph name="Atilde" xMin="18" yMin="0" xMax="1060" yMax="2118">
      <component glyphName="A" x="0" y="0" flags="0x204"/>
      <component glyphName="tilde.cap" x="48" y="0" flags="0x4"/>
    </TTGlyph>
    <TTGlyph name="B" xMin="124" yMin="0" xMax="1042" yMax="1690">
      <contour>
        <pt x="125" y="1607" on="1"/>
        <pt x="124" y="1633" on="0"/>
        <pt x="136" y="1665" on="0"/>
        <pt x="175" y="1683" on="0"/>
        <pt x="247" y="1690" on="0"/>
        <pt x="307" y="1690" on="1"/>
        <pt x="332" y="1690" on="1"/>
        <pt x="560" y="1690" on="1"/>
        <pt x="663" y="1690" on="0"/>
        <pt x="840" y="1653" on="0"/>
        <pt x="970" y="1574" on="0"/>
        <pt x="1042" y="1451" on="0"/>
        <pt x="1040" y="1364" on="1"/>
        <pt x="1034" y="1087" on="1"/>
        <pt x="1033" y="1045" on="0"/>
        <pt x="1008" y="956" on="0"/>
        <pt x="955" y="875" on="0"/>
        <pt x="870" y="807" on="0"/>
        <pt x="809" y="784" on="1"/>
        <pt x="907" y="745" on="0"/>
        <pt x="1022" y="600" on="0"/>
        <pt x="1018" y="494" on="1"/>
        <pt x="1012" y="317" on="1"/>
        <pt x="1010" y="260" on="0"/>
        <pt x="965" y="147" on="0"/>
        <pt x="862" y="56" on="0"/>
        <pt x="693" y="0" on="0"/>
        <pt x="568" y="0" on="1"/>
        <pt x="325" y="0" on="1"/>
        <pt x="307" y="0" on="1"/>
        <pt x="261" y="0" on="0"/>
        <pt x="206" y="4" on="0"/>
        <pt x="178" y="18" on="0"/>
        <pt x="169" y="45" on="0"/>
        <pt x="168" y="68" on="1"/>
      </contour>
      <contour>
        <pt x="539" y="872" on="1"/>
        <pt x="587" y="872" on="0"/>
        <pt x="651" y="886" on="0"/>
        <pt x="688" y="921" on="0"/>
        <pt x="703" y="977" on="0"/>
        <pt x="702" y="1019" on="1"/>
        <pt x="688" y="1396" on="1"/>
        <pt x="687" y="1435" on="0"/>
        <pt x="673" y="1482" on="0"/>
        <pt x="637" y="1508" on="0"/>
        <pt x="576" y="1517" on="0"/>
        <pt x="528" y="1517" on="1"/>
        <pt x="486" y="1517" on="1"/>
        <pt x="468" y="872" on="1"/>
      </contour>
      <contour>
        <pt x="554" y="163" on="1"/>
        <pt x="602" y="163" on="0"/>
        <pt x="667" y="178" on="0"/>
        <pt x="705" y="212" on="0"/>
        <pt x="720" y="269" on="0"/>
        <pt x="718" y="311" on="1"/>
        <pt x="712" y="571" on="1"/>
        <pt x="710" y="610" on="0"/>
        <pt x="693" y="659" on="0"/>
        <pt x="655" y="687" on="0"/>
        <pt x="592" y="697" on="0"/>
        <pt x="544" y="697" on="1"/>
        <pt x="463" y="697" on="1"/>
        <pt x="447" y="163" on="1"/>
      </contour>
    </TTGlyph>
    <TTGlyph name="C" xMin="118" yMin="-12" xMax="1090" yMax="1701">
      <contour>
        <pt x="120" y="1365" on="1"/>
        <pt x="118" y="1440" on="0"/>
        <pt x="172" y="1564" on="0"/>
        <pt x="289" y="1652" on="0"/>
        <pt x="474" y="1701" on="0"/>
        <pt x="604" y="1701" on="1"/>
        <pt x="733" y="1701" on="0"/>
        <pt x="918" y="1652" on="0"/>
        <pt x="1036" y="1564" on="0"/>
        <pt x="1090" y="1440" on="0"/>
        <pt x="1088" y="1365" on="1"/>
        <pt x="1076" y="879" on="1"/>
        <pt x="1075" y="849" on="0"/>
        <pt x="1059" y="812" on="0"/>
        <pt x="1021" y="793" on="0"/>
        <pt x="958" y="787" on="0"/>
        <pt x="912" y="787" on="1"/>
        <pt x="865" y="787" on="0"/>
        <pt x="803" y="793" on="0"/>
        <pt x="766" y="812" on="0"/>
        <pt x="750" y="849" on="0"/>
        <pt x="749" y="879" on="1"/>
        <pt x="736" y="1396" on="1"/>
        <pt x="735" y="1440" on="0"/>
        <pt x="717" y="1492" on="0"/>
        <pt x="684" y="1520" on="0"/>
        <pt x="636" y="1529" on="0"/>
        <pt x="604" y="1529" on="1"/>
        <pt x="572" y="1529" on="0"/>
        <pt x="524" y="1520" on="0"/>
        <pt x="491" y="1492" on="0"/>
        <pt x="473" y="1440" on="0"/>
        <pt x="472" y="1396" on="1"/>
        <pt x="443" y="296" on="1"/>
        <pt x="442" y="254" on="0"/>
        <pt x="459" y="198" on="0"/>
        <pt x="498" y="165" on="0"/>
        <pt x="560" y="151" on="0"/>
        <pt x="604" y="151" on="1"/>
        <pt x="648" y="151" on="0"/>
        <pt x="711" y="165" on="0"/>
        <pt x="750" y="198" on="0"/>
        <pt x="766" y="254" on="0"/>
        <pt x="765" y="296" on="1"/>
        <pt x="761" y="415" on="1"/>
        <pt x="760" y="445" on="0"/>
        <pt x="775" y="482" on="0"/>
        <pt x="812" y="501" on="0"/>
        <pt x="874" y="507" on="0"/>
        <pt x="920" y="507" on="1"/>
        <pt x="965" y="507" on="0"/>
        <pt x="1022" y="501" on="0"/>
        <pt x="1053" y="482" on="0"/>
        <pt x="1063" y="445" on="0"/>
        <pt x="1062" y="415" on="1"/>
        <pt x="1059" y="303" on="1"/>
        <pt x="1057" y="238" on="0"/>
        <pt x="1005" y="123" on="0"/>
        <pt x="896" y="37" on="0"/>
        <pt x="725" y="-12" on="0"/>
        <pt x="604" y="-12" on="1"/>
        <pt x="483" y="-12" on="0"/>
        <pt x="311" y="38" on="0"/>
        <pt x="202" y="124" on="0"/>
        <pt x="150" y="240" on="0"/>
        <pt x="148" y="305" on="1"/>
      </contour>
    </TTGlyph>
    <TTGlyph name="Ccedilla" xMin="118" yMin="-340" xMax="1090" yMax="1701">
      <contour>
        <pt x="120" y="1365" on="1"/>
        <pt x="118" y="1440" on="0"/>
        <pt x="172" y="1564" on="0"/>
        <pt x="289" y="1652" on="0"/>
        <pt x="474" y="1701" on="0"/>
        <pt x="604" y="1701" on="1"/>
        <pt x="733" y="1701" on="0"/>
        <pt x="918" y="1652" on="0"/>
        <pt x="1036" y="1564" on="0"/>
        <pt x="1090" y="1440" on="0"/>
        <pt x="1088" y="1365" on="1"/>
        <pt x="1076" y="879" on="1"/>
        <pt x="1075" y="849" on="0"/>
        <pt x="1059" y="812" on="0"/>
        <pt x="1021" y="793" on="0"/>
        <pt x="958" y="787" on="0"/>
        <pt x="912" y="787" on="1"/>
        <pt x="865" y="787" on="0"/>
        <pt x="803" y="793" on="0"/>
        <pt x="766" y="812" on="0"/>
        <pt x="750" y="849" on="0"/>
        <pt x="749" y="879" on="1"/>
        <pt x="736" y="1396" on="1"/>
        <pt x="735" y="1440" on="0"/>
        <pt x="717" y="1492" on="0"/>
        <pt x="684" y="1520" on="0"/>
        <pt x="636" y="1529" on="0"/>
        <pt x="604" y="1529" on="1"/>
        <pt x="572" y="1529" on="0"/>
        <pt x="524" y="1520" on="0"/>
        <pt x="491" y="1492" on="0"/>
        <pt x="473" y="1440" on="0"/>
        <pt x="472" y="1396" on="1"/>
        <pt x="443" y="296" on="1"/>
        <pt x="442" y="254" on="0"/>
        <pt x="459" y="198" on="0"/>
        <pt x="498" y="165" on="0"/>
        <pt x="560" y="151" on="0"/>
        <pt x="604" y="151" on="1"/>
        <pt x="648" y="151" on="0"/>
        <pt x="711" y="165" on="0"/>
        <pt x="750" y="198" on="0"/>
        <pt x="766" y="254" on="0"/>
        <pt x="765" y="296" on="1"/>
        <pt x="761" y="415" on="1"/>
        <pt x="760" y="445" on="0"/>
        <pt x="775" y="482" on="0"/>
        <pt x="812" y="501" on="0"/>
        <pt x="874" y="507" on="0"/>
        <pt x="920" y="507" on="1"/>
        <pt x="965" y="507" on="0"/>
        <pt x="1022" y="501" on="0"/>
        <pt x="1053" y="482" on="0"/>
        <pt x="1063" y="445" on="0"/>
        <pt x="1062" y="415" on="1"/>
        <pt x="1059" y="303" on="1"/>
        <pt x="1057" y="246" on="0"/>
        <pt x="1018" y="144" on="0"/>
        <pt x="936" y="63" on="0"/>
        <pt x="810" y="6" on="0"/>
        <pt x="721" y="-5" on="1"/>
        <pt x="595" y="-292" on="1"/>
        <pt x="588" y="-309" on="0"/>
        <pt x="576" y="-328" on="0"/>
        <pt x="560" y="-338" on="0"/>
        <pt x="540" y="-340" on="0"/>
        <pt x="525" y="-340" on="1"/>
        <pt x="427" y="-340" on="1"/>
        <pt x="404" y="-340" on="0"/>
        <pt x="386" y="-325" on="0"/>
        <pt x="386" y="-309" on="1"/>
        <pt x="386" y="-300" on="0"/>
        <pt x="399" y="-269" on="0"/>
        <pt x="406" y="-249" on="1"/>
        <pt x="492" y="-5" on="1"/>
        <pt x="402" y="6" on="0"/>
        <pt x="273" y="62" on="0"/>
        <pt x="190" y="145" on="0"/>
        <pt x="149" y="248" on="0"/>
        <pt x="148" y="305" on="1"/>
      </contour>
    </TTGlyph>
    <TTGlyph name="D" xMin="124" yMin="0" xMax="1101" yMax="1690">
      <contour>
        <pt x="125" y="1607" on="1"/>
        <pt x="124" y="1633" on="0"/>
        <pt x="136" y="1665" on="0"/>
        <pt x="175" y="1683" on="0"/>
        <pt x="247" y="1690" on="0"/>
        <pt x="307" y="1690" on="1"/>
        <pt x="329" y="1690" on="1"/>
        <pt x="599" y="1690" on="1"/>
        <pt x="733" y="1690" on="0"/>
        <pt x="925" y="1644" on="0"/>
        <pt x="1046" y="1554" on="0"/>
        <pt x="1101" y="1421" on="0"/>
        <pt x="1098" y="1334" on="1"/>
        <pt x="1069" y="324" on="1"/>
        <pt x="1067" y="249" on="0"/>
        <pt x="1010" y="129" on="0"/>
        <pt x="896" y="45" on="0"/>
        <pt x="722" y="0" on="0"/>
        <pt x="602" y="0" on="1"/>
        <pt x="281" y="0" on="1"/>
        <pt x="244" y="0" on="0"/>
        <pt x="200" y="6" on="0"/>
        <pt x="176" y="20" on="0"/>
        <pt x="169" y="47" on="0"/>
        <pt x="168" y="68" on="1"/>
      </contour>
      <contour>
        <pt x="612" y="163" on="1"/>
        <pt x="659" y="163" on="0"/>
        <pt x="723" y="178" on="0"/>
        <pt x="762" y="212" on="0"/>
        <pt x="777" y="269" on="0"/>
        <pt x="776" y="311" on="1"/>
        <pt x="747" y="1382" on="1"/>
        <pt x="746" y="1425" on="0"/>
        <pt x="729" y="1479" on="0"/>
        <pt x="697" y="1507" on="0"/>
        <pt x="649" y="1517" on="0"/>
        <pt x="617" y="1517" on="1"/>
        <pt x="486" y="1517" on="1"/>
        <pt x="447" y="163" on="1"/>
      </contour>
    </TTGlyph>
    <TTGlyph name="E" xMin="124" yMin="0" xMax="841" yMax="1690">
      <contour>
        <pt x="125" y="1607" on="1"/>
        <pt x="124" y="1633" on="0"/>
        <pt x="136" y="1665" on="0"/>
        <pt x="175" y="1683" on="0"/>
        <pt x="247" y="1690" on="0"/>
        <pt x="307" y="1690" on="1"/>
        <pt x="324" y="1690" on="0"/>
        <pt x="355" y="1690" on="0"/>
        <pt x="369" y="1689" on="1"/>
        <pt x="770" y="1689" on="1"/>
        <pt x="796" y="1689" on="0"/>
        <pt x="825" y="1681" on="0"/>
        <pt x="838" y="1659" on="0"/>
        <pt x="841" y="1621" on="0"/>
        <pt x="841" y="1591" on="1"/>
        <pt x="841" y="1561" on="0"/>
        <pt x="838" y="1522" on="0"/>
        <pt x="825" y="1501" on="0"/>
        <pt x="796" y="1493" on="0"/>
        <pt x="770" y="1493" on="1"/>
        <pt x="486" y="1493" on="1"/>
        <pt x="468" y="879" on="1"/>
        <pt x="709" y="879" on="1"/>
        <pt x="735" y="879" on="0"/>
        <pt x="764" y="871" on="0"/>
        <pt x="777" y="850" on="0"/>
        <pt x="780" y="813" on="0"/>
        <pt x="780" y="784" on="1"/>
        <pt x="780" y="755" on="0"/>
        <pt x="777" y="718" on="0"/>
        <pt x="764" y="697" on="0"/>
        <pt x="735" y="689" on="0"/>
        <pt x="709" y="689" on="1"/>
        <pt x="463" y="689" on="1"/>
        <pt x="448" y="186" on="1"/>
        <pt x="733" y="186" on="1"/>
        <pt x="759" y="186" on="0"/>
        <pt x="788" y="177" on="0"/>
        <pt x="801" y="156" on="0"/>
        <pt x="804" y="120" on="0"/>
        <pt x="804" y="93" on="1"/>
        <pt x="804" y="66" on="0"/>
        <pt x="801" y="30" on="0"/>
        <pt x="788" y="9" on="0"/>
        <pt x="759" y="0" on="0"/>
        <pt x="733" y="0" on="1"/>
        <pt x="333" y="0" on="1"/>
        <pt x="307" y="0" on="1"/>
        <pt x="261" y="0" on="0"/>
        <pt x="206" y="4" on="0"/>
        <pt x="178" y="18" on="0"/>
        <pt x="169" y="45" on="0"/>
        <pt x="168" y="68" on="1"/>
      </contour>
    </TTGlyph>
    <TTGlyph name="Eacute" xMin="124" yMin="0" xMax="841" yMax="2118">
      <component glyphName="E" x="0" y="0" flags="0x204"/>
      <component glyphName="acute.cap" x="251" y="0" flags="0x4"/>
    </TTGlyph>
    <TTGlyph name="Ecircumflex" xMin="118" yMin="0" xMax="847" yMax="2118">
      <component glyphName="E" x="0" y="0" flags="0x204"/>
      <component glyphName="circumflex.cap" x="4" y="0" flags="0x4"/>
    </TTGlyph>
    <TTGlyph name="Edieresis" xMin="115" yMin="0" xMax="848" yMax="2110">
      <component glyphName="E" x="0" y="0" flags="0x204"/>
      <component glyphName="dieresis.cap" x="2" y="0" flags="0x4"/>
    </TTGlyph>
    <TTGlyph name="Egrave" xMin="124" yMin="0" xMax="841" yMax="2118">
      <component glyphName="E" x="0" y="0" flags="0x204"/>
      <component glyphName="grave.cap" x="71" y="0" flags="0x4"/>
    </TTGlyph>
    <TTGlyph name="Eth" xMin="17" yMin="0" xMax="1101" yMax="1690">
      <contour>
        <pt x="148" y="781" on="1"/>
        <pt x="89" y="781" on="1"/>
        <pt x="63" y="781" on="0"/>
        <pt x="34" y="788" on="0"/>
        <pt x="20" y="808" on="0"/>
        <pt x="17" y="843" on="0"/>
        <pt x="17" y="871" on="1"/>
        <pt x="17" y="899" on="0"/>
        <pt x="20" y="934" on="0"/>
        <pt x="34" y="954" on="0"/>
        <pt x="63" y="961" on="0"/>
        <pt x="89" y="961" on="1"/>
        <pt x="143" y="961" on="1"/>
        <pt x="125" y="1607" on="1"/>
        <pt x="124" y="1632" on="0"/>
        <pt x="136" y="1665" on="0"/>
        <pt x="174" y="1683" on="0"/>
        <pt x="245" y="1690" on="0"/>
        <pt x="304" y="1690" on="1"/>
        <pt x="307" y="1690" on="1"/>
        <pt x="329" y="1690" on="1"/>
        <pt x="599" y="1690" on="1"/>
        <pt x="733" y="1690" on="0"/>
        <pt x="925" y="1644" on="0"/>
        <pt x="1046" y="1554" on="0"/>
        <pt x="1101" y="1421" on="0"/>
        <pt x="1098" y="1334" on="1"/>
        <pt x="1069" y="324" on="1"/>
        <pt x="1067" y="249" on="0"/>
        <pt x="1010" y="129" on="0"/>
        <pt x="896" y="45" on="0"/>
        <pt x="722" y="0" on="0"/>
        <pt x="602" y="0" on="1"/>
        <pt x="333" y="0" on="1"/>
        <pt x="307" y="0" on="1"/>
        <pt x="281" y="0" on="1"/>
        <pt x="244" y="0" on="0"/>
        <pt x="200" y="6" on="0"/>
        <pt x="176" y="20" on="0"/>
        <pt x="169" y="47" on="0"/>
        <pt x="168" y="68" on="1"/>
      </contour>
      <contour>
        <pt x="612" y="163" on="1"/>
        <pt x="659" y="163" on="0"/>
        <pt x="723" y="178" on="0"/>
        <pt x="762" y="212" on="0"/>
        <pt x="777" y="269" on="0"/>
        <pt x="776" y="311" on="1"/>
        <pt x="747" y="1382" on="1"/>
        <pt x="746" y="1425" on="0"/>
        <pt x="729" y="1479" on="0"/>
        <pt x="697" y="1507" on="0"/>
        <pt x="649" y="1517" on="0"/>
        <pt x="617" y="1517" on="1"/>
        <pt x="486" y="1517" on="1"/>
        <pt x="470" y="961" on="1"/>
        <pt x="578" y="961" on="1"/>
        <pt x="604" y="961" on="0"/>
        <pt x="633" y="954" on="0"/>
        <pt x="647" y="934" on="0"/>
        <pt x="650" y="899" on="0"/>
        <pt x="650" y="871" on="1"/>
        <pt x="650" y="843" on="0"/>
        <pt x="647" y="808" on="0"/>
        <pt x="633" y="788" on="0"/>
        <pt x="604" y="781" on="0"/>
        <pt x="578" y="781" on="1"/>
        <pt x="465" y="781" on="1"/>
        <pt x="447" y="163" on="1"/>
      </contour>
    </TTGlyph>
    <TTGlyph name="Euro" xMin="110" yMin="0" xMax="1145" yMax="1696">
      <contour>
        <pt x="259" y="372" on="1"/>
        <pt x="182" y="372" on="1"/>
        <pt x="156" y="372" on="0"/>
        <pt x="127" y="381" on="0"/>
        <pt x="113" y="401" on="0"/>
        <pt x="110" y="435" on="0"/>
        <pt x="110" y="459" on="1"/>
        <pt x="110" y="483" on="0"/>
        <pt x="113" y="516" on="0"/>
        <pt x="127" y="536" on="0"/>
        <pt x="156" y="545" on="0"/>
        <pt x="182" y="545" on="1"/>
        <pt x="255" y="545" on="1"/>
        <pt x="251" y="705" on="1"/>
        <pt x="186" y="705" on="1"/>
        <pt x="160" y="705" on="0"/>
        <pt x="131" y="714" on="0"/>
        <pt x="117" y="734" on="0"/>
        <pt x="114" y="767" on="0"/>
        <pt x="114" y="791" on="1"/>
        <pt x="114" y="818" on="0"/>
        <pt x="117" y="855" on="0"/>
        <pt x="131" y="877" on="0"/>
        <pt x="160" y="887" on="0"/>
        <pt x="186" y="887" on="1"/>
        <pt x="246" y="887" on="1"/>
        <pt x="234" y="1360" on="1"/>
        <pt x="232" y="1435" on="0"/>
        <pt x="282" y="1559" on="0"/>
        <pt x="392" y="1647" on="0"/>
        <pt x="567" y="1696" on="0"/>
        <pt x="690" y="1696" on="1"/>
        <pt x="813" y="1696" on="0"/>
        <pt x="988" y="1647" on="0"/>
        <pt x="1098" y="1559" on="0"/>
        <pt x="1145" y="1435" on="0"/>
        <pt x="1141" y="1360" on="1"/>
        <pt x="1130" y="1087" on="1"/>
        <pt x="1128" y="1056" on="0"/>
        <pt x="1112" y="1020" on="0"/>
        <pt x="1076" y="1001" on="0"/>
        <pt x="1018" y="995" on="0"/>
        <pt x="974" y="995" on="1"/>
        <pt x="930" y="995" on="0"/>
        <pt x="872" y="1001" on="0"/>
        <pt x="837" y="1020" on="0"/>
        <pt x="821" y="1056" on="0"/>
        <pt x="820" y="1087" on="1"/>
        <pt x="813" y="1391" on="1"/>
        <pt x="811" y="1435" on="0"/>
        <pt x="794" y="1487" on="0"/>
        <pt x="764" y="1515" on="0"/>
        <pt x="720" y="1524" on="0"/>
        <pt x="690" y="1524" on="1"/>
        <pt x="660" y="1524" on="0"/>
        <pt x="615" y="1515" on="0"/>
        <pt x="584" y="1487" on="0"/>
        <pt x="568" y="1435" on="0"/>
        <pt x="567" y="1391" on="1"/>
        <pt x="553" y="887" on="1"/>
        <pt x="805" y="887" on="1"/>
        <pt x="831" y="887" on="0"/>
        <pt x="860" y="877" on="0"/>
        <pt x="874" y="854" on="0"/>
        <pt x="877" y="817" on="0"/>
        <pt x="877" y="790" on="1"/>
        <pt x="877" y="766" on="0"/>
        <pt x="874" y="733" on="0"/>
        <pt x="860" y="713" on="0"/>
        <pt x="831" y="705" on="0"/>
        <pt x="805" y="705" on="1"/>
        <pt x="548" y="705" on="1"/>
        <pt x="543" y="545" on="1"/>
        <pt x="804" y="545" on="1"/>
        <pt x="830" y="545" on="0"/>
        <pt x="859" y="536" on="0"/>
        <pt x="873" y="516" on="0"/>
        <pt x="876" y="482" on="0"/>
        <pt x="876" y="458" on="1"/>
        <pt x="876" y="434" on="0"/>
        <pt x="873" y="401" on="0"/>
        <pt x="859" y="381" on="0"/>
        <pt x="830" y="372" on="0"/>
        <pt x="804" y="372" on="1"/>
        <pt x="538" y="372" on="1"/>
        <pt x="537" y="323" on="1"/>
        <pt x="536" y="281" on="0"/>
        <pt x="553" y="230" on="0"/>
        <pt x="592" y="202" on="0"/>
        <pt x="655" y="193" on="0"/>
        <pt x="700" y="193" on="1"/>
        <pt x="948" y="193" on="1"/>
        <pt x="974" y="193" on="0"/>
        <pt x="1003" y="183" on="0"/>
        <pt x="1017" y="161" on="0"/>
        <pt x="1020" y="123" on="0"/>
        <pt x="1020" y="96" on="1"/>
        <pt x="1020" y="69" on="0"/>
        <pt x="1017" y="32" on="0"/>
        <pt x="1003" y="10" on="0"/>
        <pt x="974" y="0" on="0"/>
        <pt x="948" y="0" on="1"/>
        <pt x="700" y="0" on="1"/>
        <pt x="588" y="0" on="0"/>
        <pt x="425" y="43" on="0"/>
        <pt x="317" y="120" on="0"/>
        <pt x="264" y="226" on="0"/>
        <pt x="262" y="289" on="1"/>
      </contour>
    </TTGlyph>
    <TTGlyph name="F" xMin="124" yMin="0" xMax="841" yMax="1690">
      <contour>
        <pt x="125" y="1607" on="1"/>
        <pt x="124" y="1633" on="0"/>
        <pt x="136" y="1665" on="0"/>
        <pt x="175" y="1683" on="0"/>
        <pt x="247" y="1690" on="0"/>
        <pt x="307" y="1690" on="1"/>
        <pt x="324" y="1690" on="0"/>
        <pt x="355" y="1690" on="0"/>
        <pt x="369" y="1689" on="1"/>
        <pt x="770" y="1689" on="1"/>
        <pt x="796" y="1689" on="0"/>
        <pt x="825" y="1681" on="0"/>
        <pt x="838" y="1659" on="0"/>
        <pt x="841" y="1621" on="0"/>
        <pt x="841" y="1591" on="1"/>
        <pt x="841" y="1561" on="0"/>
        <pt x="838" y="1522" on="0"/>
        <pt x="825" y="1501" on="0"/>
        <pt x="796" y="1493" on="0"/>
        <pt x="770" y="1493" on="1"/>
        <pt x="486" y="1493" on="1"/>
        <pt x="468" y="879" on="1"/>
        <pt x="709" y="879" on="1"/>
        <pt x="735" y="879" on="0"/>
        <pt x="764" y="871" on="0"/>
        <pt x="777" y="850" on="0"/>
        <pt x="780" y="813" on="0"/>
        <pt x="780" y="784" on="1"/>
        <pt x="780" y="755" on="0"/>
        <pt x="777" y="718" on="0"/>
        <pt x="764" y="697" on="0"/>
        <pt x="735" y="689" on="0"/>
        <pt x="709" y="689" on="1"/>
        <pt x="463" y="689" on="1"/>
        <pt x="445" y="63" on="1"/>
        <pt x="445" y="43" on="0"/>
        <pt x="436" y="19" on="0"/>
        <pt x="407" y="5" on="0"/>
        <pt x="353" y="0" on="0"/>
        <pt x="307" y="0" on="1"/>
        <pt x="261" y="0" on="0"/>
        <pt x="206" y="4" on="0"/>
        <pt x="178" y="18" on="0"/>
        <pt x="169" y="45" on="0"/>
        <pt x="168" y="68" on="1"/>
      </contour>
    </TTGlyph>
    <TTGlyph name="G" xMin="123" yMin="-12" xMax="1044" yMax="1690">
      <contour>
        <pt x="125" y="1357" on="1"/>
        <pt x="123" y="1430" on="0"/>
        <pt x="176" y="1552" on="0"/>
        <pt x="296" y="1640" on="0"/>
        <pt x="488" y="1690" on="0"/>
        <pt x="625" y="1690" on="1"/>
        <pt x="923" y="1690" on="1"/>
        <pt x="957" y="1690" on="0"/>
        <pt x="993" y="1683" on="0"/>
        <pt x="1010" y="1659" on="0"/>
        <pt x="1012" y="1615" on="0"/>
        <pt x="1012" y="1578" on="1"/>
        <pt x="1012" y="1548" on="0"/>
        <pt x="1006" y="1512" on="0"/>
        <pt x="993" y="1492" on="0"/>
        <pt x="970" y="1486" on="0"/>
        <pt x="952" y="1486" on="1"/>
        <pt x="624" y="1486" on="1"/>
        <pt x="587" y="1487" on="0"/>
        <pt x="532" y="1480" on="0"/>
        <pt x="496" y="1452" on="0"/>
        <pt x="478" y="1399" on="0"/>
        <pt x="477" y="1355" on="1"/>
        <pt x="447" y="296" on="1"/>
        <pt x="446" y="254" on="0"/>
        <pt x="461" y="198" on="0"/>
        <pt x="495" y="165" on="0"/>
        <pt x="550" y="151" on="0"/>
        <pt x="589" y="151" on="1"/>
        <pt x="628" y="151" on="0"/>
        <pt x="683" y="165" on="0"/>
        <pt x="718" y="198" on="0"/>
        <pt x="732" y="254" on="0"/>
        <pt x="731" y="296" on="1"/>
        <pt x="713" y="938" on="1"/>
        <pt x="712" y="968" on="0"/>
        <pt x="726" y="1005" on="0"/>
        <pt x="765" y="1024" on="0"/>
        <pt x="833" y="1030" on="0"/>
        <pt x="885" y="1030" on="1"/>
        <pt x="937" y="1030" on="0"/>
        <pt x="1001" y="1024" on="0"/>
        <pt x="1034" y="1005" on="0"/>
        <pt x="1044" y="968" on="0"/>
        <pt x="1043" y="938" on="1"/>
        <pt x="1025" y="303" on="1"/>
        <pt x="1023" y="238" on="0"/>
        <pt x="973" y="123" on="0"/>
        <pt x="869" y="37" on="0"/>
        <pt x="705" y="-12" on="0"/>
        <pt x="589" y="-12" on="1"/>
        <pt x="473" y="-12" on="0"/>
        <pt x="309" y="38" on="0"/>
        <pt x="205" y="124" on="0"/>
        <pt x="155" y="240" on="0"/>
        <pt x="153" y="305" on="1"/>
      </contour>
    </TTGlyph>
    <TTGlyph name="H" xMin="124" yMin="0" xMax="1107" yMax="1690">
      <contour>
        <pt x="125" y="1607" on="1"/>
        <pt x="124" y="1633" on="0"/>
        <pt x="136" y="1665" on="0"/>
        <pt x="175" y="1683" on="0"/>
        <pt x="247" y="1690" on="0"/>
        <pt x="307" y="1690" on="1"/>
        <pt x="366" y="1690" on="0"/>
        <pt x="438" y="1683" on="0"/>
        <pt x="477" y="1665" on="0"/>
        <pt x="490" y="1633" on="0"/>
        <pt x="489" y="1607" on="1"/>
        <pt x="468" y="879" on="1"/>
        <pt x="762" y="879" on="1"/>
        <pt x="742" y="1607" on="1"/>
        <pt x="741" y="1633" on="0"/>
        <pt x="753" y="1665" on="0"/>
        <pt x="792" y="1683" on="0"/>
        <pt x="864" y="1690" on="0"/>
        <pt x="924" y="1690" on="1"/>
        <pt x="983" y="1690" on="0"/>
        <pt x="1055" y="1683" on="0"/>
        <pt x="1094" y="1665" on="0"/>
        <pt x="1107" y="1633" on="0"/>
        <pt x="1106" y="1607" on="1"/>
        <pt x="1062" y="68" on="1"/>
        <pt x="1061" y="45" on="0"/>
        <pt x="1052" y="18" on="0"/>
        <pt x="1024" y="4" on="0"/>
        <pt x="970" y="0" on="0"/>
        <pt x="924" y="0" on="1"/>
        <pt x="878" y="0" on="0"/>
        <pt x="823" y="4" on="0"/>
        <pt x="795" y="18" on="0"/>
        <pt x="786" y="45" on="0"/>
        <pt x="785" y="68" on="1"/>
        <pt x="768" y="689" on="1"/>
        <pt x="463" y="689" on="1"/>
        <pt x="445" y="68" on="1"/>
        <pt x="445" y="45" on="0"/>
        <pt x="436" y="18" on="0"/>
        <pt x="407" y="4" on="0"/>
        <pt x="353" y="0" on="0"/>
        <pt x="307" y="0" on="1"/>
        <pt x="261" y="0" on="0"/>
        <pt x="206" y="4" on="0"/>
        <pt x="178" y="18" on="0"/>
        <pt x="169" y="45" on="0"/>
        <pt x="168" y="68" on="1"/>
      </contour>
    </TTGlyph>
    <TTGlyph name="I" xMin="124" yMin="0" xMax="490" yMax="1690">
      <contour>
        <pt x="125" y="1607" on="1"/>
        <pt x="124" y="1633" on="0"/>
        <pt x="136" y="1665" on="0"/>
        <pt x="175" y="1683" on="0"/>
        <pt x="247" y="1690" on="0"/>
        <pt x="307" y="1690" on="1"/>
        <pt x="366" y="1690" on="0"/>
        <pt x="438" y="1683" on="0"/>
        <pt x="477" y="1665" on="0"/>
        <pt x="490" y="1633" on="0"/>
        <pt x="489" y="1607" on="1"/>
        <pt x="445" y="68" on="1"/>
        <pt x="445" y="45" on="0"/>
        <pt x="436" y="18" on="0"/>
        <pt x="407" y="4" on="0"/>
        <pt x="353" y="0" on="0"/>
        <pt x="307" y="0" on="1"/>
        <pt x="261" y="0" on="0"/>
        <pt x="206" y="4" on="0"/>
        <pt x="178" y="18" on="0"/>
        <pt x="169" y="45" on="0"/>
        <pt x="168" y="68" on="1"/>
      </contour>
    </TTGlyph>
    <TTGlyph name="IJ" xMin="124" yMin="-12" xMax="1108" yMax="1690">
      <contour>
        <pt x="156" y="381" on="1"/>
        <pt x="155" y="411" on="0"/>
        <pt x="165" y="447" on="0"/>
        <pt x="197" y="467" on="0"/>
        <pt x="254" y="473" on="0"/>
        <pt x="301" y="473" on="1"/>
        <pt x="353" y="473" on="0"/>
        <pt x="415" y="467" on="0"/>
        <pt x="447" y="448" on="0"/>
        <pt x="455" y="411" on="0"/>
        <pt x="454" y="381" on="1"/>
        <pt x="451" y="280" on="1"/>
        <pt x="449" y="242" on="0"/>
        <pt x="468" y="192" on="0"/>
        <pt x="510" y="163" on="0"/>
        <pt x="574" y="151" on="0"/>
        <pt x="617" y="151" on="1"/>
        <pt x="664" y="151" on="0"/>
        <pt x="727" y="165" on="0"/>
        <pt x="765" y="198" on="0"/>
        <pt x="780" y="254" on="0"/>
        <pt x="779" y="296" on="1"/>
        <pt x="743" y="1607" on="1"/>
        <pt x="742" y="1635" on="0"/>
        <pt x="754" y="1668" on="0"/>
        <pt x="793" y="1685" on="0"/>
        <pt x="865" y="1690" on="0"/>
        <pt x="925" y="1690" on="1"/>
        <pt x="984" y="1690" on="0"/>
        <pt x="1056" y="1683" on="0"/>
        <pt x="1095" y="1665" on="0"/>
        <pt x="1108" y="1633" on="0"/>
        <pt x="1107" y="1607" on="1"/>
        <pt x="1071" y="305" on="1"/>
        <pt x="1069" y="240" on="0"/>
        <pt x="1018" y="124" on="0"/>
        <pt x="909" y="38" on="0"/>
        <pt x="738" y="-12" on="0"/>
        <pt x="617" y="-12" on="1"/>
        <pt x="503" y="-12" on="0"/>
        <pt x="334" y="36" on="0"/>
        <pt x="220" y="119" on="0"/>
        <pt x="161" y="230" on="0"/>
        <pt x="159" y="292" on="1"/>
      </contour>
      <contour>
        <pt x="307" y="645" on="1"/>
        <pt x="261" y="645" on="0"/>
        <pt x="201" y="649" on="0"/>
        <pt x="167" y="663" on="0"/>
        <pt x="153" y="690" on="0"/>
        <pt x="152" y="713" on="1"/>
        <pt x="125" y="1607" on="1"/>
        <pt x="124" y="1633" on="0"/>
        <pt x="136" y="1665" on="0"/>
        <pt x="175" y="1683" on="0"/>
        <pt x="247" y="1690" on="0"/>
        <pt x="307" y="1690" on="1"/>
        <pt x="366" y="1690" on="0"/>
        <pt x="438" y="1683" on="0"/>
        <pt x="477" y="1665" on="0"/>
        <pt x="489" y="1633" on="0"/>
        <pt x="488" y="1607" on="1"/>
        <pt x="461" y="713" on="1"/>
        <pt x="460" y="690" on="0"/>
        <pt x="447" y="663" on="0"/>
        <pt x="412" y="649" on="0"/>
        <pt x="353" y="645" on="0"/>
      </contour>
    </TTGlyph>
    <TTGlyph name="Iacute" xMin="124" yMin="0" xMax="617" yMax="2118">
      <component glyphName="I" x="0" y="0" flags="0x204"/>
      <component glyphName="acute.cap" x="76" y="0" flags="0x4"/>
    </TTGlyph>
    <TTGlyph name="Icircumflex" xMin="-56" yMin="0" xMax="673" yMax="2118">
      <component glyphName="I" x="0" y="0" flags="0x204"/>
      <component glyphName="circumflex.cap" x="-170" y="0" flags="0x4"/>
    </TTGlyph>
    <TTGlyph name="Idieresis" xMin="-59" yMin="0" xMax="674" yMax="2110">
      <component glyphName="I" x="0" y="0" flags="0x204"/>
      <component glyphName="dieresis.cap" x="-172" y="0" flags="0x4"/>
    </TTGlyph>
    <TTGlyph name="Igrave" xMin="11" yMin="0" xMax="490" yMax="2118">
      <component glyphName="I" x="0" y="0" flags="0x204"/>
      <component glyphName="grave.cap" x="-103" y="0" flags="0x4"/>
    </TTGlyph>
    <TTGlyph name="Itilde" xMin="-70" yMin="0" xMax="715" yMax="2118">
      <component glyphName="I" x="0" y="0" flags="0x204"/>
      <component glyphName="tilde.cap" x="-184" y="0" flags="0x4"/>
    </TTGlyph>
    <TTGlyph name="J" xMin="50" yMin="-12" xMax="891" yMax="1690">
      <contour>
        <pt x="50" y="696" on="1"/>
        <pt x="50" y="726" on="0"/>
        <pt x="63" y="763" on="0"/>
        <pt x="98" y="782" on="0"/>
        <pt x="158" y="788" on="0"/>
        <pt x="204" y="788" on="1"/>
        <pt x="256" y="788" on="0"/>
        <pt x="321" y="782" on="0"/>
        <pt x="356" y="763" on="0"/>
        <pt x="368" y="726" on="0"/>
        <pt x="367" y="696" on="1"/>
        <pt x="358" y="296" on="1"/>
        <pt x="357" y="254" on="0"/>
        <pt x="367" y="198" on="0"/>
        <pt x="392" y="165" on="0"/>
        <pt x="431" y="151" on="0"/>
        <pt x="460" y="151" on="1"/>
        <pt x="489" y="151" on="0"/>
        <pt x="529" y="165" on="0"/>
        <pt x="553" y="198" on="0"/>
        <pt x="563" y="254" on="0"/>
        <pt x="562" y="296" on="1"/>
        <pt x="526" y="1607" on="1"/>
        <pt x="525" y="1633" on="0"/>
        <pt x="537" y="1665" on="0"/>
        <pt x="576" y="1683" on="0"/>
        <pt x="648" y="1690" on="0"/>
        <pt x="708" y="1690" on="1"/>
        <pt x="767" y="1690" on="0"/>
        <pt x="839" y="1683" on="0"/>
        <pt x="878" y="1665" on="0"/>
        <pt x="891" y="1633" on="0"/>
        <pt x="890" y="1607" on="1"/>
        <pt x="854" y="305" on="1"/>
        <pt x="852" y="240" on="0"/>
        <pt x="808" y="124" on="0"/>
        <pt x="714" y="38" on="0"/>
        <pt x="566" y="-12" on="0"/>
        <pt x="460" y="-12" on="1"/>
        <pt x="355" y="-12" on="0"/>
        <pt x="205" y="37" on="0"/>
        <pt x="109" y="123" on="0"/>
        <pt x="63" y="238" on="0"/>
        <pt x="61" y="303" on="1"/>
      </contour>
    </TTGlyph>
    <TTGlyph name="Jcircumflex" xMin="50" yMin="-12" xMax="1056" yMax="2118">
      <component glyphName="J" x="0" y="0" flags="0x204"/>
      <component glyphName="circumflex.cap" x="213" y="0" flags="0x4"/>
    </TTGlyph>
    <TTGlyph name="K" xMin="124" yMin="0" xMax="1066" yMax="1690">
      <contour>
        <pt x="528" y="719" on="1"/>
        <pt x="711" y="1600" on="1"/>
        <pt x="718" y="1629" on="0"/>
        <pt x="737" y="1664" on="0"/>
        <pt x="776" y="1684" on="0"/>
        <pt x="841" y="1690" on="0"/>
        <pt x="894" y="1690" on="1"/>
        <pt x="981" y="1690" on="0"/>
        <pt x="1066" y="1669" on="0"/>
        <pt x="1066" y="1632" on="1"/>
        <pt x="1066" y="1619" on="0"/>
        <pt x="1064" y="1599" on="0"/>
        <pt x="1059" y="1579" on="0"/>
        <pt x="1053" y="1558" on="0"/>
        <pt x="1049" y="1545" on="1"/>
        <pt x="804" y="719" on="1"/>
        <pt x="1031" y="142" on="1"/>
        <pt x="1045" y="106" on="0"/>
        <pt x="1060" y="61" on="0"/>
        <pt x="1060" y="45" on="1"/>
        <pt x="1060" y="33" on="0"/>
        <pt x="1052" y="16" on="0"/>
        <pt x="1025" y="5" on="0"/>
        <pt x="975" y="0" on="0"/>
        <pt x="934" y="0" on="1"/>
        <pt x="899" y="0" on="0"/>
        <pt x="856" y="7" on="0"/>
        <pt x="829" y="25" on="0"/>
        <pt x="810" y="56" on="0"/>
        <pt x="800" y="80" on="1"/>
      </contour>
      <contour>
        <pt x="125" y="1607" on="1"/>
        <pt x="124" y="1633" on="0"/>
        <pt x="136" y="1665" on="0"/>
        <pt x="175" y="1683" on="0"/>
        <pt x="247" y="1690" on="0"/>
        <pt x="307" y="1690" on="1"/>
        <pt x="366" y="1690" on="0"/>
        <pt x="438" y="1683" on="0"/>
        <pt x="477" y="1665" on="0"/>
        <pt x="490" y="1633" on="0"/>
        <pt x="489" y="1607" on="1"/>
        <pt x="445" y="68" on="1"/>
        <pt x="445" y="45" on="0"/>
        <pt x="436" y="18" on="0"/>
        <pt x="407" y="4" on="0"/>
        <pt x="353" y="0" on="0"/>
        <pt x="307" y="0" on="1"/>
        <pt x="261" y="0" on="0"/>
        <pt x="206" y="4" on="0"/>
        <pt x="178" y="18" on="0"/>
        <pt x="169" y="45" on="0"/>
        <pt x="168" y="68" on="1"/>
      </contour>
    </TTGlyph>
    <TTGlyph name="Kcommaaccent" xMin="124" yMin="-442" xMax="1066" yMax="1690">
      <component glyphName="K" x="0" y="0" flags="0x204"/>
      <component glyphName="commaaccent" x="325" y="0" flags="0x4"/>
    </TTGlyph>
    <TTGlyph name="L" xMin="124" yMin="0" xMax="780" yMax="1690">
      <contour>
        <pt x="125" y="1607" on="1"/>
        <pt x="124" y="1633" on="0"/>
        <pt x="136" y="1665" on="0"/>
        <pt x="175" y="1683" on="0"/>
        <pt x="247" y="1690" on="0"/>
        <pt x="307" y="1690" on="1"/>
        <pt x="366" y="1690" on="0"/>
        <pt x="438" y="1683" on="0"/>
        <pt x="477" y="1665" on="0"/>
        <pt x="490" y="1633" on="0"/>
        <pt x="489" y="1607" on="1"/>
        <pt x="448" y="186" on="1"/>
        <pt x="709" y="186" on="1"/>
        <pt x="735" y="186" on="0"/>
        <pt x="764" y="177" on="0"/>
        <pt x="777" y="156" on="0"/>
        <pt x="780" y="120" on="0"/>
        <pt x="780" y="93" on="1"/>
        <pt x="780" y="66" on="0"/>
        <pt x="777" y="30" on="0"/>
        <pt x="764" y="9" on="0"/>
        <pt x="735" y="0" on="0"/>
        <pt x="709" y="0" on="1"/>
        <pt x="307" y="0" on="1"/>
        <pt x="261" y="0" on="0"/>
        <pt x="206" y="4" on="0"/>
        <pt x="178" y="18" on="0"/>
        <pt x="169" y="45" on="0"/>
        <pt x="168" y="68" on="1"/>
      </contour>
    </TTGlyph>
    <TTGlyph name="Ldot" xMin="124" yMin="0" xMax="894" yMax="1690">
      <contour>
        <pt x="589" y="990" on="1"/>
        <pt x="587" y="1011" on="0"/>
        <pt x="596" y="1040" on="0"/>
        <pt x="629" y="1056" on="0"/>
        <pt x="690" y="1063" on="0"/>
        <pt x="741" y="1063" on="1"/>
        <pt x="792" y="1063" on="0"/>
        <pt x="853" y="1056" on="0"/>
        <pt x="885" y="1040" on="0"/>
        <pt x="894" y="1011" on="0"/>
        <pt x="893" y="990" on="1"/>
        <pt x="882" y="795" on="1"/>
        <pt x="881" y="776" on="0"/>
        <pt x="871" y="754" on="0"/>
        <pt x="841" y="742" on="0"/>
        <pt x="786" y="738" on="0"/>
        <pt x="741" y="738" on="1"/>
        <pt x="696" y="738" on="0"/>
        <pt x="641" y="742" on="0"/>
        <pt x="612" y="754" on="0"/>
        <pt x="602" y="776" on="0"/>
        <pt x="601" y="795" on="1"/>
      </contour>
      <contour>
        <pt x="125" y="1607" on="1"/>
        <pt x="124" y="1633" on="0"/>
        <pt x="136" y="1665" on="0"/>
        <pt x="175" y="1683" on="0"/>
        <pt x="247" y="1690" on="0"/>
        <pt x="307" y="1690" on="1"/>
        <pt x="366" y="1690" on="0"/>
        <pt x="438" y="1683" on="0"/>
        <pt x="477" y="1665" on="0"/>
        <pt x="490" y="1633" on="0"/>
        <pt x="489" y="1607" on="1"/>
        <pt x="448" y="186" on="1"/>
        <pt x="709" y="186" on="1"/>
        <pt x="735" y="186" on="0"/>
        <pt x="764" y="177" on="0"/>
        <pt x="777" y="156" on="0"/>
        <pt x="780" y="120" on="0"/>
        <pt x="780" y="93" on="1"/>
        <pt x="780" y="66" on="0"/>
        <pt x="777" y="30" on="0"/>
        <pt x="764" y="9" on="0"/>
        <pt x="735" y="0" on="0"/>
        <pt x="709" y="0" on="1"/>
        <pt x="307" y="0" on="1"/>
        <pt x="261" y="0" on="0"/>
        <pt x="206" y="4" on="0"/>
        <pt x="178" y="18" on="0"/>
        <pt x="169" y="45" on="0"/>
        <pt x="168" y="68" on="1"/>
      </contour>
    </TTGlyph>
    <TTGlyph name="Lslash" xMin="13" yMin="0" xMax="780" yMax="1690">
      <contour>
        <pt x="153" y="603" on="1"/>
        <pt x="130" y="590" on="1"/>
        <pt x="95" y="569" on="0"/>
        <pt x="56" y="553" on="0"/>
        <pt x="43" y="553" on="1"/>
        <pt x="26" y="553" on="0"/>
        <pt x="13" y="577" on="0"/>
        <pt x="13" y="612" on="1"/>
        <pt x="13" y="679" on="1"/>
        <pt x="13" y="698" on="0"/>
        <pt x="17" y="726" on="0"/>
        <pt x="27" y="747" on="0"/>
        <pt x="43" y="763" on="0"/>
        <pt x="56" y="771" on="1"/>
        <pt x="147" y="827" on="1"/>
        <pt x="125" y="1607" on="1"/>
        <pt x="124" y="1633" on="0"/>
        <pt x="136" y="1665" on="0"/>
        <pt x="175" y="1683" on="0"/>
        <pt x="247" y="1690" on="0"/>
        <pt x="307" y="1690" on="1"/>
        <pt x="366" y="1690" on="0"/>
        <pt x="438" y="1683" on="0"/>
        <pt x="477" y="1665" on="0"/>
        <pt x="490" y="1633" on="0"/>
        <pt x="489" y="1607" on="1"/>
        <pt x="472" y="1028" on="1"/>
        <pt x="668" y="1150" on="1"/>
        <pt x="693" y="1166" on="0"/>
        <pt x="727" y="1184" on="0"/>
        <pt x="745" y="1184" on="1"/>
        <pt x="780" y="1184" on="0"/>
        <pt x="780" y="1135" on="1"/>
        <pt x="780" y="1047" on="1"/>
        <pt x="780" y="1005" on="0"/>
        <pt x="763" y="963" on="0"/>
        <pt x="733" y="946" on="1"/>
        <pt x="465" y="788" on="1"/>
        <pt x="448" y="186" on="1"/>
        <pt x="709" y="186" on="1"/>
        <pt x="735" y="186" on="0"/>
        <pt x="764" y="177" on="0"/>
        <pt x="777" y="156" on="0"/>
        <pt x="780" y="120" on="0"/>
        <pt x="780" y="93" on="1"/>
        <pt x="780" y="66" on="0"/>
        <pt x="777" y="30" on="0"/>
        <pt x="764" y="9" on="0"/>
        <pt x="735" y="0" on="0"/>
        <pt x="709" y="0" on="1"/>
        <pt x="307" y="0" on="1"/>
        <pt x="261" y="0" on="0"/>
        <pt x="206" y="4" on="0"/>
        <pt x="178" y="18" on="0"/>
        <pt x="169" y="45" on="0"/>
        <pt x="168" y="68" on="1"/>
      </contour>
    </TTGlyph>
    <TTGlyph name="M" xMin="124" yMin="0" xMax="1422" yMax="1690">
      <contour>
        <pt x="125" y="1607" on="1"/>
        <pt x="124" y="1633" on="0"/>
        <pt x="140" y="1665" on="0"/>
        <pt x="181" y="1683" on="0"/>
        <pt x="252" y="1690" on="0"/>
        <pt x="307" y="1690" on="1"/>
        <pt x="357" y="1690" on="0"/>
        <pt x="425" y="1685" on="0"/>
        <pt x="468" y="1673" on="0"/>
        <pt x="491" y="1651" on="0"/>
        <pt x="496" y="1635" on="1"/>
        <pt x="774" y="785" on="1"/>
        <pt x="785" y="785" on="1"/>
        <pt x="1059" y="1635" on="1"/>
        <pt x="1063" y="1651" on="0"/>
        <pt x="1085" y="1673" on="0"/>
        <pt x="1127" y="1685" on="0"/>
        <pt x="1191" y="1690" on="0"/>
        <pt x="1238" y="1690" on="1"/>
        <pt x="1297" y="1690" on="0"/>
        <pt x="1369" y="1683" on="0"/>
        <pt x="1409" y="1665" on="0"/>
        <pt x="1422" y="1633" on="0"/>
        <pt x="1421" y="1607" on="1"/>
        <pt x="1377" y="68" on="1"/>
        <pt x="1376" y="45" on="0"/>
        <pt x="1368" y="18" on="0"/>
        <pt x="1341" y="4" on="0"/>
        <pt x="1291" y="0" on="0"/>
        <pt x="1248" y="0" on="1"/>
        <pt x="1206" y="0" on="0"/>
        <pt x="1155" y="4" on="0"/>
        <pt x="1129" y="18" on="0"/>
        <pt x="1120" y="45" on="0"/>
        <pt x="1120" y="68" on="1"/>
        <pt x="1127" y="1145" on="1"/>
        <pt x="1114" y="1145" on="1"/>
        <pt x="884" y="346" on="1"/>
        <pt x="878" y="327" on="0"/>
        <pt x="865" y="303" on="0"/>
        <pt x="841" y="290" on="0"/>
        <pt x="800" y="286" on="0"/>
        <pt x="766" y="286" on="1"/>
        <pt x="736" y="286" on="0"/>
        <pt x="700" y="291" on="0"/>
        <pt x="679" y="304" on="0"/>
        <pt x="667" y="327" on="0"/>
        <pt x="661" y="346" on="1"/>
        <pt x="434" y="1145" on="1"/>
        <pt x="421" y="1145" on="1"/>
        <pt x="426" y="68" on="1"/>
        <pt x="426" y="45" on="0"/>
        <pt x="417" y="18" on="0"/>
        <pt x="390" y="4" on="0"/>
        <pt x="340" y="0" on="0"/>
        <pt x="297" y="0" on="1"/>
        <pt x="254" y="0" on="0"/>
        <pt x="204" y="4" on="0"/>
        <pt x="177" y="18" on="0"/>
        <pt x="169" y="45" on="0"/>
        <pt x="168" y="68" on="1"/>
      </contour>
    </TTGlyph>
    <TTGlyph name="N" xMin="124" yMin="0" xMax="1110" yMax="1690">
      <contour>
        <pt x="125" y="1607" on="1"/>
        <pt x="124" y="1633" on="0"/>
        <pt x="134" y="1665" on="0"/>
        <pt x="167" y="1683" on="0"/>
        <pt x="230" y="1690" on="0"/>
        <pt x="283" y="1690" on="1"/>
        <pt x="322" y="1690" on="0"/>
        <pt x="377" y="1686" on="0"/>
        <pt x="411" y="1675" on="0"/>
        <pt x="430" y="1657" on="0"/>
        <pt x="433" y="1642" on="1"/>
        <pt x="806" y="627" on="1"/>
        <pt x="814" y="627" on="1"/>
        <pt x="767" y="1607" on="1"/>
        <pt x="766" y="1633" on="0"/>
        <pt x="777" y="1665" on="0"/>
        <pt x="812" y="1683" on="0"/>
        <pt x="877" y="1690" on="0"/>
        <pt x="930" y="1690" on="1"/>
        <pt x="989" y="1690" on="0"/>
        <pt x="1061" y="1683" on="0"/>
        <pt x="1098" y="1665" on="0"/>
        <pt x="1110" y="1633" on="0"/>
        <pt x="1109" y="1607" on="1"/>
        <pt x="1065" y="98" on="1"/>
        <pt x="1064" y="75" on="0"/>
        <pt x="1056" y="39" on="0"/>
        <pt x="1032" y="13" on="0"/>
        <pt x="985" y="0" on="0"/>
        <pt x="946" y="0" on="1"/>
        <pt x="908" y="0" on="0"/>
        <pt x="860" y="10" on="0"/>
        <pt x="849" y="30" on="1"/>
        <pt x="847" y="28" on="1"/>
        <pt x="442" y="1063" on="1"/>
        <pt x="431" y="1063" on="1"/>
        <pt x="423" y="68" on="1"/>
        <pt x="422" y="45" on="0"/>
        <pt x="414" y="18" on="0"/>
        <pt x="390" y="4" on="0"/>
        <pt x="343" y="0" on="0"/>
        <pt x="304" y="0" on="1"/>
        <pt x="259" y="0" on="0"/>
        <pt x="206" y="4" on="0"/>
        <pt x="178" y="18" on="0"/>
        <pt x="169" y="45" on="0"/>
        <pt x="168" y="68" on="1"/>
      </contour>
    </TTGlyph>
    <TTGlyph name="Nacute" xMin="124" yMin="0" xMax="1110" yMax="2118">
      <component glyphName="N" x="0" y="0" flags="0x204"/>
      <component glyphName="acute.cap" x="386" y="0" flags="0x4"/>
    </TTGlyph>
    <TTGlyph name="Ntilde" xMin="124" yMin="0" xMax="1110" yMax="2118">
      <component glyphName="N" x="0" y="0" flags="0x204"/>
      <component glyphName="tilde.cap" x="125" y="0" flags="0x4"/>
    </TTGlyph>
    <TTGlyph name="O" xMin="118" yMin="-12" xMax="1090" yMax="1701">
      <contour>
        <pt x="120" y="1365" on="1"/>
        <pt x="118" y="1440" on="0"/>
        <pt x="172" y="1564" on="0"/>
        <pt x="289" y="1652" on="0"/>
        <pt x="474" y="1701" on="0"/>
        <pt x="604" y="1701" on="1"/>
        <pt x="733" y="1701" on="0"/>
        <pt x="918" y="1652" on="0"/>
        <pt x="1036" y="1564" on="0"/>
        <pt x="1090" y="1440" on="0"/>
        <pt x="1088" y="1365" on="1"/>
        <pt x="1059" y="305" on="1"/>
        <pt x="1057" y="240" on="0"/>
        <pt x="1005" y="124" on="0"/>
        <pt x="896" y="38" on="0"/>
        <pt x="725" y="-12" on="0"/>
        <pt x="604" y="-12" on="1"/>
        <pt x="483" y="-12" on="0"/>
        <pt x="311" y="38" on="0"/>
        <pt x="202" y="124" on="0"/>
        <pt x="150" y="240" on="0"/>
        <pt x="148" y="305" on="1"/>
      </contour>
      <contour>
        <pt x="443" y="296" on="1"/>
        <pt x="442" y="254" on="0"/>
        <pt x="459" y="198" on="0"/>
        <pt x="498" y="165" on="0"/>
        <pt x="560" y="151" on="0"/>
        <pt x="604" y="151" on="1"/>
        <pt x="648" y="151" on="0"/>
        <pt x="710" y="165" on="0"/>
        <pt x="749" y="198" on="0"/>
        <pt x="766" y="254" on="0"/>
        <pt x="765" y="296" on="1"/>
        <pt x="736" y="1396" on="1"/>
        <pt x="735" y="1440" on="0"/>
        <pt x="717" y="1492" on="0"/>
        <pt x="684" y="1520" on="0"/>
        <pt x="636" y="1529" on="0"/>
        <pt x="604" y="1529" on="1"/>
        <pt x="572" y="1529" on="0"/>
        <pt x="524" y="1520" on="0"/>
        <pt x="491" y="1492" on="0"/>
        <pt x="473" y="1440" on="0"/>
        <pt x="472" y="1396" on="1"/>
      </contour>
    </TTGlyph>
    <TTGlyph name="OE" xMin="118" yMin="-1" xMax="1392" yMax="1690">
      <contour>
        <pt x="120" y="1355" on="1"/>
        <pt x="118" y="1430" on="0"/>
        <pt x="172" y="1553" on="0"/>
        <pt x="289" y="1642" on="0"/>
        <pt x="474" y="1690" on="0"/>
        <pt x="604" y="1690" on="1"/>
        <pt x="1321" y="1690" on="1"/>
        <pt x="1347" y="1690" on="0"/>
        <pt x="1376" y="1682" on="0"/>
        <pt x="1389" y="1660" on="0"/>
        <pt x="1392" y="1622" on="0"/>
        <pt x="1392" y="1592" on="1"/>
        <pt x="1392" y="1562" on="0"/>
        <pt x="1389" y="1523" on="0"/>
        <pt x="1376" y="1502" on="0"/>
        <pt x="1347" y="1494" on="0"/>
        <pt x="1321" y="1494" on="1"/>
        <pt x="1036" y="1494" on="1"/>
        <pt x="1019" y="879" on="1"/>
        <pt x="1259" y="879" on="1"/>
        <pt x="1285" y="879" on="0"/>
        <pt x="1314" y="871" on="0"/>
        <pt x="1328" y="850" on="0"/>
        <pt x="1331" y="813" on="0"/>
        <pt x="1331" y="784" on="1"/>
        <pt x="1331" y="755" on="0"/>
        <pt x="1328" y="718" on="0"/>
        <pt x="1314" y="697" on="0"/>
        <pt x="1285" y="689" on="0"/>
        <pt x="1259" y="689" on="1"/>
        <pt x="1013" y="689" on="1"/>
        <pt x="999" y="186" on="1"/>
        <pt x="1283" y="186" on="1"/>
        <pt x="1309" y="186" on="0"/>
        <pt x="1338" y="177" on="0"/>
        <pt x="1351" y="156" on="0"/>
        <pt x="1354" y="120" on="0"/>
        <pt x="1354" y="93" on="1"/>
        <pt x="1354" y="66" on="0"/>
        <pt x="1351" y="30" on="0"/>
        <pt x="1338" y="9" on="0"/>
        <pt x="1309" y="0" on="0"/>
        <pt x="1283" y="0" on="1"/>
        <pt x="883" y="0" on="1"/>
        <pt x="879" y="0" on="1"/>
        <pt x="879" y="-1" on="1"/>
        <pt x="604" y="-1" on="1"/>
        <pt x="483" y="-1" on="0"/>
        <pt x="311" y="49" on="0"/>
        <pt x="202" y="135" on="0"/>
        <pt x="150" y="251" on="0"/>
        <pt x="148" y="316" on="1"/>
      </contour>
      <contour>
        <pt x="443" y="307" on="1"/>
        <pt x="442" y="265" on="0"/>
        <pt x="459" y="209" on="0"/>
        <pt x="498" y="176" on="0"/>
        <pt x="560" y="162" on="0"/>
        <pt x="604" y="162" on="1"/>
        <pt x="716" y="162" on="1"/>
        <pt x="677" y="1519" on="1"/>
        <pt x="604" y="1519" on="1"/>
        <pt x="572" y="1519" on="0"/>
        <pt x="524" y="1510" on="0"/>
        <pt x="491" y="1483" on="0"/>
        <pt x="473" y="1430" on="0"/>
        <pt x="472" y="1387" on="1"/>
      </contour>
    </TTGlyph>
    <TTGlyph name="Oacute" xMin="118" yMin="-12" xMax="1090" yMax="2118">
      <component glyphName="O" x="0" y="0" flags="0x204"/>
      <component glyphName="acute.cap" x="373" y="0" flags="0x4"/>
    </TTGlyph>
    <TTGlyph name="Ocircumflex" xMin="118" yMin="-12" xMax="1090" yMax="2118">
      <component glyphName="O" x="0" y="0" flags="0x204"/>
      <component glyphName="circumflex.cap" x="126" y="0" flags="0x4"/>
    </TTGlyph>
    <TTGlyph name="Odieresis" xMin="118" yMin="-12" xMax="1090" yMax="2110">
      <component glyphName="O" x="0" y="0" flags="0x204"/>
      <component glyphName="dieresis.cap" x="124" y="0" flags="0x4"/>
    </TTGlyph>
    <TTGlyph name="Ograve" xMin="118" yMin="-12" xMax="1090" yMax="2118">
      <component glyphName="O" x="0" y="0" flags="0x204"/>
      <component glyphName="grave.cap" x="193" y="0" flags="0x4"/>
    </TTGlyph>
    <TTGlyph name="Oslash" xMin="118" yMin="-265" xMax="1092" yMax="1997">
      <contour>
        <pt x="260" y="78" on="1"/>
        <pt x="203" y="122" on="0"/>
        <pt x="150" y="238" on="0"/>
        <pt x="148" y="305" on="1"/>
        <pt x="120" y="1365" on="1"/>
        <pt x="118" y="1440" on="0"/>
        <pt x="172" y="1564" on="0"/>
        <pt x="289" y="1652" on="0"/>
        <pt x="474" y="1701" on="0"/>
        <pt x="604" y="1701" on="1"/>
        <pt x="640" y="1701" on="0"/>
        <pt x="707" y="1697" on="0"/>
        <pt x="738" y="1693" on="1"/>
        <pt x="814" y="1926" on="1"/>
        <pt x="821" y="1946" on="0"/>
        <pt x="834" y="1973" on="0"/>
        <pt x="863" y="1990" on="0"/>
        <pt x="913" y="1997" on="0"/>
        <pt x="956" y="1997" on="1"/>
        <pt x="1041" y="1996" on="0"/>
        <pt x="1092" y="1966" on="0"/>
        <pt x="1076" y="1927" on="1"/>
        <pt x="954" y="1623" on="1"/>
        <pt x="1026" y="1578" on="0"/>
        <pt x="1090" y="1447" on="0"/>
        <pt x="1088" y="1365" on="1"/>
        <pt x="1059" y="305" on="1"/>
        <pt x="1057" y="240" on="0"/>
        <pt x="1005" y="124" on="0"/>
        <pt x="896" y="38" on="0"/>
        <pt x="725" y="-12" on="0"/>
        <pt x="604" y="-12" on="1"/>
        <pt x="523" y="-12" on="0"/>
        <pt x="457" y="0" on="1"/>
        <pt x="369" y="-216" on="1"/>
        <pt x="362" y="-233" on="0"/>
        <pt x="344" y="-253" on="0"/>
        <pt x="318" y="-263" on="0"/>
        <pt x="281" y="-265" on="0"/>
        <pt x="254" y="-265" on="1"/>
        <pt x="188" y="-264" on="0"/>
        <pt x="152" y="-241" on="0"/>
        <pt x="168" y="-207" on="1"/>
      </contour>
      <contour>
        <pt x="443" y="296" on="1"/>
        <pt x="442" y="254" on="0"/>
        <pt x="459" y="198" on="0"/>
        <pt x="498" y="165" on="0"/>
        <pt x="560" y="151" on="0"/>
        <pt x="604" y="151" on="1"/>
        <pt x="648" y="151" on="0"/>
        <pt x="710" y="165" on="0"/>
        <pt x="749" y="198" on="0"/>
        <pt x="766" y="254" on="0"/>
        <pt x="765" y="296" on="1"/>
        <pt x="736" y="1396" on="1"/>
        <pt x="735" y="1440" on="0"/>
        <pt x="717" y="1492" on="0"/>
        <pt x="684" y="1520" on="0"/>
        <pt x="636" y="1529" on="0"/>
        <pt x="604" y="1529" on="1"/>
        <pt x="572" y="1529" on="0"/>
        <pt x="524" y="1520" on="0"/>
        <pt x="491" y="1492" on="0"/>
        <pt x="473" y="1440" on="0"/>
        <pt x="472" y="1396" on="1"/>
      </contour>
    </TTGlyph>
    <TTGlyph name="Otilde" xMin="118" yMin="-12" xMax="1090" yMax="2118">
      <component glyphName="O" x="0" y="0" flags="0x204"/>
      <component glyphName="tilde.cap" x="112" y="0" flags="0x4"/>
    </TTGlyph>
    <TTGlyph name="P" xMin="124" yMin="0" xMax="1043" yMax="1690">
      <contour>
        <pt x="125" y="1607" on="1"/>
        <pt x="124" y="1633" on="0"/>
        <pt x="136" y="1665" on="0"/>
        <pt x="175" y="1683" on="0"/>
        <pt x="247" y="1690" on="0"/>
        <pt x="307" y="1690" on="1"/>
        <pt x="332" y="1690" on="1"/>
        <pt x="560" y="1690" on="1"/>
        <pt x="663" y="1690" on="0"/>
        <pt x="840" y="1653" on="0"/>
        <pt x="970" y="1574" on="0"/>
        <pt x="1043" y="1451" on="0"/>
        <pt x="1040" y="1364" on="1"/>
        <pt x="1027" y="889" on="1"/>
        <pt x="1025" y="832" on="0"/>
        <pt x="980" y="718" on="0"/>
        <pt x="877" y="627" on="0"/>
        <pt x="708" y="570" on="0"/>
        <pt x="583" y="570" on="1"/>
        <pt x="459" y="570" on="1"/>
        <pt x="445" y="68" on="1"/>
        <pt x="445" y="45" on="0"/>
        <pt x="436" y="18" on="0"/>
        <pt x="407" y="4" on="0"/>
        <pt x="353" y="0" on="0"/>
        <pt x="307" y="0" on="1"/>
        <pt x="261" y="0" on="0"/>
        <pt x="206" y="4" on="0"/>
        <pt x="178" y="18" on="0"/>
        <pt x="169" y="45" on="0"/>
        <pt x="168" y="68" on="1"/>
      </contour>
      <contour>
        <pt x="539" y="733" on="1"/>
        <pt x="587" y="733" on="0"/>
        <pt x="651" y="748" on="0"/>
        <pt x="688" y="782" on="0"/>
        <pt x="703" y="839" on="0"/>
        <pt x="702" y="881" on="1"/>
        <pt x="688" y="1396" on="1"/>
        <pt x="687" y="1435" on="0"/>
        <pt x="673" y="1482" on="0"/>
        <pt x="637" y="1508" on="0"/>
        <pt x="576" y="1517" on="0"/>
        <pt x="528" y="1517" on="1"/>
        <pt x="486" y="1517" on="1"/>
        <pt x="464" y="733" on="1"/>
      </contour>
    </TTGlyph>
    <TTGlyph name="Q" xMin="118" yMin="-286" xMax="1090" yMax="1701">
      <contour>
        <pt x="120" y="1365" on="1"/>
        <pt x="118" y="1440" on="0"/>
        <pt x="172" y="1564" on="0"/>
        <pt x="289" y="1652" on="0"/>
        <pt x="474" y="1701" on="0"/>
        <pt x="604" y="1701" on="1"/>
        <pt x="733" y="1701" on="0"/>
        <pt x="918" y="1652" on="0"/>
        <pt x="1036" y="1564" on="0"/>
        <pt x="1090" y="1440" on="0"/>
        <pt x="1088" y="1365" on="1"/>
        <pt x="1059" y="305" on="1"/>
        <pt x="1057" y="222" on="0"/>
        <pt x="973" y="83" on="0"/>
        <pt x="883" y="40" on="1"/>
        <pt x="1006" y="-144" on="1"/>
        <pt x="1030" y="-179" on="0"/>
        <pt x="1060" y="-226" on="0"/>
        <pt x="1060" y="-241" on="1"/>
        <pt x="1060" y="-253" on="0"/>
        <pt x="1053" y="-270" on="0"/>
        <pt x="1028" y="-281" on="0"/>
        <pt x="980" y="-286" on="0"/>
        <pt x="939" y="-286" on="1"/>
        <pt x="900" y="-286" on="0"/>
        <pt x="855" y="-281" on="0"/>
        <pt x="825" y="-265" on="0"/>
        <pt x="801" y="-236" on="0"/>
        <pt x="783" y="-212" on="1"/>
        <pt x="636" y="-11" on="1"/>
        <pt x="628" y="-12" on="0"/>
        <pt x="612" y="-12" on="0"/>
        <pt x="604" y="-12" on="1"/>
        <pt x="483" y="-12" on="0"/>
        <pt x="311" y="38" on="0"/>
        <pt x="202" y="124" on="0"/>
        <pt x="150" y="240" on="0"/>
        <pt x="148" y="305" on="1"/>
      </contour>
      <contour>
        <pt x="443" y="296" on="1"/>
        <pt x="442" y="254" on="0"/>
        <pt x="459" y="198" on="0"/>
        <pt x="498" y="165" on="0"/>
        <pt x="560" y="151" on="0"/>
        <pt x="604" y="151" on="1"/>
        <pt x="648" y="151" on="0"/>
        <pt x="710" y="165" on="0"/>
        <pt x="749" y="198" on="0"/>
        <pt x="766" y="254" on="0"/>
        <pt x="765" y="296" on="1"/>
        <pt x="736" y="1396" on="1"/>
        <pt x="735" y="1440" on="0"/>
        <pt x="717" y="1492" on="0"/>
        <pt x="684" y="1520" on="0"/>
        <pt x="636" y="1529" on="0"/>
        <pt x="604" y="1529" on="1"/>
        <pt x="572" y="1529" on="0"/>
        <pt x="524" y="1520" on="0"/>
        <pt x="491" y="1492" on="0"/>
        <pt x="473" y="1440" on="0"/>
        <pt x="472" y="1396" on="1"/>
      </contour>
    </TTGlyph>
    <TTGlyph name="R" xMin="124" yMin="0" xMax="1058" yMax="1690">
      <contour>
        <pt x="125" y="1607" on="1"/>
        <pt x="124" y="1633" on="0"/>
        <pt x="136" y="1665" on="0"/>
        <pt x="175" y="1683" on="0"/>
        <pt x="247" y="1690" on="0"/>
        <pt x="307" y="1690" on="1"/>
        <pt x="332" y="1690" on="1"/>
        <pt x="560" y="1690" on="1"/>
        <pt x="663" y="1690" on="0"/>
        <pt x="840" y="1653" on="0"/>
        <pt x="970" y="1574" on="0"/>
        <pt x="1043" y="1451" on="0"/>
        <pt x="1040" y="1364" on="1"/>
        <pt x="1027" y="889" on="1"/>
        <pt x="1026" y="851" on="0"/>
        <pt x="1005" y="773" on="0"/>
        <pt x="961" y="702" on="0"/>
        <pt x="892" y="640" on="0"/>
        <pt x="842" y="617" on="1"/>
        <pt x="1029" y="142" on="1"/>
        <pt x="1043" y="106" on="0"/>
        <pt x="1058" y="61" on="0"/>
        <pt x="1058" y="45" on="1"/>
        <pt x="1058" y="33" on="0"/>
        <pt x="1050" y="16" on="0"/>
        <pt x="1023" y="5" on="0"/>
        <pt x="973" y="0" on="0"/>
        <pt x="932" y="0" on="1"/>
        <pt x="892" y="0" on="0"/>
        <pt x="843" y="7" on="0"/>
        <pt x="811" y="25" on="0"/>
        <pt x="790" y="56" on="0"/>
        <pt x="778" y="80" on="1"/>
        <pt x="569" y="570" on="1"/>
        <pt x="459" y="570" on="1"/>
        <pt x="445" y="68" on="1"/>
        <pt x="445" y="45" on="0"/>
        <pt x="436" y="18" on="0"/>
        <pt x="407" y="4" on="0"/>
        <pt x="353" y="0" on="0"/>
        <pt x="307" y="0" on="1"/>
        <pt x="261" y="0" on="0"/>
        <pt x="206" y="4" on="0"/>
        <pt x="178" y="18" on="0"/>
        <pt x="169" y="45" on="0"/>
        <pt x="168" y="68" on="1"/>
      </contour>
      <contour>
        <pt x="539" y="733" on="1"/>
        <pt x="587" y="733" on="0"/>
        <pt x="651" y="748" on="0"/>
        <pt x="688" y="782" on="0"/>
        <pt x="703" y="839" on="0"/>
        <pt x="702" y="881" on="1"/>
        <pt x="688" y="1396" on="1"/>
        <pt x="687" y="1435" on="0"/>
        <pt x="673" y="1482" on="0"/>
        <pt x="637" y="1508" on="0"/>
        <pt x="576" y="1517" on="0"/>
        <pt x="528" y="1517" on="1"/>
        <pt x="486" y="1517" on="1"/>
        <pt x="464" y="733" on="1"/>
      </contour>
    </TTGlyph>
    <TTGlyph name="Racute" xMin="124" yMin="0" xMax="1058" yMax="2118">
      <component glyphName="R" x="0" y="0" flags="0x204"/>
      <component glyphName="acute.cap" x="360" y="0" flags="0x4"/>
    </TTGlyph>
    <TTGlyph name="Rcaron" xMin="124" yMin="0" xMax="1058" yMax="2118">
      <component glyphName="R" x="0" y="0" flags="0x204"/>
      <component glyphName="caron.cap" x="101" y="0" flags="0x4"/>
    </TTGlyph>
    <TTGlyph name="Rcommaaccent" xMin="124" yMin="-442" xMax="1058" yMax="1690">
      <component glyphName="R" x="0" y="0" flags="0x204"/>
      <component glyphName="commaaccent" x="321" y="0" flags="0x4"/>
    </TTGlyph>
    <TTGlyph name="S" xMin="108" yMin="-12" xMax="1080" yMax="1701">
      <contour>
        <pt x="144" y="415" on="1"/>
        <pt x="143" y="445" on="0"/>
        <pt x="153" y="482" on="0"/>
        <pt x="184" y="501" on="0"/>
        <pt x="240" y="507" on="0"/>
        <pt x="286" y="507" on="1"/>
        <pt x="332" y="507" on="0"/>
        <pt x="394" y="501" on="0"/>
        <pt x="431" y="482" on="0"/>
        <pt x="446" y="445" on="0"/>
        <pt x="445" y="415" on="1"/>
        <pt x="441" y="296" on="1"/>
        <pt x="439" y="254" on="0"/>
        <pt x="456" y="198" on="0"/>
        <pt x="495" y="165" on="0"/>
        <pt x="557" y="151" on="0"/>
        <pt x="601" y="151" on="1"/>
        <pt x="646" y="151" on="0"/>
        <pt x="709" y="165" on="0"/>
        <pt x="747" y="198" on="0"/>
        <pt x="763" y="254" on="0"/>
        <pt x="763" y="296" on="1"/>
        <pt x="762" y="361" on="1"/>
        <pt x="762" y="396" on="0"/>
        <pt x="756" y="453" on="0"/>
        <pt x="737" y="499" on="0"/>
        <pt x="700" y="535" on="0"/>
        <pt x="667" y="549" on="1"/>
        <pt x="320" y="697" on="1"/>
        <pt x="263" y="722" on="0"/>
        <pt x="187" y="784" on="0"/>
        <pt x="142" y="864" on="0"/>
        <pt x="122" y="964" on="0"/>
        <pt x="120" y="1026" on="1"/>
        <pt x="110" y="1365" on="1"/>
        <pt x="108" y="1440" on="0"/>
        <pt x="161" y="1564" on="0"/>
        <pt x="279" y="1652" on="0"/>
        <pt x="464" y="1701" on="0"/>
        <pt x="594" y="1701" on="1"/>
        <pt x="724" y="1701" on="0"/>
        <pt x="909" y="1652" on="0"/>
        <pt x="1026" y="1564" on="0"/>
        <pt x="1080" y="1440" on="0"/>
        <pt x="1078" y="1365" on="1"/>
        <pt x="1068" y="965" on="1"/>
        <pt x="1067" y="935" on="0"/>
        <pt x="1051" y="898" on="0"/>
        <pt x="1013" y="879" on="0"/>
        <pt x="950" y="873" on="0"/>
        <pt x="904" y="873" on="1"/>
        <pt x="857" y="873" on="0"/>
        <pt x="794" y="879" on="0"/>
        <pt x="756" y="898" on="0"/>
        <pt x="740" y="935" on="0"/>
        <pt x="739" y="965" on="1"/>
        <pt x="727" y="1396" on="1"/>
        <pt x="726" y="1440" on="0"/>
        <pt x="708" y="1492" on="0"/>
        <pt x="675" y="1520" on="0"/>
        <pt x="626" y="1529" on="0"/>
        <pt x="594" y="1529" on="1"/>
        <pt x="562" y="1529" on="0"/>
        <pt x="513" y="1520" on="0"/>
        <pt x="480" y="1492" on="0"/>
        <pt x="462" y="1440" on="0"/>
        <pt x="461" y="1396" on="1"/>
        <pt x="450" y="997" on="1"/>
        <pt x="449" y="959" on="0"/>
        <pt x="458" y="902" on="0"/>
        <pt x="483" y="858" on="0"/>
        <pt x="525" y="824" on="0"/>
        <pt x="558" y="810" on="1"/>
        <pt x="882" y="674" on="1"/>
        <pt x="935" y="652" on="0"/>
        <pt x="1006" y="601" on="0"/>
        <pt x="1048" y="529" on="0"/>
        <pt x="1063" y="429" on="0"/>
        <pt x="1059" y="357" on="1"/>
        <pt x="1057" y="301" on="1"/>
        <pt x="1055" y="236" on="0"/>
        <pt x="1003" y="122" on="0"/>
        <pt x="893" y="37" on="0"/>
        <pt x="722" y="-12" on="0"/>
        <pt x="601" y="-12" on="1"/>
        <pt x="480" y="-12" on="0"/>
        <pt x="309" y="38" on="0"/>
        <pt x="200" y="124" on="0"/>
        <pt x="148" y="240" on="0"/>
        <pt x="147" y="305" on="1"/>
      </contour>
    </TTGlyph>
    <TTGlyph name="T" xMin="40" yMin="0" xMax="915" yMax="1690">
      <contour>
        <pt x="298" y="1494" on="1"/>
        <pt x="111" y="1494" on="1"/>
        <pt x="85" y="1494" on="0"/>
        <pt x="56" y="1502" on="0"/>
        <pt x="43" y="1523" on="0"/>
        <pt x="40" y="1562" on="0"/>
        <pt x="40" y="1592" on="1"/>
        <pt x="40" y="1622" on="0"/>
        <pt x="43" y="1660" on="0"/>
        <pt x="56" y="1682" on="0"/>
        <pt x="85" y="1690" on="0"/>
        <pt x="111" y="1690" on="1"/>
        <pt x="454" y="1690" on="1"/>
        <pt x="477" y="1690" on="1"/>
        <pt x="843" y="1690" on="1"/>
        <pt x="869" y="1690" on="0"/>
        <pt x="898" y="1682" on="0"/>
        <pt x="912" y="1660" on="0"/>
        <pt x="915" y="1622" on="0"/>
        <pt x="915" y="1592" on="1"/>
        <pt x="915" y="1562" on="0"/>
        <pt x="912" y="1523" on="0"/>
        <pt x="898" y="1502" on="0"/>
        <pt x="869" y="1494" on="0"/>
        <pt x="843" y="1494" on="1"/>
        <pt x="656" y="1494" on="1"/>
        <pt x="616" y="63" on="1"/>
        <pt x="615" y="43" on="0"/>
        <pt x="606" y="19" on="0"/>
        <pt x="578" y="5" on="0"/>
        <pt x="523" y="0" on="0"/>
        <pt x="477" y="0" on="1"/>
        <pt x="431" y="0" on="0"/>
        <pt x="377" y="4" on="0"/>
        <pt x="348" y="18" on="0"/>
        <pt x="340" y="45" on="0"/>
        <pt x="339" y="68" on="1"/>
      </contour>
    </TTGlyph>
    <TTGlyph name="Thorn" xMin="124" yMin="0" xMax="1083" yMax="1690">
      <contour>
        <pt x="125" y="1607" on="1"/>
        <pt x="124" y="1633" on="0"/>
        <pt x="136" y="1665" on="0"/>
        <pt x="175" y="1683" on="0"/>
        <pt x="247" y="1690" on="0"/>
        <pt x="307" y="1690" on="1"/>
        <pt x="366" y="1690" on="0"/>
        <pt x="438" y="1683" on="0"/>
        <pt x="477" y="1665" on="0"/>
        <pt x="490" y="1633" on="0"/>
        <pt x="489" y="1607" on="1"/>
        <pt x="483" y="1418" on="1"/>
        <pt x="600" y="1418" on="1"/>
        <pt x="702" y="1418" on="0"/>
        <pt x="880" y="1381" on="0"/>
        <pt x="1010" y="1303" on="0"/>
        <pt x="1083" y="1180" on="0"/>
        <pt x="1080" y="1093" on="1"/>
        <pt x="1066" y="617" on="1"/>
        <pt x="1064" y="560" on="0"/>
        <pt x="1019" y="446" on="0"/>
        <pt x="916" y="356" on="0"/>
        <pt x="748" y="299" on="0"/>
        <pt x="623" y="299" on="1"/>
        <pt x="451" y="299" on="1"/>
        <pt x="445" y="68" on="1"/>
        <pt x="445" y="45" on="0"/>
        <pt x="436" y="18" on="0"/>
        <pt x="407" y="4" on="0"/>
        <pt x="353" y="0" on="0"/>
        <pt x="307" y="0" on="1"/>
        <pt x="261" y="0" on="0"/>
        <pt x="206" y="4" on="0"/>
        <pt x="178" y="18" on="0"/>
        <pt x="169" y="45" on="0"/>
        <pt x="168" y="68" on="1"/>
      </contour>
      <contour>
        <pt x="578" y="462" on="1"/>
        <pt x="626" y="462" on="0"/>
        <pt x="690" y="477" on="0"/>
        <pt x="728" y="511" on="0"/>
        <pt x="743" y="568" on="0"/>
        <pt x="742" y="610" on="1"/>
        <pt x="728" y="1124" on="1"/>
        <pt x="727" y="1163" on="0"/>
        <pt x="713" y="1211" on="0"/>
        <pt x="677" y="1237" on="0"/>
        <pt x="615" y="1246" on="0"/>
        <pt x="567" y="1246" on="1"/>
        <pt x="478" y="1246" on="1"/>
        <pt x="456" y="462" on="1"/>
      </contour>
    </TTGlyph>
    <TTGlyph name="U" xMin="109" yMin="-12" xMax="1092" yMax="1690">
      <contour>
        <pt x="110" y="1607" on="1"/>
        <pt x="109" y="1633" on="0"/>
        <pt x="121" y="1665" on="0"/>
        <pt x="160" y="1683" on="0"/>
        <pt x="233" y="1690" on="0"/>
        <pt x="292" y="1690" on="1"/>
        <pt x="351" y="1690" on="0"/>
        <pt x="423" y="1683" on="0"/>
        <pt x="462" y="1665" on="0"/>
        <pt x="475" y="1633" on="0"/>
        <pt x="474" y="1607" on="1"/>
        <pt x="440" y="296" on="1"/>
        <pt x="439" y="254" on="0"/>
        <pt x="456" y="198" on="0"/>
        <pt x="495" y="165" on="0"/>
        <pt x="557" y="151" on="0"/>
        <pt x="601" y="151" on="1"/>
        <pt x="645" y="151" on="0"/>
        <pt x="707" y="165" on="0"/>
        <pt x="746" y="198" on="0"/>
        <pt x="763" y="254" on="0"/>
        <pt x="762" y="296" on="1"/>
        <pt x="727" y="1607" on="1"/>
        <pt x="726" y="1633" on="0"/>
        <pt x="738" y="1665" on="0"/>
        <pt x="777" y="1683" on="0"/>
        <pt x="849" y="1690" on="0"/>
        <pt x="909" y="1690" on="1"/>
        <pt x="968" y="1690" on="0"/>
        <pt x="1040" y="1683" on="0"/>
        <pt x="1079" y="1665" on="0"/>
        <pt x="1092" y="1633" on="0"/>
        <pt x="1091" y="1607" on="1"/>
        <pt x="1056" y="305" on="1"/>
        <pt x="1054" y="240" on="0"/>
        <pt x="1002" y="124" on="0"/>
        <pt x="893" y="38" on="0"/>
        <pt x="722" y="-12" on="0"/>
        <pt x="601" y="-12" on="1"/>
        <pt x="480" y="-12" on="0"/>
        <pt x="308" y="38" on="0"/>
        <pt x="199" y="124" on="0"/>
        <pt x="147" y="240" on="0"/>
        <pt x="146" y="305" on="1"/>
      </contour>
    </TTGlyph>
    <TTGlyph name="Uacute" xMin="109" yMin="-12" xMax="1092" yMax="2118">
      <component glyphName="U" x="0" y="0" flags="0x204"/>
      <component glyphName="acute.cap" x="369" y="0" flags="0x4"/>
    </TTGlyph>
    <TTGlyph name="Ucircumflex" xMin="109" yMin="-12" xMax="1092" yMax="2118">
      <component glyphName="U" x="0" y="0" flags="0x204"/>
      <component glyphName="circumflex.cap" x="122" y="0" flags="0x4"/>
    </TTGlyph>
    <TTGlyph name="Udieresis" xMin="109" yMin="-12" xMax="1092" yMax="2110">
      <component glyphName="U" x="0" y="0" flags="0x204"/>
      <component glyphName="dieresis.cap" x="120" y="0" flags="0x4"/>
    </TTGlyph>
    <TTGlyph name="Ugrave" xMin="109" yMin="-12" xMax="1092" yMax="2118">
      <component glyphName="U" x="0" y="0" flags="0x204"/>
      <component glyphName="grave.cap" x="189" y="0" flags="0x4"/>
    </TTGlyph>
    <TTGlyph name="V" xMin="28" yMin="0" xMax="1093" yMax="1690">
      <contour>
        <pt x="34" y="1607" on="1"/>
        <pt x="28" y="1632" on="0"/>
        <pt x="39" y="1664" on="0"/>
        <pt x="78" y="1683" on="0"/>
        <pt x="150" y="1690" on="0"/>
        <pt x="206" y="1690" on="1"/>
        <pt x="269" y="1690" on="0"/>
        <pt x="342" y="1683" on="0"/>
        <pt x="381" y="1665" on="0"/>
        <pt x="395" y="1632" on="0"/>
        <pt x="398" y="1607" on="1"/>
        <pt x="552" y="399" on="1"/>
        <pt x="584" y="399" on="1"/>
        <pt x="734" y="1607" on="1"/>
        <pt x="737" y="1632" on="0"/>
        <pt x="750" y="1665" on="0"/>
        <pt x="787" y="1683" on="0"/>
        <pt x="856" y="1690" on="0"/>
        <pt x="916" y="1690" on="1"/>
        <pt x="972" y="1690" on="0"/>
        <pt x="1044" y="1683" on="0"/>
        <pt x="1083" y="1664" on="0"/>
        <pt x="1093" y="1632" on="0"/>
        <pt x="1088" y="1607" on="1"/>
        <pt x="755" y="68" on="1"/>
        <pt x="749" y="46" on="0"/>
        <pt x="730" y="19" on="0"/>
        <pt x="690" y="5" on="0"/>
        <pt x="623" y="0" on="0"/>
        <pt x="570" y="0" on="1"/>
        <pt x="514" y="0" on="0"/>
        <pt x="444" y="5" on="0"/>
        <pt x="402" y="19" on="0"/>
        <pt x="381" y="46" on="0"/>
        <pt x="375" y="68" on="1"/>
      </contour>
    </TTGlyph>
    <TTGlyph name="W" xMin="47" yMin="0" xMax="1717" yMax="1690">
      <contour>
        <pt x="53" y="1607" on="1"/>
        <pt x="47" y="1632" on="0"/>
        <pt x="59" y="1664" on="0"/>
        <pt x="102" y="1683" on="0"/>
        <pt x="183" y="1690" on="0"/>
        <pt x="246" y="1690" on="1"/>
        <pt x="309" y="1690" on="0"/>
        <pt x="383" y="1683" on="0"/>
        <pt x="424" y="1665" on="0"/>
        <pt x="437" y="1633" on="0"/>
        <pt x="438" y="1607" on="1"/>
        <pt x="501" y="287" on="1"/>
        <pt x="531" y="287" on="1"/>
        <pt x="726" y="1607" on="1"/>
        <pt x="729" y="1632" on="0"/>
        <pt x="741" y="1665" on="0"/>
        <pt x="774" y="1683" on="0"/>
        <pt x="835" y="1690" on="0"/>
        <pt x="888" y="1690" on="1"/>
        <pt x="944" y="1690" on="0"/>
        <pt x="1009" y="1683" on="0"/>
        <pt x="1043" y="1665" on="0"/>
        <pt x="1056" y="1632" on="0"/>
        <pt x="1060" y="1607" on="1"/>
        <pt x="1256" y="287" on="1"/>
        <pt x="1286" y="287" on="1"/>
        <pt x="1348" y="1607" on="1"/>
        <pt x="1349" y="1632" on="0"/>
        <pt x="1362" y="1665" on="0"/>
        <pt x="1400" y="1683" on="0"/>
        <pt x="1471" y="1690" on="0"/>
        <pt x="1531" y="1690" on="1"/>
        <pt x="1590" y="1690" on="0"/>
        <pt x="1665" y="1683" on="0"/>
        <pt x="1705" y="1665" on="0"/>
        <pt x="1717" y="1632" on="0"/>
        <pt x="1713" y="1607" on="1"/>
        <pt x="1448" y="68" on="1"/>
        <pt x="1443" y="46" on="0"/>
        <pt x="1427" y="19" on="0"/>
        <pt x="1393" y="5" on="0"/>
        <pt x="1337" y="0" on="0"/>
        <pt x="1293" y="0" on="1"/>
        <pt x="1234" y="0" on="0"/>
        <pt x="1160" y="4" on="0"/>
        <pt x="1115" y="19" on="0"/>
        <pt x="1094" y="45" on="0"/>
        <pt x="1088" y="68" on="1"/>
        <pt x="898" y="1192" on="1"/>
        <pt x="877" y="1192" on="1"/>
        <pt x="688" y="68" on="1"/>
        <pt x="683" y="45" on="0"/>
        <pt x="663" y="19" on="0"/>
        <pt x="620" y="4" on="0"/>
        <pt x="549" y="0" on="0"/>
        <pt x="493" y="0" on="1"/>
        <pt x="443" y="0" on="0"/>
        <pt x="380" y="5" on="0"/>
        <pt x="342" y="19" on="0"/>
        <pt x="324" y="46" on="0"/>
        <pt x="318" y="68" on="1"/>
      </contour>
    </TTGlyph>
    <TTGlyph name="X" xMin="30" yMin="0" xMax="1094" yMax="1690">
      <contour>
        <pt x="92" y="53" on="1"/>
        <pt x="92" y="68" on="0"/>
        <pt x="103" y="106" on="0"/>
        <pt x="114" y="142" on="1"/>
        <pt x="321" y="790" on="1"/>
        <pt x="51" y="1545" on="1"/>
        <pt x="42" y="1573" on="0"/>
        <pt x="30" y="1612" on="0"/>
        <pt x="30" y="1632" on="1"/>
        <pt x="30" y="1651" on="0"/>
        <pt x="46" y="1674" on="0"/>
        <pt x="88" y="1686" on="0"/>
        <pt x="160" y="1690" on="0"/>
        <pt x="215" y="1690" on="1"/>
        <pt x="270" y="1690" on="0"/>
        <pt x="336" y="1686" on="0"/>
        <pt x="375" y="1669" on="0"/>
        <pt x="393" y="1634" on="0"/>
        <pt x="400" y="1602" on="1"/>
        <pt x="552" y="916" on="1"/>
        <pt x="572" y="916" on="1"/>
        <pt x="723" y="1602" on="1"/>
        <pt x="730" y="1634" on="0"/>
        <pt x="748" y="1669" on="0"/>
        <pt x="786" y="1686" on="0"/>
        <pt x="852" y="1690" on="0"/>
        <pt x="908" y="1690" on="1"/>
        <pt x="963" y="1690" on="0"/>
        <pt x="1035" y="1686" on="0"/>
        <pt x="1077" y="1674" on="0"/>
        <pt x="1094" y="1651" on="0"/>
        <pt x="1094" y="1632" on="1"/>
        <pt x="1094" y="1612" on="0"/>
        <pt x="1081" y="1574" on="0"/>
        <pt x="1071" y="1545" on="1"/>
        <pt x="806" y="790" on="1"/>
        <pt x="1013" y="142" on="1"/>
        <pt x="1024" y="105" on="0"/>
        <pt x="1035" y="68" on="0"/>
        <pt x="1035" y="53" on="1"/>
        <pt x="1035" y="41" on="0"/>
        <pt x="1027" y="21" on="0"/>
        <pt x="1002" y="8" on="0"/>
        <pt x="956" y="0" on="0"/>
        <pt x="918" y="0" on="1"/>
        <pt x="878" y="0" on="0"/>
        <pt x="826" y="6" on="0"/>
        <pt x="793" y="24" on="0"/>
        <pt x="773" y="55" on="0"/>
        <pt x="764" y="80" on="1"/>
        <pt x="573" y="632" on="1"/>
        <pt x="553" y="632" on="1"/>
        <pt x="362" y="80" on="1"/>
        <pt x="353" y="55" on="0"/>
        <pt x="333" y="24" on="0"/>
        <pt x="300" y="6" on="0"/>
        <pt x="249" y="0" on="0"/>
        <pt x="209" y="0" on="1"/>
        <pt x="171" y="0" on="0"/>
        <pt x="125" y="8" on="0"/>
        <pt x="100" y="21" on="0"/>
        <pt x="92" y="41" on="0"/>
      </contour>
    </TTGlyph>
    <TTGlyph name="Y" xMin="30" yMin="0" xMax="1094" yMax="1690">
      <contour>
        <pt x="411" y="527" on="1"/>
        <pt x="51" y="1541" on="1"/>
        <pt x="42" y="1568" on="0"/>
        <pt x="30" y="1612" on="0"/>
        <pt x="30" y="1632" on="1"/>
        <pt x="30" y="1651" on="0"/>
        <pt x="46" y="1674" on="0"/>
        <pt x="88" y="1686" on="0"/>
        <pt x="160" y="1690" on="0"/>
        <pt x="215" y="1690" on="1"/>
        <pt x="270" y="1690" on="0"/>
        <pt x="337" y="1686" on="0"/>
        <pt x="376" y="1669" on="0"/>
        <pt x="394" y="1634" on="0"/>
        <pt x="400" y="1602" on="1"/>
        <pt x="551" y="820" on="1"/>
        <pt x="573" y="820" on="1"/>
        <pt x="723" y="1602" on="1"/>
        <pt x="729" y="1634" on="0"/>
        <pt x="747" y="1670" on="0"/>
        <pt x="785" y="1687" on="0"/>
        <pt x="852" y="1690" on="0"/>
        <pt x="908" y="1690" on="1"/>
        <pt x="963" y="1690" on="0"/>
        <pt x="1035" y="1686" on="0"/>
        <pt x="1077" y="1674" on="0"/>
        <pt x="1094" y="1651" on="0"/>
        <pt x="1094" y="1632" on="1"/>
        <pt x="1094" y="1612" on="0"/>
        <pt x="1080" y="1569" on="0"/>
        <pt x="1071" y="1541" on="1"/>
        <pt x="714" y="520" on="1"/>
        <pt x="701" y="68" on="1"/>
        <pt x="700" y="45" on="0"/>
        <pt x="691" y="18" on="0"/>
        <pt x="663" y="4" on="0"/>
        <pt x="608" y="0" on="0"/>
        <pt x="562" y="0" on="1"/>
        <pt x="516" y="0" on="0"/>
        <pt x="462" y="4" on="0"/>
        <pt x="434" y="18" on="0"/>
        <pt x="425" y="45" on="0"/>
        <pt x="424" y="68" on="1"/>
      </contour>
    </TTGlyph>
    <TTGlyph name="Yacute" xMin="30" yMin="0" xMax="1094" yMax="2118">
      <component glyphName="Y" x="0" y="0" flags="0x204"/>
      <component glyphName="acute.cap" x="330" y="0" flags="0x4"/>
    </TTGlyph>
    <TTGlyph name="Ydieresis" xMin="30" yMin="0" xMax="1094" yMax="2110">
      <component glyphName="Y" x="0" y="0" flags="0x204"/>
      <component glyphName="dieresis.cap" x="81" y="0" flags="0x4"/>
    </TTGlyph>
    <TTGlyph name="Z" xMin="59" yMin="0" xMax="935" yMax="1690">
      <contour>
        <pt x="102" y="98" on="1"/>
        <pt x="102" y="126" on="0"/>
        <pt x="104" y="162" on="0"/>
        <pt x="109" y="173" on="1"/>
        <pt x="550" y="1494" on="1"/>
        <pt x="131" y="1494" on="1"/>
        <pt x="105" y="1494" on="0"/>
        <pt x="76" y="1502" on="0"/>
        <pt x="62" y="1523" on="0"/>
        <pt x="59" y="1562" on="0"/>
        <pt x="59" y="1592" on="1"/>
        <pt x="59" y="1622" on="0"/>
        <pt x="62" y="1660" on="0"/>
        <pt x="76" y="1682" on="0"/>
        <pt x="105" y="1690" on="0"/>
        <pt x="131" y="1690" on="1"/>
        <pt x="730" y="1690" on="1"/>
        <pt x="750" y="1690" on="1"/>
        <pt x="863" y="1690" on="1"/>
        <pt x="889" y="1690" on="0"/>
        <pt x="918" y="1682" on="0"/>
        <pt x="932" y="1660" on="0"/>
        <pt x="935" y="1622" on="0"/>
        <pt x="935" y="1592" on="1"/>
        <pt x="935" y="1563" on="0"/>
        <pt x="933" y="1526" on="0"/>
        <pt x="927" y="1515" on="1"/>
        <pt x="418" y="196" on="1"/>
        <pt x="820" y="196" on="1"/>
        <pt x="846" y="196" on="0"/>
        <pt x="875" y="188" on="0"/>
        <pt x="888" y="166" on="0"/>
        <pt x="891" y="128" on="0"/>
        <pt x="891" y="98" on="1"/>
        <pt x="891" y="68" on="0"/>
        <pt x="888" y="30" on="0"/>
        <pt x="875" y="8" on="0"/>
        <pt x="846" y="0" on="0"/>
        <pt x="820" y="0" on="1"/>
        <pt x="263" y="0" on="1"/>
        <pt x="247" y="0" on="1"/>
        <pt x="173" y="0" on="1"/>
        <pt x="147" y="0" on="0"/>
        <pt x="118" y="8" on="0"/>
        <pt x="105" y="30" on="0"/>
        <pt x="102" y="68" on="0"/>
      </contour>
    </TTGlyph>
    <TTGlyph name="a" xMin="108" yMin="-12" xMax="967" yMax="1214">
      <contour>
        <pt x="109" y="291" on="1"/>
        <pt x="108" y="347" on="0"/>
        <pt x="158" y="432" on="0"/>
        <pt x="237" y="496" on="0"/>
        <pt x="337" y="541" on="0"/>
        <pt x="386" y="557" on="1"/>
        <pt x="449" y="578" on="0"/>
        <pt x="590" y="608" on="0"/>
        <pt x="657" y="619" on="1"/>
        <pt x="648" y="950" on="1"/>
        <pt x="646" y="1005" on="0"/>
        <pt x="595" y="1058" on="0"/>
        <pt x="540" y="1058" on="1"/>
        <pt x="514" y="1058" on="0"/>
        <pt x="472" y="1050" on="0"/>
        <pt x="441" y="1026" on="0"/>
        <pt x="423" y="984" on="0"/>
        <pt x="422" y="951" on="1"/>
        <pt x="415" y="724" on="1"/>
        <pt x="415" y="705" on="0"/>
        <pt x="404" y="683" on="0"/>
        <pt x="372" y="671" on="0"/>
        <pt x="313" y="667" on="0"/>
        <pt x="264" y="667" on="1"/>
        <pt x="219" y="667" on="0"/>
        <pt x="163" y="671" on="0"/>
        <pt x="133" y="683" on="0"/>
        <pt x="123" y="705" on="0"/>
        <pt x="122" y="724" on="1"/>
        <pt x="114" y="937" on="1"/>
        <pt x="112" y="990" on="0"/>
        <pt x="152" y="1073" on="0"/>
        <pt x="221" y="1134" on="0"/>
        <pt x="310" y="1176" on="0"/>
        <pt x="407" y="1203" on="0"/>
        <pt x="503" y="1214" on="0"/>
        <pt x="543" y="1214" on="1"/>
        <pt x="629" y="1214" on="0"/>
        <pt x="784" y="1175" on="0"/>
        <pt x="900" y="1101" on="0"/>
        <pt x="967" y="994" on="0"/>
        <pt x="965" y="925" on="1"/>
        <pt x="934" y="57" on="1"/>
        <pt x="933" y="38" on="0"/>
        <pt x="924" y="16" on="0"/>
        <pt x="896" y="4" on="0"/>
        <pt x="845" y="0" on="0"/>
        <pt x="803" y="0" on="1"/>
        <pt x="764" y="0" on="0"/>
        <pt x="717" y="4" on="0"/>
        <pt x="692" y="16" on="0"/>
        <pt x="683" y="38" on="0"/>
        <pt x="683" y="57" on="1"/>
        <pt x="682" y="92" on="1"/>
        <pt x="655" y="72" on="0"/>
        <pt x="591" y="35" on="0"/>
        <pt x="519" y="6" on="0"/>
        <pt x="438" y="-12" on="0"/>
        <pt x="394" y="-12" on="1"/>
        <pt x="324" y="-12" on="0"/>
        <pt x="218" y="27" on="0"/>
        <pt x="147" y="94" on="0"/>
        <pt x="111" y="185" on="0"/>
        <pt x="110" y="237" on="1"/>
      </contour>
      <contour>
        <pt x="383" y="267" on="1"/>
        <pt x="383" y="237" on="0"/>
        <pt x="401" y="194" on="0"/>
        <pt x="431" y="167" on="0"/>
        <pt x="472" y="154" on="0"/>
        <pt x="496" y="154" on="1"/>
        <pt x="554" y="154" on="0"/>
        <pt x="638" y="192" on="0"/>
        <pt x="668" y="217" on="1"/>
        <pt x="661" y="474" on="1"/>
        <pt x="607" y="465" on="0"/>
        <pt x="525" y="442" on="0"/>
        <pt x="493" y="428" on="1"/>
        <pt x="443" y="405" on="0"/>
        <pt x="383" y="350" on="0"/>
        <pt x="383" y="306" on="1"/>
      </contour>
    </TTGlyph>
    <TTGlyph name="aacute" xMin="108" yMin="-12" xMax="967" yMax="1784">
      <component glyphName="a" x="0" y="0" flags="0x204"/>
      <component glyphName="acute" x="296" y="0" flags="0x4"/>
    </TTGlyph>
    <TTGlyph name="acircumflex" xMin="108" yMin="-12" xMax="967" yMax="1214">
      <component glyphName="a" x="0" y="0" flags="0x204"/>
      <component glyphName="circumflex" x="543" y="0" flags="0x4"/>
    </TTGlyph>
    <TTGlyph name="acute" xMin="114" yMin="1382" xMax="563" yMax="1784">
      <contour>
        <pt x="210" y="1382" on="1"/>
        <pt x="159" y="1382" on="0"/>
        <pt x="114" y="1399" on="0"/>
        <pt x="114" y="1419" on="1"/>
        <pt x="114" y="1438" on="0"/>
        <pt x="143" y="1484" on="0"/>
        <pt x="163" y="1522" on="1"/>
        <pt x="270" y="1722" on="1"/>
        <pt x="280" y="1742" on="0"/>
        <pt x="302" y="1766" on="0"/>
        <pt x="335" y="1780" on="0"/>
        <pt x="387" y="1784" on="0"/>
        <pt x="429" y="1784" on="1"/>
        <pt x="470" y="1784" on="0"/>
        <pt x="522" y="1779" on="0"/>
        <pt x="552" y="1770" on="0"/>
        <pt x="563" y="1755" on="0"/>
        <pt x="563" y="1745" on="1"/>
        <pt x="563" y="1729" on="0"/>
        <pt x="539" y="1690" on="0"/>
        <pt x="521" y="1667" on="1"/>
        <pt x="349" y="1441" on="1"/>
        <pt x="335" y="1423" on="0"/>
        <pt x="315" y="1400" on="0"/>
        <pt x="288" y="1387" on="0"/>
        <pt x="246" y="1382" on="0"/>
      </contour>
    </TTGlyph>
    <TTGlyph name="acute.cap" xMin="114" yMin="1770" xMax="541" yMax="2118">
      <contour>
        <pt x="212" y="1770" on="1"/>
        <pt x="161" y="1770" on="0"/>
        <pt x="114" y="1784" on="0"/>
        <pt x="114" y="1804" on="1"/>
        <pt x="114" y="1821" on="0"/>
        <pt x="147" y="1873" on="0"/>
        <pt x="168" y="1910" on="1"/>
        <pt x="250" y="2056" on="1"/>
        <pt x="261" y="2076" on="0"/>
        <pt x="282" y="2100" on="0"/>
        <pt x="315" y="2114" on="0"/>
        <pt x="367" y="2118" on="0"/>
        <pt x="409" y="2118" on="1"/>
        <pt x="447" y="2118" on="0"/>
        <pt x="498" y="2115" on="0"/>
        <pt x="528" y="2107" on="0"/>
        <pt x="541" y="2093" on="0"/>
        <pt x="541" y="2083" on="1"/>
        <pt x="541" y="2067" on="0"/>
        <pt x="515" y="2029" on="0"/>
        <pt x="496" y="2005" on="1"/>
        <pt x="352" y="1827" on="1"/>
        <pt x="338" y="1809" on="0"/>
        <pt x="317" y="1787" on="0"/>
        <pt x="290" y="1775" on="0"/>
        <pt x="248" y="1770" on="0"/>
      </contour>
    </TTGlyph>
    <TTGlyph name="adieresis" xMin="108" yMin="-12" xMax="967" yMax="1708">
      <component glyphName="a" x="0" y="0" flags="0x204"/>
      <component glyphName="dieresis" x="65" y="0" flags="0x4"/>
    </TTGlyph>
    <TTGlyph name="ae" xMin="108" yMin="-12" xMax="1508" yMax="1214">
      <contour>
        <pt x="109" y="291" on="1"/>
        <pt x="108" y="347" on="0"/>
        <pt x="158" y="431" on="0"/>
        <pt x="238" y="495" on="0"/>
        <pt x="337" y="540" on="0"/>
        <pt x="386" y="557" on="1"/>
        <pt x="452" y="578" on="0"/>
        <pt x="597" y="609" on="0"/>
        <pt x="666" y="620" on="1"/>
        <pt x="655" y="972" on="1"/>
        <pt x="648" y="1016" on="0"/>
        <pt x="599" y="1058" on="0"/>
        <pt x="550" y="1058" on="1"/>
        <pt x="524" y="1058" on="0"/>
        <pt x="482" y="1050" on="0"/>
        <pt x="451" y="1026" on="0"/>
        <pt x="433" y="984" on="0"/>
        <pt x="432" y="951" on="1"/>
        <pt x="425" y="724" on="1"/>
        <pt x="425" y="705" on="0"/>
        <pt x="414" y="683" on="0"/>
        <pt x="382" y="671" on="0"/>
        <pt x="323" y="667" on="0"/>
        <pt x="274" y="667" on="1"/>
        <pt x="229" y="667" on="0"/>
        <pt x="173" y="671" on="0"/>
        <pt x="143" y="683" on="0"/>
        <pt x="133" y="705" on="0"/>
        <pt x="132" y="724" on="1"/>
        <pt x="124" y="958" on="1"/>
        <pt x="122" y="1006" on="0"/>
        <pt x="160" y="1081" on="0"/>
        <pt x="224" y="1138" on="0"/>
        <pt x="308" y="1178" on="0"/>
        <pt x="398" y="1203" on="0"/>
        <pt x="486" y="1214" on="0"/>
        <pt x="522" y="1214" on="1"/>
        <pt x="621" y="1214" on="0"/>
        <pt x="782" y="1172" on="0"/>
        <pt x="841" y="1134" on="1"/>
        <pt x="894" y="1171" on="0"/>
        <pt x="1036" y="1214" on="0"/>
        <pt x="1131" y="1214" on="1"/>
        <pt x="1191" y="1214" on="0"/>
        <pt x="1326" y="1179" on="0"/>
        <pt x="1437" y="1105" on="0"/>
        <pt x="1508" y="990" on="0"/>
        <pt x="1505" y="910" on="1"/>
        <pt x="1490" y="541" on="1"/>
        <pt x="1489" y="522" on="0"/>
        <pt x="1478" y="500" on="0"/>
        <pt x="1448" y="488" on="0"/>
        <pt x="1393" y="484" on="0"/>
        <pt x="1348" y="484" on="1"/>
        <pt x="956" y="484" on="1"/>
        <pt x="950" y="250" on="1"/>
        <pt x="948" y="187" on="0"/>
        <pt x="1023" y="132" on="0"/>
        <pt x="1092" y="132" on="1"/>
        <pt x="1124" y="132" on="0"/>
        <pt x="1171" y="141" on="0"/>
        <pt x="1201" y="167" on="0"/>
        <pt x="1216" y="211" on="0"/>
        <pt x="1216" y="247" on="1"/>
        <pt x="1216" y="290" on="1"/>
        <pt x="1216" y="309" on="0"/>
        <pt x="1225" y="334" on="0"/>
        <pt x="1252" y="349" on="0"/>
        <pt x="1303" y="355" on="0"/>
        <pt x="1344" y="355" on="1"/>
        <pt x="1388" y="355" on="0"/>
        <pt x="1442" y="349" on="0"/>
        <pt x="1471" y="334" on="0"/>
        <pt x="1480" y="310" on="0"/>
        <pt x="1480" y="291" on="1"/>
        <pt x="1480" y="247" on="1"/>
        <pt x="1480" y="168" on="0"/>
        <pt x="1412" y="68" on="0"/>
        <pt x="1301" y="10" on="0"/>
        <pt x="1158" y="-12" on="0"/>
        <pt x="1083" y="-12" on="1"/>
        <pt x="1039" y="-12" on="0"/>
        <pt x="948" y="3" on="0"/>
        <pt x="859" y="36" on="0"/>
        <pt x="775" y="89" on="0"/>
        <pt x="740" y="126" on="1"/>
        <pt x="714" y="102" on="0"/>
        <pt x="646" y="53" on="0"/>
        <pt x="565" y="13" on="0"/>
        <pt x="472" y="-12" on="0"/>
        <pt x="421" y="-12" on="1"/>
        <pt x="344" y="-12" on="0"/>
        <pt x="228" y="27" on="0"/>
        <pt x="150" y="94" on="0"/>
        <pt x="111" y="185" on="0"/>
        <pt x="110" y="237" on="1"/>
      </contour>
      <contour>
        <pt x="1208" y="634" on="1"/>
        <pt x="1198" y="927" on="1"/>
        <pt x="1197" y="969" on="0"/>
        <pt x="1180" y="1021" on="0"/>
        <pt x="1151" y="1049" on="0"/>
        <pt x="1112" y="1058" on="0"/>
        <pt x="1090" y="1058" on="1"/>
        <pt x="1065" y="1058" on="0"/>
        <pt x="1022" y="1049" on="0"/>
        <pt x="990" y="1021" on="0"/>
        <pt x="970" y="969" on="0"/>
        <pt x="969" y="927" on="1"/>
        <pt x="960" y="634" on="1"/>
      </contour>
      <contour>
        <pt x="383" y="267" on="1"/>
        <pt x="383" y="237" on="0"/>
        <pt x="401" y="194" on="0"/>
        <pt x="431" y="167" on="0"/>
        <pt x="472" y="154" on="0"/>
        <pt x="496" y="154" on="1"/>
        <pt x="559" y="154" on="0"/>
        <pt x="649" y="195" on="0"/>
        <pt x="679" y="221" on="1"/>
        <pt x="670" y="476" on="1"/>
        <pt x="613" y="466" on="0"/>
        <pt x="526" y="442" on="0"/>
        <pt x="493" y="428" on="1"/>
        <pt x="443" y="405" on="0"/>
        <pt x="383" y="350" on="0"/>
        <pt x="383" y="306" on="1"/>
      </contour>
    </TTGlyph>
    <TTGlyph name="agrave" xMin="108" yMin="-12" xMax="967" yMax="1784">
      <component glyphName="a" x="0" y="0" flags="0x204"/>
      <component glyphName="grave" x="80" y="0" flags="0x4"/>
    </TTGlyph>
    <TTGlyph name="ampersand" xMin="119" yMin="-12" xMax="1205" yMax="1696">
      <contour>
        <pt x="145" y="427" on="1"/>
        <pt x="143" y="480" on="0"/>
        <pt x="167" y="556" on="0"/>
        <pt x="218" y="615" on="0"/>
        <pt x="294" y="665" on="0"/>
        <pt x="344" y="694" on="1"/>
        <pt x="344" y="702" on="1"/>
        <pt x="278" y="730" on="0"/>
        <pt x="197" y="793" on="0"/>
        <pt x="150" y="863" on="0"/>
        <pt x="133" y="940" on="0"/>
        <pt x="132" y="981" on="1"/>
        <pt x="121" y="1402" on="1"/>
        <pt x="119" y="1457" on="0"/>
        <pt x="159" y="1544" on="0"/>
        <pt x="228" y="1609" on="0"/>
        <pt x="321" y="1655" on="0"/>
        <pt x="426" y="1683" on="0"/>
        <pt x="537" y="1696" on="0"/>
        <pt x="589" y="1696" on="1"/>
        <pt x="641" y="1696" on="0"/>
        <pt x="751" y="1683" on="0"/>
        <pt x="856" y="1655" on="0"/>
        <pt x="949" y="1609" on="0"/>
        <pt x="1018" y="1544" on="0"/>
        <pt x="1057" y="1457" on="0"/>
        <pt x="1055" y="1402" on="1"/>
        <pt x="1041" y="1044" on="1"/>
        <pt x="1040" y="1013" on="0"/>
        <pt x="1025" y="977" on="0"/>
        <pt x="990" y="958" on="0"/>
        <pt x="933" y="952" on="0"/>
        <pt x="889" y="952" on="1"/>
        <pt x="845" y="952" on="0"/>
        <pt x="785" y="958" on="0"/>
        <pt x="749" y="977" on="0"/>
        <pt x="733" y="1013" on="0"/>
        <pt x="732" y="1044" on="1"/>
        <pt x="719" y="1384" on="1"/>
        <pt x="717" y="1423" on="0"/>
        <pt x="702" y="1474" on="0"/>
        <pt x="671" y="1505" on="0"/>
        <pt x="623" y="1517" on="0"/>
        <pt x="589" y="1517" on="1"/>
        <pt x="554" y="1517" on="0"/>
        <pt x="505" y="1505" on="0"/>
        <pt x="474" y="1474" on="0"/>
        <pt x="458" y="1423" on="0"/>
        <pt x="457" y="1384" on="1"/>
        <pt x="443" y="929" on="1"/>
        <pt x="441" y="887" on="0"/>
        <pt x="457" y="831" on="0"/>
        <pt x="493" y="797" on="0"/>
        <pt x="548" y="783" on="0"/>
        <pt x="587" y="783" on="1"/>
        <pt x="1132" y="783" on="1"/>
        <pt x="1159" y="783" on="0"/>
        <pt x="1188" y="774" on="0"/>
        <pt x="1202" y="753" on="0"/>
        <pt x="1205" y="719" on="0"/>
        <pt x="1205" y="695" on="1"/>
        <pt x="1205" y="671" on="0"/>
        <pt x="1202" y="637" on="0"/>
        <pt x="1188" y="616" on="0"/>
        <pt x="1159" y="607" on="0"/>
        <pt x="1133" y="607" on="1"/>
        <pt x="1027" y="607" on="1"/>
        <pt x="1024" y="278" on="1"/>
        <pt x="1022" y="219" on="0"/>
        <pt x="978" y="114" on="0"/>
        <pt x="877" y="35" on="0"/>
        <pt x="712" y="-12" on="0"/>
        <pt x="589" y="-12" on="1"/>
        <pt x="465" y="-12" on="0"/>
        <pt x="299" y="35" on="0"/>
        <pt x="198" y="114" on="0"/>
        <pt x="154" y="219" on="0"/>
        <pt x="152" y="278" on="1"/>
      </contour>
      <contour>
        <pt x="423" y="307" on="1"/>
        <pt x="421" y="227" on="0"/>
        <pt x="501" y="161" on="0"/>
        <pt x="587" y="161" on="1"/>
        <pt x="589" y="161" on="1"/>
        <pt x="674" y="161" on="0"/>
        <pt x="755" y="227" on="0"/>
        <pt x="753" y="307" on="1"/>
        <pt x="744" y="607" on="1"/>
        <pt x="589" y="607" on="1"/>
        <pt x="548" y="607" on="0"/>
        <pt x="489" y="597" on="0"/>
        <pt x="450" y="569" on="0"/>
        <pt x="430" y="520" on="0"/>
        <pt x="429" y="481" on="1"/>
      </contour>
    </TTGlyph>
    <TTGlyph name="aring" xMin="108" yMin="-12" xMax="967" yMax="1800">
      <component glyphName="a" x="0" y="0" flags="0x204"/>
      <component glyphName="ring" x="142" y="0" flags="0x4"/>
    </TTGlyph>
    <TTGlyph name="asciicircum" xMin="53" yMin="323" xMax="1033" yMax="1684">
      <contour>
        <pt x="156" y="323" on="1"/>
        <pt x="98" y="323" on="0"/>
        <pt x="53" y="354" on="0"/>
        <pt x="64" y="396" on="1"/>
        <pt x="365" y="1595" on="1"/>
        <pt x="371" y="1619" on="0"/>
        <pt x="391" y="1652" on="0"/>
        <pt x="429" y="1674" on="0"/>
        <pt x="490" y="1684" on="0"/>
        <pt x="538" y="1684" on="1"/>
        <pt x="589" y="1684" on="0"/>
        <pt x="653" y="1674" on="0"/>
        <pt x="693" y="1652" on="0"/>
        <pt x="714" y="1619" on="0"/>
        <pt x="721" y="1595" on="1"/>
        <pt x="1022" y="396" on="1"/>
        <pt x="1033" y="354" on="0"/>
        <pt x="984" y="323" on="0"/>
        <pt x="920" y="323" on="1"/>
        <pt x="883" y="323" on="0"/>
        <pt x="839" y="330" on="0"/>
        <pt x="812" y="347" on="0"/>
        <pt x="798" y="375" on="0"/>
        <pt x="792" y="396" on="1"/>
        <pt x="550" y="1237" on="1"/>
        <pt x="526" y="1237" on="1"/>
        <pt x="284" y="396" on="1"/>
        <pt x="278" y="375" on="0"/>
        <pt x="264" y="347" on="0"/>
        <pt x="237" y="330" on="0"/>
        <pt x="193" y="323" on="0"/>
      </contour>
    </TTGlyph>
    <TTGlyph name="asciitilde" xMin="60" yMin="527" xMax="1275" yMax="1073">
      <contour>
        <pt x="165" y="527" on="1"/>
        <pt x="107" y="527" on="0"/>
        <pt x="60" y="546" on="0"/>
        <pt x="60" y="570" on="1"/>
        <pt x="60" y="588" on="0"/>
        <pt x="77" y="630" on="0"/>
        <pt x="94" y="664" on="1"/>
        <pt x="267" y="997" on="1"/>
        <pt x="280" y="1024" on="0"/>
        <pt x="308" y="1054" on="0"/>
        <pt x="343" y="1069" on="0"/>
        <pt x="390" y="1073" on="0"/>
        <pt x="423" y="1073" on="1"/>
        <pt x="483" y="1073" on="1"/>
        <pt x="514" y="1073" on="0"/>
        <pt x="554" y="1066" on="0"/>
        <pt x="583" y="1053" on="0"/>
        <pt x="607" y="1031" on="0"/>
        <pt x="621" y="1016" on="1"/>
        <pt x="801" y="830" on="1"/>
        <pt x="815" y="815" on="0"/>
        <pt x="842" y="788" on="0"/>
        <pt x="854" y="788" on="1"/>
        <pt x="867" y="788" on="0"/>
        <pt x="890" y="826" on="0"/>
        <pt x="904" y="855" on="1"/>
        <pt x="982" y="1014" on="1"/>
        <pt x="992" y="1034" on="0"/>
        <pt x="1009" y="1058" on="0"/>
        <pt x="1038" y="1070" on="0"/>
        <pt x="1088" y="1073" on="0"/>
        <pt x="1130" y="1073" on="1"/>
        <pt x="1169" y="1073" on="0"/>
        <pt x="1225" y="1071" on="0"/>
        <pt x="1259" y="1063" on="0"/>
        <pt x="1275" y="1047" on="0"/>
        <pt x="1275" y="1033" on="1"/>
        <pt x="1275" y="1013" on="0"/>
        <pt x="1258" y="964" on="0"/>
        <pt x="1238" y="929" on="1"/>
        <pt x="1064" y="615" on="1"/>
        <pt x="1049" y="589" on="0"/>
        <pt x="1021" y="555" on="0"/>
        <pt x="988" y="535" on="0"/>
        <pt x="945" y="528" on="0"/>
        <pt x="915" y="528" on="1"/>
        <pt x="819" y="528" on="1"/>
        <pt x="790" y="528" on="0"/>
        <pt x="750" y="532" on="0"/>
        <pt x="714" y="547" on="0"/>
        <pt x="678" y="574" on="0"/>
        <pt x="655" y="598" on="1"/>
        <pt x="506" y="747" on="1"/>
        <pt x="483" y="770" on="0"/>
        <pt x="462" y="788" on="0"/>
        <pt x="453" y="788" on="1"/>
        <pt x="439" y="788" on="0"/>
        <pt x="420" y="763" on="0"/>
        <pt x="403" y="734" on="1"/>
        <pt x="319" y="587" on="1"/>
        <pt x="307" y="566" on="0"/>
        <pt x="286" y="542" on="0"/>
        <pt x="255" y="530" on="0"/>
        <pt x="206" y="527" on="0"/>
      </contour>
    </TTGlyph>
    <TTGlyph name="asterisk" xMin="125" yMin="1085" xMax="893" yMax="1875">
      <contour>
        <pt x="290" y="1123" on="1"/>
        <pt x="269" y="1138" on="0"/>
        <pt x="245" y="1161" on="0"/>
        <pt x="237" y="1184" on="0"/>
        <pt x="244" y="1208" on="0"/>
        <pt x="255" y="1223" on="1"/>
        <pt x="357" y="1361" on="1"/>
        <pt x="181" y="1405" on="1"/>
        <pt x="161" y="1411" on="0"/>
        <pt x="135" y="1424" on="0"/>
        <pt x="125" y="1450" on="0"/>
        <pt x="130" y="1494" on="0"/>
        <pt x="141" y="1530" on="1"/>
        <pt x="152" y="1566" on="0"/>
        <pt x="172" y="1607" on="0"/>
        <pt x="196" y="1626" on="0"/>
        <pt x="226" y="1626" on="0"/>
        <pt x="246" y="1619" on="1"/>
        <pt x="405" y="1558" on="1"/>
        <pt x="394" y="1802" on="1"/>
        <pt x="393" y="1823" on="0"/>
        <pt x="401" y="1852" on="0"/>
        <pt x="427" y="1868" on="0"/>
        <pt x="473" y="1875" on="0"/>
        <pt x="511" y="1875" on="1"/>
        <pt x="549" y="1875" on="0"/>
        <pt x="596" y="1869" on="0"/>
        <pt x="621" y="1852" on="0"/>
        <pt x="629" y="1824" on="0"/>
        <pt x="628" y="1803" on="1"/>
        <pt x="617" y="1560" on="1"/>
        <pt x="771" y="1619" on="1"/>
        <pt x="791" y="1626" on="0"/>
        <pt x="821" y="1626" on="0"/>
        <pt x="845" y="1607" on="0"/>
        <pt x="865" y="1566" on="0"/>
        <pt x="876" y="1530" on="1"/>
        <pt x="887" y="1494" on="0"/>
        <pt x="893" y="1450" on="0"/>
        <pt x="882" y="1424" on="0"/>
        <pt x="857" y="1410" on="0"/>
        <pt x="836" y="1405" on="1"/>
        <pt x="662" y="1362" on="1"/>
        <pt x="765" y="1222" on="1"/>
        <pt x="776" y="1207" on="0"/>
        <pt x="783" y="1183" on="0"/>
        <pt x="775" y="1161" on="0"/>
        <pt x="751" y="1138" on="0"/>
        <pt x="730" y="1123" on="1"/>
        <pt x="709" y="1108" on="0"/>
        <pt x="680" y="1090" on="0"/>
        <pt x="656" y="1085" on="0"/>
        <pt x="635" y="1097" on="0"/>
        <pt x="624" y="1112" on="1"/>
        <pt x="510" y="1274" on="1"/>
        <pt x="396" y="1112" on="1"/>
        <pt x="385" y="1097" on="0"/>
        <pt x="364" y="1085" on="0"/>
        <pt x="340" y="1090" on="0"/>
        <pt x="311" y="1108" on="0"/>
      </contour>
    </TTGlyph>
    <TTGlyph name="at" xMin="189" yMin="-442" xMax="1914" yMax="1676">
      <contour>
        <pt x="190" y="1078" on="1"/>
        <pt x="189" y="1180" on="0"/>
        <pt x="252" y="1349" on="0"/>
        <pt x="368" y="1482" on="0"/>
        <pt x="528" y="1580" on="0"/>
        <pt x="721" y="1644" on="0"/>
        <pt x="937" y="1676" on="0"/>
        <pt x="1051" y="1676" on="1"/>
        <pt x="1165" y="1676" on="0"/>
        <pt x="1382" y="1644" on="0"/>
        <pt x="1574" y="1580" on="0"/>
        <pt x="1735" y="1482" on="0"/>
        <pt x="1851" y="1349" on="0"/>
        <pt x="1914" y="1180" on="0"/>
        <pt x="1913" y="1078" on="1"/>
        <pt x="1905" y="282" on="1"/>
        <pt x="1903" y="200" on="0"/>
        <pt x="1861" y="92" on="0"/>
        <pt x="1785" y="27" on="0"/>
        <pt x="1675" y="0" on="0"/>
        <pt x="1606" y="0" on="1"/>
        <pt x="1348" y="0" on="1"/>
        <pt x="1319" y="0" on="0"/>
        <pt x="1269" y="7" on="0"/>
        <pt x="1229" y="28" on="0"/>
        <pt x="1201" y="66" on="0"/>
        <pt x="1195" y="96" on="1"/>
        <pt x="1144" y="46" on="0"/>
        <pt x="1019" y="-15" on="0"/>
        <pt x="944" y="-15" on="1"/>
        <pt x="888" y="-15" on="0"/>
        <pt x="784" y="12" on="0"/>
        <pt x="703" y="80" on="0"/>
        <pt x="652" y="198" on="0"/>
        <pt x="650" y="288" on="1"/>
        <pt x="637" y="857" on="1"/>
        <pt x="635" y="929" on="0"/>
        <pt x="674" y="1043" on="0"/>
        <pt x="751" y="1122" on="0"/>
        <pt x="862" y="1164" on="0"/>
        <pt x="931" y="1164" on="1"/>
        <pt x="972" y="1164" on="0"/>
        <pt x="1039" y="1149" on="0"/>
        <pt x="1092" y="1124" on="0"/>
        <pt x="1134" y="1093" on="0"/>
        <pt x="1149" y="1077" on="1"/>
        <pt x="1149" y="1080" on="1"/>
        <pt x="1148" y="1101" on="0"/>
        <pt x="1160" y="1130" on="0"/>
        <pt x="1194" y="1146" on="0"/>
        <pt x="1254" y="1153" on="0"/>
        <pt x="1302" y="1153" on="1"/>
        <pt x="1350" y="1153" on="0"/>
        <pt x="1411" y="1146" on="0"/>
        <pt x="1445" y="1130" on="0"/>
        <pt x="1457" y="1101" on="0"/>
        <pt x="1456" y="1080" on="1"/>
        <pt x="1430" y="144" on="1"/>
        <pt x="1595" y="144" on="1"/>
        <pt x="1644" y="144" on="0"/>
        <pt x="1699" y="206" on="0"/>
        <pt x="1697" y="282" on="1"/>
        <pt x="1689" y="1054" on="1"/>
        <pt x="1687" y="1174" on="0"/>
        <pt x="1588" y="1335" on="0"/>
        <pt x="1416" y="1434" on="0"/>
        <pt x="1184" y="1476" on="0"/>
        <pt x="1051" y="1476" on="1"/>
        <pt x="918" y="1476" on="0"/>
        <pt x="687" y="1434" on="0"/>
        <pt x="515" y="1335" on="0"/>
        <pt x="415" y="1174" on="0"/>
        <pt x="414" y="1054" on="1"/>
        <pt x="406" y="132" on="1"/>
        <pt x="405" y="52" on="0"/>
        <pt x="448" y="-73" on="0"/>
        <pt x="525" y="-167" on="0"/>
        <pt x="631" y="-232" on="0"/>
        <pt x="758" y="-273" on="0"/>
        <pt x="899" y="-292" on="0"/>
        <pt x="972" y="-292" on="1"/>
        <pt x="1242" y="-292" on="1"/>
        <pt x="1264" y="-292" on="0"/>
        <pt x="1289" y="-300" on="0"/>
        <pt x="1301" y="-316" on="0"/>
        <pt x="1304" y="-342" on="0"/>
        <pt x="1304" y="-361" on="1"/>
        <pt x="1304" y="-384" on="0"/>
        <pt x="1301" y="-414" on="0"/>
        <pt x="1289" y="-434" on="0"/>
        <pt x="1264" y="-442" on="0"/>
        <pt x="1242" y="-442" on="1"/>
        <pt x="972" y="-442" on="1"/>
        <pt x="810" y="-442" on="0"/>
        <pt x="529" y="-380" on="0"/>
        <pt x="321" y="-244" on="0"/>
        <pt x="200" y="-25" on="0"/>
        <pt x="198" y="132" on="1"/>
      </contour>
      <contour>
        <pt x="910" y="288" on="1"/>
        <pt x="909" y="248" on="0"/>
        <pt x="928" y="195" on="0"/>
        <pt x="964" y="164" on="0"/>
        <pt x="1013" y="151" on="0"/>
        <pt x="1042" y="151" on="1"/>
        <pt x="1088" y="151" on="0"/>
        <pt x="1154" y="187" on="0"/>
        <pt x="1175" y="210" on="1"/>
        <pt x="1153" y="946" on="1"/>
        <pt x="1133" y="966" on="0"/>
        <pt x="1076" y="997" on="0"/>
        <pt x="1047" y="997" on="1"/>
        <pt x="985" y="997" on="0"/>
        <pt x="928" y="926" on="0"/>
        <pt x="926" y="857" on="1"/>
      </contour>
    </TTGlyph>
    <TTGlyph name="atilde" xMin="108" yMin="-12" xMax="967" yMax="1743">
      <component glyphName="a" x="0" y="0" flags="0x204"/>
      <component glyphName="tilde" x="27" y="0" flags="0x4"/>
    </TTGlyph>
    <TTGlyph name="b" xMin="131" yMin="-12" xMax="991" yMax="1724">
      <contour>
        <pt x="131" y="1651" on="1"/>
        <pt x="131" y="1672" on="0"/>
        <pt x="140" y="1701" on="0"/>
        <pt x="174" y="1717" on="0"/>
        <pt x="239" y="1724" on="0"/>
        <pt x="293" y="1724" on="1"/>
        <pt x="347" y="1724" on="0"/>
        <pt x="412" y="1717" on="0"/>
        <pt x="446" y="1701" on="0"/>
        <pt x="455" y="1672" on="0"/>
        <pt x="455" y="1651" on="1"/>
        <pt x="444" y="1100" on="1"/>
        <pt x="461" y="1118" on="0"/>
        <pt x="508" y="1159" on="0"/>
        <pt x="568" y="1192" on="0"/>
        <pt x="641" y="1214" on="0"/>
        <pt x="684" y="1214" on="1"/>
        <pt x="754" y="1214" on="0"/>
        <pt x="868" y="1165" on="0"/>
        <pt x="949" y="1077" on="0"/>
        <pt x="991" y="955" on="0"/>
        <pt x="989" y="883" on="1"/>
        <pt x="971" y="320" on="1"/>
        <pt x="968" y="230" on="0"/>
        <pt x="926" y="103" on="0"/>
        <pt x="853" y="24" on="0"/>
        <pt x="749" y="-12" on="0"/>
        <pt x="685" y="-12" on="1"/>
        <pt x="638" y="-12" on="0"/>
        <pt x="558" y="7" on="0"/>
        <pt x="490" y="38" on="0"/>
        <pt x="435" y="76" on="0"/>
        <pt x="414" y="95" on="1"/>
        <pt x="414" y="57" on="1"/>
        <pt x="414" y="38" on="0"/>
        <pt x="405" y="16" on="0"/>
        <pt x="379" y="4" on="0"/>
        <pt x="332" y="0" on="0"/>
        <pt x="293" y="0" on="1"/>
        <pt x="251" y="0" on="0"/>
        <pt x="200" y="4" on="0"/>
        <pt x="173" y="16" on="0"/>
        <pt x="163" y="38" on="0"/>
        <pt x="163" y="57" on="1"/>
      </contour>
      <contour>
        <pt x="428" y="218" on="1"/>
        <pt x="451" y="198" on="0"/>
        <pt x="518" y="167" on="0"/>
        <pt x="560" y="167" on="1"/>
        <pt x="624" y="167" on="0"/>
        <pt x="697" y="246" on="0"/>
        <pt x="695" y="320" on="1"/>
        <pt x="680" y="883" on="1"/>
        <pt x="679" y="917" on="0"/>
        <pt x="660" y="965" on="0"/>
        <pt x="629" y="994" on="0"/>
        <pt x="589" y="1007" on="0"/>
        <pt x="567" y="1007" on="1"/>
        <pt x="532" y="1007" on="0"/>
        <pt x="465" y="975" on="0"/>
        <pt x="442" y="955" on="1"/>
      </contour>
    </TTGlyph>
    <TTGlyph name="backslash" xMin="79" yMin="-1" xMax="892" yMax="1757">
      <component glyphName="slash" x="964" y="0" scalex="-0.999938964844" scaley="1.0" flags="0x4"/>
    </TTGlyph>
    <TTGlyph name="bar" xMin="137" yMin="-420" xMax="371" yMax="1724">
      <contour>
        <pt x="137" y="1651" on="1"/>
        <pt x="137" y="1672" on="0"/>
        <pt x="145" y="1701" on="0"/>
        <pt x="170" y="1717" on="0"/>
        <pt x="216" y="1724" on="0"/>
        <pt x="254" y="1724" on="1"/>
        <pt x="292" y="1724" on="0"/>
        <pt x="338" y="1718" on="0"/>
        <pt x="363" y="1701" on="0"/>
        <pt x="371" y="1673" on="0"/>
        <pt x="371" y="1652" on="1"/>
        <pt x="340" y="-362" on="1"/>
        <pt x="340" y="-381" on="0"/>
        <pt x="332" y="-404" on="0"/>
        <pt x="313" y="-416" on="0"/>
        <pt x="280" y="-420" on="0"/>
        <pt x="255" y="-420" on="1"/>
        <pt x="229" y="-420" on="0"/>
        <pt x="197" y="-417" on="0"/>
        <pt x="178" y="-405" on="0"/>
        <pt x="170" y="-382" on="0"/>
        <pt x="170" y="-363" on="1"/>
      </contour>
    </TTGlyph>
    <TTGlyph name="braceleft" xMin="40" yMin="-294" xMax="755" yMax="1902">
      <contour>
        <pt x="259" y="497" on="1"/>
        <pt x="258" y="534" on="0"/>
        <pt x="238" y="584" on="0"/>
        <pt x="202" y="612" on="0"/>
        <pt x="151" y="624" on="0"/>
        <pt x="120" y="624" on="1"/>
        <pt x="102" y="624" on="1"/>
        <pt x="79" y="624" on="0"/>
        <pt x="54" y="634" on="0"/>
        <pt x="42" y="655" on="0"/>
        <pt x="40" y="689" on="0"/>
        <pt x="40" y="714" on="1"/>
        <pt x="40" y="739" on="0"/>
        <pt x="42" y="774" on="0"/>
        <pt x="54" y="795" on="0"/>
        <pt x="79" y="804" on="0"/>
        <pt x="102" y="804" on="1"/>
        <pt x="120" y="804" on="1"/>
        <pt x="182" y="804" on="0"/>
        <pt x="248" y="873" on="0"/>
        <pt x="246" y="954" on="1"/>
        <pt x="231" y="1540" on="1"/>
        <pt x="229" y="1618" on="0"/>
        <pt x="255" y="1751" on="0"/>
        <pt x="332" y="1847" on="0"/>
        <pt x="468" y="1902" on="0"/>
        <pt x="576" y="1902" on="1"/>
        <pt x="695" y="1902" on="1"/>
        <pt x="716" y="1902" on="0"/>
        <pt x="740" y="1896" on="0"/>
        <pt x="752" y="1878" on="0"/>
        <pt x="755" y="1845" on="0"/>
        <pt x="755" y="1818" on="1"/>
        <pt x="755" y="1788" on="0"/>
        <pt x="750" y="1751" on="0"/>
        <pt x="736" y="1731" on="0"/>
        <pt x="714" y="1725" on="0"/>
        <pt x="696" y="1725" on="1"/>
        <pt x="642" y="1725" on="1"/>
        <pt x="600" y="1725" on="0"/>
        <pt x="547" y="1708" on="0"/>
        <pt x="516" y="1665" on="0"/>
        <pt x="504" y="1594" on="0"/>
        <pt x="503" y="1540" on="1"/>
        <pt x="494" y="1039" on="1"/>
        <pt x="493" y="989" on="0"/>
        <pt x="484" y="900" on="0"/>
        <pt x="454" y="822" on="0"/>
        <pt x="394" y="753" on="0"/>
        <pt x="343" y="722" on="1"/>
        <pt x="343" y="714" on="1"/>
        <pt x="393" y="682" on="0"/>
        <pt x="450" y="625" on="0"/>
        <pt x="478" y="559" on="0"/>
        <pt x="484" y="479" on="0"/>
        <pt x="483" y="425" on="1"/>
        <pt x="474" y="46" on="1"/>
        <pt x="473" y="2" on="0"/>
        <pt x="486" y="-64" on="0"/>
        <pt x="522" y="-107" on="0"/>
        <pt x="582" y="-128" on="0"/>
        <pt x="627" y="-128" on="1"/>
        <pt x="669" y="-128" on="1"/>
        <pt x="688" y="-128" on="0"/>
        <pt x="710" y="-135" on="0"/>
        <pt x="721" y="-153" on="0"/>
        <pt x="724" y="-187" on="0"/>
        <pt x="724" y="-214" on="1"/>
        <pt x="724" y="-241" on="0"/>
        <pt x="719" y="-273" on="0"/>
        <pt x="705" y="-290" on="0"/>
        <pt x="682" y="-294" on="0"/>
        <pt x="663" y="-294" on="1"/>
        <pt x="610" y="-294" on="1"/>
        <pt x="514" y="-294" on="0"/>
        <pt x="386" y="-250" on="0"/>
        <pt x="308" y="-164" on="0"/>
        <pt x="273" y="-37" on="0"/>
        <pt x="271" y="46" on="1"/>
      </contour>
    </TTGlyph>
    <TTGlyph name="braceright" xMin="20" yMin="-294" xMax="735" yMax="1902">
      <contour>
        <pt x="148" y="-128" on="1"/>
        <pt x="193" y="-128" on="0"/>
        <pt x="253" y="-107" on="0"/>
        <pt x="289" y="-64" on="0"/>
        <pt x="302" y="2" on="0"/>
        <pt x="301" y="46" on="1"/>
        <pt x="292" y="425" on="1"/>
        <pt x="291" y="479" on="0"/>
        <pt x="297" y="559" on="0"/>
        <pt x="325" y="625" on="0"/>
        <pt x="382" y="682" on="0"/>
        <pt x="432" y="714" on="1"/>
        <pt x="432" y="722" on="1"/>
        <pt x="381" y="753" on="0"/>
        <pt x="321" y="822" on="0"/>
        <pt x="291" y="900" on="0"/>
        <pt x="282" y="989" on="0"/>
        <pt x="281" y="1039" on="1"/>
        <pt x="272" y="1540" on="1"/>
        <pt x="271" y="1594" on="0"/>
        <pt x="259" y="1665" on="0"/>
        <pt x="228" y="1708" on="0"/>
        <pt x="175" y="1725" on="0"/>
        <pt x="133" y="1725" on="1"/>
        <pt x="79" y="1725" on="1"/>
        <pt x="61" y="1725" on="0"/>
        <pt x="39" y="1731" on="0"/>
        <pt x="25" y="1751" on="0"/>
        <pt x="20" y="1788" on="0"/>
        <pt x="20" y="1818" on="1"/>
        <pt x="20" y="1845" on="0"/>
        <pt x="23" y="1878" on="0"/>
        <pt x="35" y="1896" on="0"/>
        <pt x="59" y="1902" on="0"/>
        <pt x="80" y="1902" on="1"/>
        <pt x="199" y="1902" on="1"/>
        <pt x="307" y="1902" on="0"/>
        <pt x="443" y="1847" on="0"/>
        <pt x="520" y="1751" on="0"/>
        <pt x="546" y="1618" on="0"/>
        <pt x="544" y="1540" on="1"/>
        <pt x="529" y="954" on="1"/>
        <pt x="527" y="873" on="0"/>
        <pt x="593" y="804" on="0"/>
        <pt x="655" y="804" on="1"/>
        <pt x="673" y="804" on="1"/>
        <pt x="696" y="804" on="0"/>
        <pt x="721" y="795" on="0"/>
        <pt x="733" y="774" on="0"/>
        <pt x="735" y="739" on="0"/>
        <pt x="735" y="714" on="1"/>
        <pt x="735" y="689" on="0"/>
        <pt x="732" y="655" on="0"/>
        <pt x="720" y="634" on="0"/>
        <pt x="695" y="624" on="0"/>
        <pt x="673" y="624" on="1"/>
        <pt x="655" y="624" on="1"/>
        <pt x="623" y="624" on="0"/>
        <pt x="573" y="612" on="0"/>
        <pt x="537" y="584" on="0"/>
        <pt x="517" y="534" on="0"/>
        <pt x="516" y="497" on="1"/>
        <pt x="504" y="46" on="1"/>
        <pt x="502" y="-37" on="0"/>
        <pt x="467" y="-164" on="0"/>
        <pt x="389" y="-250" on="0"/>
        <pt x="261" y="-294" on="0"/>
        <pt x="165" y="-294" on="1"/>
        <pt x="112" y="-294" on="1"/>
        <pt x="93" y="-294" on="0"/>
        <pt x="69" y="-290" on="0"/>
        <pt x="56" y="-273" on="0"/>
        <pt x="51" y="-241" on="0"/>
        <pt x="51" y="-214" on="1"/>
        <pt x="51" y="-187" on="0"/>
        <pt x="54" y="-153" on="0"/>
        <pt x="65" y="-135" on="0"/>
        <pt x="87" y="-128" on="0"/>
        <pt x="106" y="-128" on="1"/>
      </contour>
    </TTGlyph>
    <TTGlyph name="bracketleft" xMin="124" yMin="-294" xMax="656" yMax="1902">
      <contour>
        <pt x="126" y="1758" on="1"/>
        <pt x="124" y="1807" on="0"/>
        <pt x="135" y="1864" on="0"/>
        <pt x="170" y="1894" on="0"/>
        <pt x="234" y="1902" on="0"/>
        <pt x="285" y="1902" on="1"/>
        <pt x="596" y="1902" on="1"/>
        <pt x="617" y="1902" on="0"/>
        <pt x="641" y="1896" on="0"/>
        <pt x="653" y="1878" on="0"/>
        <pt x="656" y="1845" on="0"/>
        <pt x="656" y="1818" on="1"/>
        <pt x="656" y="1788" on="0"/>
        <pt x="651" y="1751" on="0"/>
        <pt x="637" y="1731" on="0"/>
        <pt x="615" y="1725" on="0"/>
        <pt x="597" y="1725" on="1"/>
        <pt x="408" y="1724" on="1"/>
        <pt x="371" y="-128" on="1"/>
        <pt x="570" y="-128" on="1"/>
        <pt x="589" y="-128" on="0"/>
        <pt x="611" y="-135" on="0"/>
        <pt x="622" y="-153" on="0"/>
        <pt x="625" y="-187" on="0"/>
        <pt x="625" y="-214" on="1"/>
        <pt x="625" y="-241" on="0"/>
        <pt x="620" y="-273" on="0"/>
        <pt x="606" y="-290" on="0"/>
        <pt x="583" y="-294" on="0"/>
        <pt x="564" y="-294" on="1"/>
        <pt x="274" y="-294" on="1"/>
        <pt x="246" y="-294" on="0"/>
        <pt x="210" y="-288" on="0"/>
        <pt x="189" y="-268" on="0"/>
        <pt x="181" y="-231" on="0"/>
        <pt x="180" y="-200" on="1"/>
      </contour>
    </TTGlyph>
    <TTGlyph name="bracketright" xMin="10" yMin="-294" xMax="541" yMax="1902">
      <contour>
        <pt x="295" y="-128" on="1"/>
        <pt x="258" y="1724" on="1"/>
        <pt x="69" y="1725" on="1"/>
        <pt x="51" y="1725" on="0"/>
        <pt x="29" y="1731" on="0"/>
        <pt x="15" y="1751" on="0"/>
        <pt x="10" y="1788" on="0"/>
        <pt x="10" y="1818" on="1"/>
        <pt x="10" y="1845" on="0"/>
        <pt x="13" y="1878" on="0"/>
        <pt x="25" y="1896" on="0"/>
        <pt x="49" y="1902" on="0"/>
        <pt x="70" y="1902" on="1"/>
        <pt x="381" y="1902" on="1"/>
        <pt x="432" y="1902" on="0"/>
        <pt x="496" y="1894" on="0"/>
        <pt x="531" y="1864" on="0"/>
        <pt x="541" y="1807" on="0"/>
        <pt x="540" y="1758" on="1"/>
        <pt x="486" y="-200" on="1"/>
        <pt x="485" y="-231" on="0"/>
        <pt x="476" y="-268" on="0"/>
        <pt x="455" y="-288" on="0"/>
        <pt x="420" y="-294" on="0"/>
        <pt x="392" y="-294" on="1"/>
        <pt x="102" y="-294" on="1"/>
        <pt x="83" y="-294" on="0"/>
        <pt x="59" y="-290" on="0"/>
        <pt x="46" y="-273" on="0"/>
        <pt x="41" y="-241" on="0"/>
        <pt x="41" y="-214" on="1"/>
        <pt x="41" y="-187" on="0"/>
        <pt x="44" y="-153" on="0"/>
        <pt x="55" y="-135" on="0"/>
        <pt x="77" y="-128" on="0"/>
        <pt x="96" y="-128" on="1"/>
      </contour>
    </TTGlyph>
    <TTGlyph name="brokenbar" xMin="137" yMin="-420" xMax="371" yMax="1724">
      <contour>
        <pt x="255" y="820" on="1"/>
        <pt x="223" y="820" on="0"/>
        <pt x="183" y="824" on="0"/>
        <pt x="159" y="836" on="0"/>
        <pt x="149" y="859" on="0"/>
        <pt x="149" y="878" on="1"/>
        <pt x="137" y="1651" on="1"/>
        <pt x="137" y="1672" on="0"/>
        <pt x="145" y="1701" on="0"/>
        <pt x="170" y="1717" on="0"/>
        <pt x="216" y="1724" on="0"/>
        <pt x="254" y="1724" on="1"/>
        <pt x="292" y="1724" on="0"/>
        <pt x="338" y="1718" on="0"/>
        <pt x="363" y="1701" on="0"/>
        <pt x="371" y="1673" on="0"/>
        <pt x="371" y="1652" on="1"/>
        <pt x="359" y="878" on="1"/>
        <pt x="359" y="859" on="0"/>
        <pt x="350" y="836" on="0"/>
        <pt x="327" y="824" on="0"/>
        <pt x="286" y="820" on="0"/>
      </contour>
      <contour>
        <pt x="154" y="324" on="1"/>
        <pt x="153" y="348" on="0"/>
        <pt x="161" y="377" on="0"/>
        <pt x="184" y="392" on="0"/>
        <pt x="223" y="397" on="0"/>
        <pt x="254" y="397" on="1"/>
        <pt x="285" y="397" on="0"/>
        <pt x="325" y="393" on="0"/>
        <pt x="348" y="378" on="0"/>
        <pt x="356" y="349" on="0"/>
        <pt x="355" y="325" on="1"/>
        <pt x="347" y="-362" on="1"/>
        <pt x="347" y="-381" on="0"/>
        <pt x="337" y="-404" on="0"/>
        <pt x="315" y="-416" on="0"/>
        <pt x="280" y="-420" on="0"/>
        <pt x="255" y="-420" on="1"/>
        <pt x="229" y="-420" on="0"/>
        <pt x="195" y="-416" on="0"/>
        <pt x="173" y="-404" on="0"/>
        <pt x="163" y="-382" on="0"/>
        <pt x="163" y="-363" on="1"/>
      </contour>
    </TTGlyph>
    <TTGlyph name="bullet" xMin="105" yMin="480" xMax="653" yMax="1045">
      <contour>
        <pt x="379" y="480" on="1"/>
        <pt x="319" y="480" on="0"/>
        <pt x="225" y="501" on="0"/>
        <pt x="158" y="550" on="0"/>
        <pt x="120" y="630" on="0"/>
        <pt x="117" y="689" on="1"/>
        <pt x="110" y="836" on="1"/>
        <pt x="105" y="946" on="0"/>
        <pt x="246" y="1045" on="0"/>
        <pt x="379" y="1045" on="1"/>
        <pt x="512" y="1045" on="0"/>
        <pt x="653" y="946" on="0"/>
        <pt x="648" y="836" on="1"/>
        <pt x="641" y="689" on="1"/>
        <pt x="638" y="630" on="0"/>
        <pt x="600" y="550" on="0"/>
        <pt x="533" y="501" on="0"/>
        <pt x="439" y="480" on="0"/>
      </contour>
    </TTGlyph>
    <TTGlyph name="c" xMin="108" yMin="-12" xMax="974" yMax="1214">
      <contour>
        <pt x="111" y="910" on="1"/>
        <pt x="108" y="990" on="0"/>
        <pt x="179" y="1105" on="0"/>
        <pt x="300" y="1179" on="0"/>
        <pt x="458" y="1214" on="0"/>
        <pt x="541" y="1214" on="1"/>
        <pt x="626" y="1214" on="0"/>
        <pt x="784" y="1179" on="0"/>
        <pt x="904" y="1105" on="0"/>
        <pt x="974" y="990" on="0"/>
        <pt x="971" y="910" on="1"/>
        <pt x="961" y="599" on="1"/>
        <pt x="960" y="580" on="0"/>
        <pt x="948" y="558" on="0"/>
        <pt x="916" y="546" on="0"/>
        <pt x="858" y="542" on="0"/>
        <pt x="812" y="542" on="1"/>
        <pt x="765" y="542" on="0"/>
        <pt x="707" y="546" on="0"/>
        <pt x="675" y="558" on="0"/>
        <pt x="664" y="580" on="0"/>
        <pt x="663" y="599" on="1"/>
        <pt x="654" y="927" on="1"/>
        <pt x="653" y="969" on="0"/>
        <pt x="636" y="1021" on="0"/>
        <pt x="606" y="1049" on="0"/>
        <pt x="566" y="1058" on="0"/>
        <pt x="541" y="1058" on="1"/>
        <pt x="516" y="1058" on="0"/>
        <pt x="476" y="1049" on="0"/>
        <pt x="446" y="1021" on="0"/>
        <pt x="429" y="969" on="0"/>
        <pt x="428" y="927" on="1"/>
        <pt x="408" y="268" on="1"/>
        <pt x="407" y="230" on="0"/>
        <pt x="422" y="178" on="0"/>
        <pt x="455" y="146" on="0"/>
        <pt x="506" y="132" on="0"/>
        <pt x="541" y="132" on="1"/>
        <pt x="611" y="132" on="0"/>
        <pt x="674" y="188" on="0"/>
        <pt x="674" y="259" on="1"/>
        <pt x="674" y="290" on="1"/>
        <pt x="674" y="309" on="0"/>
        <pt x="684" y="334" on="0"/>
        <pt x="713" y="349" on="0"/>
        <pt x="767" y="355" on="0"/>
        <pt x="812" y="355" on="1"/>
        <pt x="856" y="355" on="0"/>
        <pt x="910" y="349" on="0"/>
        <pt x="939" y="334" on="0"/>
        <pt x="949" y="310" on="0"/>
        <pt x="949" y="291" on="1"/>
        <pt x="949" y="267" on="1"/>
        <pt x="949" y="188" on="0"/>
        <pt x="879" y="81" on="0"/>
        <pt x="765" y="16" on="0"/>
        <pt x="619" y="-12" on="0"/>
        <pt x="542" y="-12" on="1"/>
        <pt x="464" y="-12" on="0"/>
        <pt x="320" y="17" on="0"/>
        <pt x="207" y="84" on="0"/>
        <pt x="137" y="194" on="0"/>
        <pt x="134" y="276" on="1"/>
      </contour>
    </TTGlyph>
    <TTGlyph name="caron" xMin="114" yMin="1382" xMax="868" yMax="1784">
      <contour>
        <pt x="481" y="1382" on="1"/>
        <pt x="446" y="1382" on="0"/>
        <pt x="403" y="1387" on="0"/>
        <pt x="374" y="1401" on="0"/>
        <pt x="352" y="1423" on="0"/>
        <pt x="338" y="1441" on="1"/>
        <pt x="156" y="1671" on="1"/>
        <pt x="142" y="1688" on="0"/>
        <pt x="114" y="1731" on="0"/>
        <pt x="114" y="1747" on="1"/>
        <pt x="114" y="1757" on="0"/>
        <pt x="123" y="1771" on="0"/>
        <pt x="149" y="1780" on="0"/>
        <pt x="197" y="1784" on="0"/>
        <pt x="235" y="1784" on="1"/>
        <pt x="277" y="1784" on="0"/>
        <pt x="327" y="1780" on="0"/>
        <pt x="359" y="1766" on="0"/>
        <pt x="379" y="1742" on="0"/>
        <pt x="391" y="1722" on="1"/>
        <pt x="457" y="1601" on="1"/>
        <pt x="477" y="1563" on="0"/>
        <pt x="491" y="1563" on="1"/>
        <pt x="504" y="1563" on="0"/>
        <pt x="523" y="1597" on="1"/>
        <pt x="598" y="1722" on="1"/>
        <pt x="610" y="1741" on="0"/>
        <pt x="628" y="1766" on="0"/>
        <pt x="657" y="1779" on="0"/>
        <pt x="705" y="1784" on="0"/>
        <pt x="747" y="1784" on="1"/>
        <pt x="785" y="1784" on="0"/>
        <pt x="833" y="1780" on="0"/>
        <pt x="859" y="1771" on="0"/>
        <pt x="868" y="1757" on="0"/>
        <pt x="868" y="1747" on="1"/>
        <pt x="868" y="1731" on="0"/>
        <pt x="840" y="1688" on="0"/>
        <pt x="826" y="1671" on="1"/>
        <pt x="642" y="1441" on="1"/>
        <pt x="628" y="1423" on="0"/>
        <pt x="606" y="1401" on="0"/>
        <pt x="577" y="1387" on="0"/>
        <pt x="533" y="1382" on="0"/>
        <pt x="497" y="1382" on="1"/>
      </contour>
    </TTGlyph>
    <TTGlyph name="caron.cap" xMin="114" yMin="1784" xMax="868" yMax="2118">
      <contour>
        <pt x="481" y="1784" on="1"/>
        <pt x="446" y="1784" on="0"/>
        <pt x="401" y="1786" on="0"/>
        <pt x="370" y="1795" on="0"/>
        <pt x="345" y="1813" on="0"/>
        <pt x="330" y="1830" on="1"/>
        <pt x="165" y="2005" on="1"/>
        <pt x="157" y="2013" on="0"/>
        <pt x="140" y="2033" on="0"/>
        <pt x="124" y="2053" on="0"/>
        <pt x="114" y="2073" on="0"/>
        <pt x="114" y="2081" on="1"/>
        <pt x="114" y="2091" on="0"/>
        <pt x="123" y="2105" on="0"/>
        <pt x="149" y="2114" on="0"/>
        <pt x="197" y="2118" on="0"/>
        <pt x="235" y="2118" on="1"/>
        <pt x="277" y="2118" on="0"/>
        <pt x="327" y="2115" on="0"/>
        <pt x="360" y="2104" on="0"/>
        <pt x="382" y="2083" on="0"/>
        <pt x="395" y="2064" on="1"/>
        <pt x="450" y="1985" on="1"/>
        <pt x="464" y="1965" on="0"/>
        <pt x="481" y="1947" on="0"/>
        <pt x="491" y="1947" on="1"/>
        <pt x="500" y="1947" on="0"/>
        <pt x="518" y="1965" on="0"/>
        <pt x="530" y="1981" on="1"/>
        <pt x="593" y="2064" on="1"/>
        <pt x="606" y="2082" on="0"/>
        <pt x="629" y="2103" on="0"/>
        <pt x="661" y="2115" on="0"/>
        <pt x="708" y="2118" on="0"/>
        <pt x="747" y="2118" on="1"/>
        <pt x="785" y="2118" on="0"/>
        <pt x="833" y="2114" on="0"/>
        <pt x="859" y="2105" on="0"/>
        <pt x="868" y="2091" on="0"/>
        <pt x="868" y="2081" on="1"/>
        <pt x="868" y="2073" on="0"/>
        <pt x="858" y="2054" on="0"/>
        <pt x="843" y="2033" on="0"/>
        <pt x="825" y="2013" on="0"/>
        <pt x="817" y="2005" on="1"/>
        <pt x="650" y="1830" on="1"/>
        <pt x="634" y="1813" on="0"/>
        <pt x="609" y="1795" on="0"/>
        <pt x="578" y="1786" on="0"/>
        <pt x="533" y="1784" on="0"/>
        <pt x="497" y="1784" on="1"/>
      </contour>
    </TTGlyph>
    <TTGlyph name="ccedilla" xMin="108" yMin="-340" xMax="974" yMax="1214">
      <contour>
        <pt x="111" y="910" on="1"/>
        <pt x="108" y="990" on="0"/>
        <pt x="179" y="1105" on="0"/>
        <pt x="300" y="1179" on="0"/>
        <pt x="458" y="1214" on="0"/>
        <pt x="541" y="1214" on="1"/>
        <pt x="626" y="1214" on="0"/>
        <pt x="784" y="1179" on="0"/>
        <pt x="904" y="1105" on="0"/>
        <pt x="974" y="990" on="0"/>
        <pt x="971" y="910" on="1"/>
        <pt x="961" y="599" on="1"/>
        <pt x="960" y="580" on="0"/>
        <pt x="948" y="558" on="0"/>
        <pt x="916" y="546" on="0"/>
        <pt x="858" y="542" on="0"/>
        <pt x="812" y="542" on="1"/>
        <pt x="765" y="542" on="0"/>
        <pt x="707" y="546" on="0"/>
        <pt x="675" y="558" on="0"/>
        <pt x="664" y="580" on="0"/>
        <pt x="663" y="599" on="1"/>
        <pt x="654" y="927" on="1"/>
        <pt x="653" y="969" on="0"/>
        <pt x="636" y="1021" on="0"/>
        <pt x="606" y="1049" on="0"/>
        <pt x="566" y="1058" on="0"/>
        <pt x="541" y="1058" on="1"/>
        <pt x="516" y="1058" on="0"/>
        <pt x="476" y="1049" on="0"/>
        <pt x="446" y="1021" on="0"/>
        <pt x="429" y="969" on="0"/>
        <pt x="428" y="927" on="1"/>
        <pt x="408" y="268" on="1"/>
        <pt x="407" y="230" on="0"/>
        <pt x="422" y="178" on="0"/>
        <pt x="455" y="146" on="0"/>
        <pt x="506" y="132" on="0"/>
        <pt x="541" y="132" on="1"/>
        <pt x="611" y="132" on="0"/>
        <pt x="674" y="188" on="0"/>
        <pt x="674" y="259" on="1"/>
        <pt x="674" y="290" on="1"/>
        <pt x="674" y="309" on="0"/>
        <pt x="684" y="334" on="0"/>
        <pt x="713" y="349" on="0"/>
        <pt x="767" y="355" on="0"/>
        <pt x="812" y="355" on="1"/>
        <pt x="856" y="355" on="0"/>
        <pt x="910" y="349" on="0"/>
        <pt x="939" y="334" on="0"/>
        <pt x="949" y="310" on="0"/>
        <pt x="949" y="291" on="1"/>
        <pt x="949" y="267" on="1"/>
        <pt x="949" y="203" on="0"/>
        <pt x="903" y="109" on="0"/>
        <pt x="823" y="44" on="0"/>
        <pt x="718" y="5" on="0"/>
        <pt x="658" y="-4" on="1"/>
        <pt x="532" y="-292" on="1"/>
        <pt x="525" y="-309" on="0"/>
        <pt x="513" y="-328" on="0"/>
        <pt x="497" y="-338" on="0"/>
        <pt x="477" y="-340" on="0"/>
        <pt x="462" y="-340" on="1"/>
        <pt x="364" y="-340" on="1"/>
        <pt x="341" y="-340" on="0"/>
        <pt x="323" y="-325" on="0"/>
        <pt x="323" y="-309" on="1"/>
        <pt x="323" y="-300" on="0"/>
        <pt x="336" y="-269" on="0"/>
        <pt x="343" y="-249" on="1"/>
        <pt x="430" y="-4" on="1"/>
        <pt x="370" y="5" on="0"/>
        <pt x="264" y="44" on="0"/>
        <pt x="184" y="112" on="0"/>
        <pt x="136" y="209" on="0"/>
        <pt x="134" y="276" on="1"/>
      </contour>
    </TTGlyph>
    <TTGlyph name="cedilla" xMin="114" yMin="-340" xMax="489" yMax="86">
      <contour>
        <pt x="489" y="86" on="1"/>
        <pt x="323" y="-292" on="1"/>
        <pt x="316" y="-309" on="0"/>
        <pt x="304" y="-328" on="0"/>
        <pt x="288" y="-338" on="0"/>
        <pt x="268" y="-340" on="0"/>
        <pt x="253" y="-340" on="1"/>
        <pt x="155" y="-340" on="1"/>
        <pt x="132" y="-340" on="0"/>
        <pt x="114" y="-325" on="0"/>
        <pt x="114" y="-309" on="1"/>
        <pt x="114" y="-300" on="0"/>
        <pt x="127" y="-269" on="0"/>
        <pt x="134" y="-249" on="1"/>
        <pt x="253" y="86" on="1"/>
      </contour>
    </TTGlyph>
    <TTGlyph name="cent" xMin="108" yMin="-244" xMax="973" yMax="1530">
      <contour>
        <pt x="111" y="910" on="1"/>
        <pt x="108" y="977" on="0"/>
        <pt x="158" y="1080" on="0"/>
        <pt x="247" y="1153" on="0"/>
        <pt x="367" y="1198" on="0"/>
        <pt x="435" y="1207" on="1"/>
        <pt x="429" y="1457" on="1"/>
        <pt x="429" y="1478" on="0"/>
        <pt x="437" y="1507" on="0"/>
        <pt x="462" y="1523" on="0"/>
        <pt x="508" y="1530" on="0"/>
        <pt x="546" y="1530" on="1"/>
        <pt x="584" y="1530" on="0"/>
        <pt x="630" y="1524" on="0"/>
        <pt x="655" y="1507" on="0"/>
        <pt x="663" y="1479" on="0"/>
        <pt x="663" y="1458" on="1"/>
        <pt x="657" y="1205" on="1"/>
        <pt x="724" y="1195" on="0"/>
        <pt x="840" y="1150" on="0"/>
        <pt x="926" y="1077" on="0"/>
        <pt x="973" y="976" on="0"/>
        <pt x="971" y="910" on="1"/>
        <pt x="961" y="599" on="1"/>
        <pt x="960" y="580" on="0"/>
        <pt x="948" y="558" on="0"/>
        <pt x="916" y="546" on="0"/>
        <pt x="858" y="542" on="0"/>
        <pt x="812" y="542" on="1"/>
        <pt x="765" y="542" on="0"/>
        <pt x="707" y="546" on="0"/>
        <pt x="675" y="558" on="0"/>
        <pt x="664" y="580" on="0"/>
        <pt x="663" y="599" on="1"/>
        <pt x="654" y="927" on="1"/>
        <pt x="653" y="969" on="0"/>
        <pt x="636" y="1021" on="0"/>
        <pt x="606" y="1049" on="0"/>
        <pt x="566" y="1058" on="0"/>
        <pt x="541" y="1058" on="1"/>
        <pt x="516" y="1058" on="0"/>
        <pt x="476" y="1049" on="0"/>
        <pt x="446" y="1021" on="0"/>
        <pt x="429" y="969" on="0"/>
        <pt x="428" y="927" on="1"/>
        <pt x="408" y="268" on="1"/>
        <pt x="407" y="230" on="0"/>
        <pt x="422" y="178" on="0"/>
        <pt x="455" y="146" on="0"/>
        <pt x="506" y="132" on="0"/>
        <pt x="541" y="132" on="1"/>
        <pt x="611" y="132" on="0"/>
        <pt x="674" y="188" on="0"/>
        <pt x="674" y="259" on="1"/>
        <pt x="674" y="290" on="1"/>
        <pt x="674" y="309" on="0"/>
        <pt x="684" y="334" on="0"/>
        <pt x="713" y="349" on="0"/>
        <pt x="767" y="355" on="0"/>
        <pt x="812" y="355" on="1"/>
        <pt x="856" y="355" on="0"/>
        <pt x="910" y="349" on="0"/>
        <pt x="939" y="334" on="0"/>
        <pt x="949" y="310" on="0"/>
        <pt x="949" y="291" on="1"/>
        <pt x="949" y="267" on="1"/>
        <pt x="949" y="200" on="0"/>
        <pt x="899" y="104" on="0"/>
        <pt x="813" y="38" on="0"/>
        <pt x="699" y="1" on="0"/>
        <pt x="636" y="-6" on="1"/>
        <pt x="632" y="-186" on="1"/>
        <pt x="632" y="-205" on="0"/>
        <pt x="624" y="-228" on="0"/>
        <pt x="605" y="-240" on="0"/>
        <pt x="572" y="-244" on="0"/>
        <pt x="547" y="-244" on="1"/>
        <pt x="521" y="-244" on="0"/>
        <pt x="489" y="-241" on="0"/>
        <pt x="470" y="-229" on="0"/>
        <pt x="462" y="-206" on="0"/>
        <pt x="462" y="-187" on="1"/>
        <pt x="457" y="-7" on="1"/>
        <pt x="392" y="-1" on="0"/>
        <pt x="277" y="37" on="0"/>
        <pt x="190" y="104" on="0"/>
        <pt x="137" y="205" on="0"/>
        <pt x="134" y="276" on="1"/>
      </contour>
    </TTGlyph>
    <TTGlyph name="circumflex.cap" xMin="114" yMin="1770" xMax="843" yMax="2118">
      <contour>
        <pt x="207" y="1770" on="1"/>
        <pt x="152" y="1770" on="0"/>
        <pt x="114" y="1786" on="0"/>
        <pt x="114" y="1806" on="1"/>
        <pt x="114" y="1822" on="0"/>
        <pt x="140" y="1859" on="0"/>
        <pt x="164" y="1894" on="1"/>
        <pt x="280" y="2056" on="1"/>
        <pt x="295" y="2077" on="0"/>
        <pt x="322" y="2102" on="0"/>
        <pt x="351" y="2114" on="0"/>
        <pt x="384" y="2118" on="0"/>
        <pt x="405" y="2118" on="1"/>
        <pt x="560" y="2118" on="1"/>
        <pt x="577" y="2118" on="0"/>
        <pt x="605" y="2114" on="0"/>
        <pt x="632" y="2102" on="0"/>
        <pt x="659" y="2077" on="0"/>
        <pt x="674" y="2056" on="1"/>
        <pt x="793" y="1894" on="1"/>
        <pt x="818" y="1859" on="0"/>
        <pt x="843" y="1822" on="0"/>
        <pt x="843" y="1806" on="1"/>
        <pt x="843" y="1796" on="0"/>
        <pt x="837" y="1783" on="0"/>
        <pt x="817" y="1774" on="0"/>
        <pt x="781" y="1770" on="0"/>
        <pt x="750" y="1770" on="1"/>
        <pt x="724" y="1770" on="0"/>
        <pt x="689" y="1775" on="0"/>
        <pt x="661" y="1789" on="0"/>
        <pt x="632" y="1813" on="0"/>
        <pt x="612" y="1832" on="1"/>
        <pt x="520" y="1918" on="1"/>
        <pt x="507" y="1931" on="0"/>
        <pt x="488" y="1944" on="0"/>
        <pt x="470" y="1944" on="0"/>
        <pt x="450" y="1930" on="0"/>
        <pt x="436" y="1917" on="1"/>
        <pt x="347" y="1832" on="1"/>
        <pt x="326" y="1812" on="0"/>
        <pt x="299" y="1788" on="0"/>
        <pt x="271" y="1774" on="0"/>
        <pt x="235" y="1770" on="0"/>
      </contour>
    </TTGlyph>
    <TTGlyph name="colon" xMin="119" yMin="0" xMax="476" yMax="1201">
      <contour>
        <pt x="298" y="843" on="1"/>
        <pt x="246" y="843" on="0"/>
        <pt x="181" y="847" on="0"/>
        <pt x="145" y="859" on="0"/>
        <pt x="131" y="881" on="0"/>
        <pt x="130" y="900" on="1"/>
        <pt x="121" y="1128" on="1"/>
        <pt x="119" y="1149" on="0"/>
        <pt x="131" y="1178" on="0"/>
        <pt x="169" y="1194" on="0"/>
        <pt x="240" y="1201" on="0"/>
        <pt x="298" y="1201" on="1"/>
        <pt x="356" y="1201" on="0"/>
        <pt x="426" y="1194" on="0"/>
        <pt x="464" y="1178" on="0"/>
        <pt x="476" y="1149" on="0"/>
        <pt x="475" y="1128" on="1"/>
        <pt x="466" y="900" on="1"/>
        <pt x="465" y="881" on="0"/>
        <pt x="451" y="859" on="0"/>
        <pt x="415" y="847" on="0"/>
        <pt x="350" y="843" on="0"/>
      </contour>
      <contour>
        <pt x="138" y="252" on="1"/>
        <pt x="136" y="273" on="0"/>
        <pt x="146" y="302" on="0"/>
        <pt x="180" y="318" on="0"/>
        <pt x="246" y="325" on="0"/>
        <pt x="300" y="325" on="1"/>
        <pt x="354" y="325" on="0"/>
        <pt x="419" y="318" on="0"/>
        <pt x="454" y="302" on="0"/>
        <pt x="463" y="273" on="0"/>
        <pt x="462" y="252" on="1"/>
        <pt x="451" y="57" on="1"/>
        <pt x="450" y="38" on="0"/>
        <pt x="439" y="16" on="0"/>
        <pt x="407" y="4" on="0"/>
        <pt x="349" y="0" on="0"/>
        <pt x="300" y="0" on="1"/>
        <pt x="251" y="0" on="0"/>
        <pt x="193" y="4" on="0"/>
        <pt x="162" y="16" on="0"/>
        <pt x="151" y="38" on="0"/>
        <pt x="150" y="57" on="1"/>
      </contour>
    </TTGlyph>
    <TTGlyph name="comma" xMin="134" yMin="-313" xMax="491" yMax="325">
      <contour>
        <pt x="136" y="252" on="1"/>
        <pt x="134" y="273" on="0"/>
        <pt x="145" y="302" on="0"/>
        <pt x="184" y="318" on="0"/>
        <pt x="257" y="325" on="0"/>
        <pt x="318" y="325" on="1"/>
        <pt x="376" y="325" on="0"/>
        <pt x="444" y="318" on="0"/>
        <pt x="480" y="302" on="0"/>
        <pt x="491" y="273" on="0"/>
        <pt x="490" y="252" on="1"/>
        <pt x="482" y="89" on="1"/>
        <pt x="481" y="73" on="0"/>
        <pt x="479" y="50" on="0"/>
        <pt x="475" y="31" on="0"/>
        <pt x="468" y="12" on="0"/>
        <pt x="464" y="0" on="1"/>
        <pt x="377" y="-237" on="1"/>
        <pt x="367" y="-263" on="0"/>
        <pt x="351" y="-293" on="0"/>
        <pt x="330" y="-308" on="0"/>
        <pt x="300" y="-313" on="0"/>
        <pt x="276" y="-313" on="1"/>
        <pt x="237" y="-313" on="0"/>
        <pt x="196" y="-301" on="0"/>
        <pt x="196" y="-278" on="1"/>
        <pt x="196" y="-261" on="0"/>
        <pt x="208" y="-208" on="0"/>
        <pt x="219" y="-166" on="1"/>
        <pt x="261" y="8" on="1"/>
        <pt x="203" y="8" on="1"/>
        <pt x="167" y="8" on="0"/>
        <pt x="146" y="40" on="0"/>
        <pt x="144" y="65" on="1"/>
      </contour>
    </TTGlyph>
    <TTGlyph name="commaaccent" xMin="114" yMin="-442" xMax="472" yMax="-73">
      <contour>
        <pt x="323" y="-73" on="1"/>
        <pt x="372" y="-73" on="0"/>
        <pt x="431" y="-78" on="0"/>
        <pt x="462" y="-93" on="0"/>
        <pt x="472" y="-118" on="0"/>
        <pt x="472" y="-138" on="1"/>
        <pt x="472" y="-186" on="1"/>
        <pt x="472" y="-208" on="0"/>
        <pt x="463" y="-254" on="0"/>
        <pt x="442" y="-283" on="1"/>
        <pt x="362" y="-394" on="1"/>
        <pt x="341" y="-423" on="0"/>
        <pt x="308" y="-442" on="0"/>
        <pt x="279" y="-442" on="1"/>
        <pt x="197" y="-442" on="1"/>
        <pt x="178" y="-442" on="0"/>
        <pt x="152" y="-429" on="0"/>
        <pt x="152" y="-417" on="1"/>
        <pt x="152" y="-402" on="0"/>
        <pt x="169" y="-371" on="0"/>
        <pt x="178" y="-352" on="1"/>
        <pt x="219" y="-270" on="1"/>
        <pt x="167" y="-270" on="1"/>
        <pt x="137" y="-270" on="0"/>
        <pt x="114" y="-236" on="0"/>
        <pt x="114" y="-215" on="1"/>
        <pt x="114" y="-138" on="1"/>
        <pt x="114" y="-119" on="0"/>
        <pt x="132" y="-94" on="0"/>
        <pt x="179" y="-79" on="0"/>
        <pt x="260" y="-73" on="0"/>
      </contour>
    </TTGlyph>
    <TTGlyph name="copyright" xMin="150" yMin="71" xMax="1715" yMax="1897">
      <contour>
        <pt x="151" y="1299" on="1"/>
        <pt x="150" y="1401" on="0"/>
        <pt x="207" y="1570" on="0"/>
        <pt x="311" y="1703" on="0"/>
        <pt x="457" y="1801" on="0"/>
        <pt x="631" y="1865" on="0"/>
        <pt x="828" y="1897" on="0"/>
        <pt x="932" y="1897" on="1"/>
        <pt x="1036" y="1897" on="0"/>
        <pt x="1233" y="1865" on="0"/>
        <pt x="1408" y="1801" on="0"/>
        <pt x="1554" y="1703" on="0"/>
        <pt x="1658" y="1570" on="0"/>
        <pt x="1715" y="1401" on="0"/>
        <pt x="1714" y="1299" on="1"/>
        <pt x="1706" y="643" on="1"/>
        <pt x="1704" y="486" on="0"/>
        <pt x="1583" y="268" on="0"/>
        <pt x="1375" y="132" on="0"/>
        <pt x="1094" y="71" on="0"/>
        <pt x="932" y="71" on="1"/>
        <pt x="770" y="71" on="0"/>
        <pt x="490" y="132" on="0"/>
        <pt x="282" y="268" on="0"/>
        <pt x="161" y="486" on="0"/>
        <pt x="159" y="643" on="1"/>
      </contour>
      <contour>
        <pt x="367" y="643" on="1"/>
        <pt x="366" y="563" on="0"/>
        <pt x="408" y="439" on="0"/>
        <pt x="485" y="345" on="0"/>
        <pt x="592" y="280" on="0"/>
        <pt x="718" y="239" on="0"/>
        <pt x="859" y="221" on="0"/>
        <pt x="932" y="221" on="1"/>
        <pt x="1005" y="221" on="0"/>
        <pt x="1147" y="239" on="0"/>
        <pt x="1273" y="280" on="0"/>
        <pt x="1380" y="345" on="0"/>
        <pt x="1457" y="439" on="0"/>
        <pt x="1499" y="563" on="0"/>
        <pt x="1498" y="643" on="1"/>
        <pt x="1490" y="1275" on="1"/>
        <pt x="1488" y="1395" on="0"/>
        <pt x="1400" y="1556" on="0"/>
        <pt x="1250" y="1655" on="0"/>
        <pt x="1047" y="1697" on="0"/>
        <pt x="932" y="1697" on="1"/>
        <pt x="817" y="1697" on="0"/>
        <pt x="615" y="1655" on="0"/>
        <pt x="465" y="1556" on="0"/>
        <pt x="376" y="1395" on="0"/>
        <pt x="375" y="1275" on="1"/>
      </contour>
      <contour>
        <pt x="586" y="1235" on="1"/>
        <pt x="585" y="1280" on="0"/>
        <pt x="624" y="1356" on="0"/>
        <pt x="708" y="1412" on="0"/>
        <pt x="840" y="1444" on="0"/>
        <pt x="933" y="1444" on="1"/>
        <pt x="1026" y="1444" on="0"/>
        <pt x="1158" y="1412" on="0"/>
        <pt x="1242" y="1356" on="0"/>
        <pt x="1281" y="1280" on="0"/>
        <pt x="1280" y="1235" on="1"/>
        <pt x="1273" y="968" on="1"/>
        <pt x="1273" y="950" on="0"/>
        <pt x="1259" y="928" on="0"/>
        <pt x="1229" y="916" on="0"/>
        <pt x="1180" y="913" on="0"/>
        <pt x="1145" y="913" on="1"/>
        <pt x="1108" y="913" on="0"/>
        <pt x="1060" y="916" on="0"/>
        <pt x="1031" y="928" on="0"/>
        <pt x="1019" y="950" on="0"/>
        <pt x="1019" y="968" on="1"/>
        <pt x="1010" y="1222" on="1"/>
        <pt x="1009" y="1248" on="0"/>
        <pt x="999" y="1279" on="0"/>
        <pt x="980" y="1296" on="0"/>
        <pt x="952" y="1301" on="0"/>
        <pt x="933" y="1301" on="1"/>
        <pt x="914" y="1301" on="0"/>
        <pt x="885" y="1296" on="0"/>
        <pt x="866" y="1279" on="0"/>
        <pt x="856" y="1248" on="0"/>
        <pt x="856" y="1222" on="1"/>
        <pt x="837" y="652" on="1"/>
        <pt x="836" y="601" on="0"/>
        <pt x="880" y="563" on="0"/>
        <pt x="933" y="563" on="1"/>
        <pt x="986" y="563" on="0"/>
        <pt x="1030" y="601" on="0"/>
        <pt x="1028" y="652" on="1"/>
        <pt x="1026" y="688" on="1"/>
        <pt x="1025" y="707" on="0"/>
        <pt x="1037" y="729" on="0"/>
        <pt x="1066" y="741" on="0"/>
        <pt x="1115" y="745" on="0"/>
        <pt x="1151" y="745" on="1"/>
        <pt x="1188" y="745" on="0"/>
        <pt x="1233" y="741" on="0"/>
        <pt x="1258" y="729" on="0"/>
        <pt x="1265" y="707" on="0"/>
        <pt x="1265" y="688" on="1"/>
        <pt x="1263" y="631" on="1"/>
        <pt x="1262" y="592" on="0"/>
        <pt x="1224" y="524" on="0"/>
        <pt x="1145" y="472" on="0"/>
        <pt x="1020" y="442" on="0"/>
        <pt x="933" y="442" on="1"/>
        <pt x="846" y="442" on="0"/>
        <pt x="721" y="472" on="0"/>
        <pt x="642" y="524" on="0"/>
        <pt x="604" y="594" on="0"/>
        <pt x="603" y="633" on="1"/>
      </contour>
    </TTGlyph>
    <TTGlyph name="currency" xMin="128" yMin="159" xMax="1230" yMax="1210">
      <contour>
        <pt x="162" y="199" on="1"/>
        <pt x="162" y="215" on="0"/>
        <pt x="188" y="251" on="0"/>
        <pt x="209" y="280" on="1"/>
        <pt x="340" y="455" on="1"/>
        <pt x="315" y="495" on="0"/>
        <pt x="314" y="544" on="1"/>
        <pt x="308" y="805" on="1"/>
        <pt x="307" y="832" on="0"/>
        <pt x="323" y="880" on="0"/>
        <pt x="337" y="900" on="1"/>
        <pt x="173" y="1089" on="1"/>
        <pt x="147" y="1118" on="0"/>
        <pt x="128" y="1151" on="0"/>
        <pt x="128" y="1167" on="1"/>
        <pt x="128" y="1179" on="0"/>
        <pt x="141" y="1196" on="0"/>
        <pt x="174" y="1206" on="0"/>
        <pt x="229" y="1210" on="0"/>
        <pt x="271" y="1210" on="1"/>
        <pt x="310" y="1210" on="0"/>
        <pt x="358" y="1207" on="0"/>
        <pt x="391" y="1194" on="0"/>
        <pt x="414" y="1169" on="0"/>
        <pt x="429" y="1148" on="1"/>
        <pt x="525" y="1008" on="1"/>
        <pt x="600" y="1026" on="0"/>
        <pt x="682" y="1026" on="1"/>
        <pt x="760" y="1026" on="0"/>
        <pt x="833" y="1009" on="1"/>
        <pt x="929" y="1148" on="1"/>
        <pt x="944" y="1169" on="0"/>
        <pt x="967" y="1194" on="0"/>
        <pt x="1000" y="1207" on="0"/>
        <pt x="1048" y="1210" on="0"/>
        <pt x="1087" y="1210" on="1"/>
        <pt x="1129" y="1210" on="0"/>
        <pt x="1184" y="1206" on="0"/>
        <pt x="1217" y="1196" on="0"/>
        <pt x="1230" y="1179" on="0"/>
        <pt x="1230" y="1167" on="1"/>
        <pt x="1230" y="1151" on="0"/>
        <pt x="1211" y="1118" on="0"/>
        <pt x="1185" y="1089" on="1"/>
        <pt x="1021" y="901" on="1"/>
        <pt x="1035" y="881" on="0"/>
        <pt x="1051" y="834" on="0"/>
        <pt x="1050" y="807" on="1"/>
        <pt x="1044" y="546" on="1"/>
        <pt x="1043" y="520" on="0"/>
        <pt x="1029" y="477" on="0"/>
        <pt x="1018" y="457" on="1"/>
        <pt x="1149" y="281" on="1"/>
        <pt x="1170" y="252" on="0"/>
        <pt x="1196" y="216" on="0"/>
        <pt x="1196" y="200" on="1"/>
        <pt x="1196" y="188" on="0"/>
        <pt x="1188" y="172" on="0"/>
        <pt x="1167" y="163" on="0"/>
        <pt x="1130" y="160" on="0"/>
        <pt x="1100" y="160" on="1"/>
        <pt x="1080" y="160" on="0"/>
        <pt x="1047" y="161" on="0"/>
        <pt x="1017" y="169" on="0"/>
        <pt x="989" y="188" on="0"/>
        <pt x="974" y="206" on="1"/>
        <pt x="855" y="349" on="1"/>
        <pt x="814" y="337" on="0"/>
        <pt x="725" y="326" on="0"/>
        <pt x="679" y="326" on="1"/>
        <pt x="633" y="326" on="0"/>
        <pt x="544" y="337" on="0"/>
        <pt x="503" y="348" on="1"/>
        <pt x="384" y="205" on="1"/>
        <pt x="369" y="187" on="0"/>
        <pt x="340" y="168" on="0"/>
        <pt x="311" y="160" on="0"/>
        <pt x="278" y="159" on="0"/>
        <pt x="258" y="159" on="1"/>
        <pt x="228" y="159" on="0"/>
        <pt x="191" y="162" on="0"/>
        <pt x="170" y="171" on="0"/>
        <pt x="162" y="187" on="0"/>
      </contour>
      <contour>
        <pt x="508" y="610" on="1"/>
        <pt x="507" y="575" on="0"/>
        <pt x="535" y="527" on="0"/>
        <pt x="583" y="498" on="0"/>
        <pt x="645" y="485" on="0"/>
        <pt x="679" y="485" on="1"/>
        <pt x="713" y="486" on="0"/>
        <pt x="775" y="499" on="0"/>
        <pt x="823" y="529" on="0"/>
        <pt x="851" y="577" on="0"/>
        <pt x="850" y="612" on="1"/>
        <pt x="845" y="745" on="1"/>
        <pt x="844" y="784" on="0"/>
        <pt x="813" y="831" on="0"/>
        <pt x="766" y="856" on="0"/>
        <pt x="707" y="864" on="0"/>
        <pt x="679" y="864" on="1"/>
        <pt x="650" y="864" on="0"/>
        <pt x="592" y="856" on="0"/>
        <pt x="545" y="830" on="0"/>
        <pt x="514" y="782" on="0"/>
        <pt x="513" y="743" on="1"/>
      </contour>
    </TTGlyph>
    <TTGlyph name="d" xMin="119" yMin="-12" xMax="977" yMax="1724">
      <contour>
        <pt x="121" y="883" on="1"/>
        <pt x="119" y="955" on="0"/>
        <pt x="161" y="1077" on="0"/>
        <pt x="242" y="1165" on="0"/>
        <pt x="356" y="1214" on="0"/>
        <pt x="426" y="1214" on="1"/>
        <pt x="468" y="1214" on="0"/>
        <pt x="540" y="1192" on="0"/>
        <pt x="600" y="1159" on="0"/>
        <pt x="647" y="1119" on="0"/>
        <pt x="664" y="1101" on="1"/>
        <pt x="653" y="1651" on="1"/>
        <pt x="653" y="1672" on="0"/>
        <pt x="662" y="1701" on="0"/>
        <pt x="696" y="1717" on="0"/>
        <pt x="761" y="1724" on="0"/>
        <pt x="815" y="1724" on="1"/>
        <pt x="869" y="1724" on="0"/>
        <pt x="934" y="1717" on="0"/>
        <pt x="968" y="1701" on="0"/>
        <pt x="977" y="1672" on="0"/>
        <pt x="977" y="1651" on="1"/>
        <pt x="946" y="57" on="1"/>
        <pt x="946" y="38" on="0"/>
        <pt x="936" y="16" on="0"/>
        <pt x="908" y="4" on="0"/>
        <pt x="857" y="0" on="0"/>
        <pt x="815" y="0" on="1"/>
        <pt x="776" y="0" on="0"/>
        <pt x="729" y="4" on="0"/>
        <pt x="704" y="16" on="0"/>
        <pt x="695" y="38" on="0"/>
        <pt x="695" y="57" on="1"/>
        <pt x="695" y="95" on="1"/>
        <pt x="674" y="76" on="0"/>
        <pt x="619" y="38" on="0"/>
        <pt x="551" y="7" on="0"/>
        <pt x="471" y="-12" on="0"/>
        <pt x="425" y="-12" on="1"/>
        <pt x="360" y="-12" on="0"/>
        <pt x="257" y="24" on="0"/>
        <pt x="184" y="103" on="0"/>
        <pt x="142" y="230" on="0"/>
        <pt x="139" y="320" on="1"/>
      </contour>
      <contour>
        <pt x="415" y="320" on="1"/>
        <pt x="413" y="246" on="0"/>
        <pt x="486" y="167" on="0"/>
        <pt x="550" y="167" on="1"/>
        <pt x="592" y="167" on="0"/>
        <pt x="659" y="198" on="0"/>
        <pt x="682" y="218" on="1"/>
        <pt x="667" y="956" on="1"/>
        <pt x="643" y="976" on="0"/>
        <pt x="577" y="1007" on="0"/>
        <pt x="543" y="1007" on="1"/>
        <pt x="521" y="1007" on="0"/>
        <pt x="481" y="994" on="0"/>
        <pt x="450" y="965" on="0"/>
        <pt x="431" y="917" on="0"/>
        <pt x="430" y="883" on="1"/>
      </contour>
    </TTGlyph>
    <TTGlyph name="degree" xMin="76" yMin="1020" xMax="770" yMax="1699">
      <contour>
        <pt x="424" y="1020" on="1"/>
        <pt x="363" y="1020" on="0"/>
        <pt x="248" y="1039" on="0"/>
        <pt x="157" y="1085" on="0"/>
        <pt x="100" y="1163" on="0"/>
        <pt x="96" y="1222" on="1"/>
        <pt x="80" y="1463" on="1"/>
        <pt x="76" y="1527" on="0"/>
        <pt x="130" y="1616" on="0"/>
        <pt x="227" y="1673" on="0"/>
        <pt x="355" y="1699" on="0"/>
        <pt x="424" y="1699" on="1"/>
        <pt x="493" y="1699" on="0"/>
        <pt x="619" y="1673" on="0"/>
        <pt x="715" y="1616" on="0"/>
        <pt x="770" y="1527" on="0"/>
        <pt x="766" y="1463" on="1"/>
        <pt x="752" y="1222" on="1"/>
        <pt x="749" y="1163" on="0"/>
        <pt x="691" y="1085" on="0"/>
        <pt x="600" y="1039" on="0"/>
        <pt x="485" y="1020" on="0"/>
      </contour>
      <contour>
        <pt x="424" y="1150" on="1"/>
        <pt x="448" y="1150" on="0"/>
        <pt x="490" y="1161" on="0"/>
        <pt x="519" y="1188" on="0"/>
        <pt x="534" y="1231" on="0"/>
        <pt x="533" y="1263" on="1"/>
        <pt x="524" y="1463" on="1"/>
        <pt x="521" y="1521" on="0"/>
        <pt x="472" y="1559" on="0"/>
        <pt x="424" y="1559" on="1"/>
        <pt x="374" y="1559" on="0"/>
        <pt x="326" y="1521" on="0"/>
        <pt x="323" y="1463" on="1"/>
        <pt x="314" y="1263" on="1"/>
        <pt x="312" y="1231" on="0"/>
        <pt x="328" y="1188" on="0"/>
        <pt x="357" y="1161" on="0"/>
        <pt x="399" y="1150" on="0"/>
      </contour>
    </TTGlyph>
    <TTGlyph name="dieresis" xMin="113" yMin="1407" xMax="830" yMax="1708">
      <contour>
        <pt x="687" y="1407" on="1"/>
        <pt x="645" y="1407" on="0"/>
        <pt x="595" y="1411" on="0"/>
        <pt x="568" y="1423" on="0"/>
        <pt x="558" y="1445" on="0"/>
        <pt x="557" y="1464" on="1"/>
        <pt x="545" y="1635" on="1"/>
        <pt x="543" y="1656" on="0"/>
        <pt x="552" y="1685" on="0"/>
        <pt x="582" y="1701" on="0"/>
        <pt x="639" y="1708" on="0"/>
        <pt x="687" y="1708" on="1"/>
        <pt x="735" y="1708" on="0"/>
        <pt x="792" y="1701" on="0"/>
        <pt x="822" y="1685" on="0"/>
        <pt x="830" y="1656" on="0"/>
        <pt x="829" y="1635" on="1"/>
        <pt x="818" y="1464" on="1"/>
        <pt x="817" y="1445" on="0"/>
        <pt x="807" y="1423" on="0"/>
        <pt x="780" y="1411" on="0"/>
        <pt x="729" y="1407" on="0"/>
      </contour>
      <contour>
        <pt x="257" y="1407" on="1"/>
        <pt x="215" y="1407" on="0"/>
        <pt x="165" y="1411" on="0"/>
        <pt x="138" y="1423" on="0"/>
        <pt x="128" y="1445" on="0"/>
        <pt x="127" y="1464" on="1"/>
        <pt x="115" y="1635" on="1"/>
        <pt x="113" y="1656" on="0"/>
        <pt x="122" y="1685" on="0"/>
        <pt x="152" y="1701" on="0"/>
        <pt x="209" y="1708" on="0"/>
        <pt x="257" y="1708" on="1"/>
        <pt x="305" y="1708" on="0"/>
        <pt x="362" y="1701" on="0"/>
        <pt x="392" y="1685" on="0"/>
        <pt x="400" y="1656" on="0"/>
        <pt x="399" y="1635" on="1"/>
        <pt x="388" y="1464" on="1"/>
        <pt x="387" y="1445" on="0"/>
        <pt x="377" y="1423" on="0"/>
        <pt x="350" y="1411" on="0"/>
        <pt x="299" y="1407" on="0"/>
      </contour>
    </TTGlyph>
    <TTGlyph name="dieresis.cap" xMin="113" yMin="1817" xMax="846" yMax="2110">
      <contour>
        <pt x="703" y="1817" on="1"/>
        <pt x="661" y="1817" on="0"/>
        <pt x="611" y="1821" on="0"/>
        <pt x="584" y="1833" on="0"/>
        <pt x="574" y="1855" on="0"/>
        <pt x="573" y="1874" on="1"/>
        <pt x="561" y="2037" on="1"/>
        <pt x="559" y="2058" on="0"/>
        <pt x="568" y="2087" on="0"/>
        <pt x="598" y="2103" on="0"/>
        <pt x="655" y="2110" on="0"/>
        <pt x="703" y="2110" on="1"/>
        <pt x="751" y="2110" on="0"/>
        <pt x="808" y="2103" on="0"/>
        <pt x="838" y="2087" on="0"/>
        <pt x="846" y="2058" on="0"/>
        <pt x="845" y="2037" on="1"/>
        <pt x="834" y="1874" on="1"/>
        <pt x="833" y="1855" on="0"/>
        <pt x="823" y="1833" on="0"/>
        <pt x="796" y="1821" on="0"/>
        <pt x="745" y="1817" on="0"/>
      </contour>
      <contour>
        <pt x="257" y="1817" on="1"/>
        <pt x="215" y="1817" on="0"/>
        <pt x="165" y="1821" on="0"/>
        <pt x="138" y="1833" on="0"/>
        <pt x="128" y="1855" on="0"/>
        <pt x="127" y="1874" on="1"/>
        <pt x="115" y="2037" on="1"/>
        <pt x="113" y="2058" on="0"/>
        <pt x="122" y="2087" on="0"/>
        <pt x="152" y="2103" on="0"/>
        <pt x="209" y="2110" on="0"/>
        <pt x="257" y="2110" on="1"/>
        <pt x="305" y="2110" on="0"/>
        <pt x="362" y="2103" on="0"/>
        <pt x="392" y="2087" on="0"/>
        <pt x="400" y="2058" on="0"/>
        <pt x="399" y="2037" on="1"/>
        <pt x="388" y="1874" on="1"/>
        <pt x="387" y="1855" on="0"/>
        <pt x="377" y="1833" on="0"/>
        <pt x="350" y="1821" on="0"/>
        <pt x="299" y="1817" on="0"/>
      </contour>
    </TTGlyph>
    <TTGlyph name="divide" xMin="40" yMin="237" xMax="936" yMax="1323">
      <contour>
        <pt x="489" y="1002" on="1"/>
        <pt x="444" y="1002" on="0"/>
        <pt x="387" y="1007" on="0"/>
        <pt x="354" y="1020" on="0"/>
        <pt x="342" y="1044" on="0"/>
        <pt x="342" y="1063" on="1"/>
        <pt x="333" y="1246" on="1"/>
        <pt x="332" y="1267" on="0"/>
        <pt x="344" y="1297" on="0"/>
        <pt x="378" y="1315" on="0"/>
        <pt x="439" y="1323" on="0"/>
        <pt x="489" y="1323" on="1"/>
        <pt x="538" y="1323" on="0"/>
        <pt x="600" y="1315" on="0"/>
        <pt x="634" y="1297" on="0"/>
        <pt x="645" y="1267" on="0"/>
        <pt x="644" y="1246" on="1"/>
        <pt x="633" y="1063" on="1"/>
        <pt x="632" y="1044" on="0"/>
        <pt x="619" y="1020" on="0"/>
        <pt x="586" y="1007" on="0"/>
        <pt x="531" y="1002" on="0"/>
      </contour>
      <contour>
        <pt x="112" y="664" on="1"/>
        <pt x="86" y="664" on="0"/>
        <pt x="58" y="673" on="0"/>
        <pt x="43" y="696" on="0"/>
        <pt x="40" y="735" on="0"/>
        <pt x="40" y="764" on="1"/>
        <pt x="40" y="796" on="0"/>
        <pt x="43" y="836" on="0"/>
        <pt x="58" y="858" on="0"/>
        <pt x="86" y="866" on="0"/>
        <pt x="112" y="866" on="1"/>
        <pt x="864" y="866" on="1"/>
        <pt x="889" y="866" on="0"/>
        <pt x="918" y="858" on="0"/>
        <pt x="933" y="835" on="0"/>
        <pt x="936" y="795" on="0"/>
        <pt x="936" y="763" on="1"/>
        <pt x="936" y="734" on="0"/>
        <pt x="933" y="695" on="0"/>
        <pt x="918" y="673" on="0"/>
        <pt x="889" y="664" on="0"/>
        <pt x="864" y="664" on="1"/>
      </contour>
      <contour>
        <pt x="351" y="453" on="1"/>
        <pt x="350" y="474" on="0"/>
        <pt x="357" y="503" on="0"/>
        <pt x="385" y="519" on="0"/>
        <pt x="441" y="526" on="0"/>
        <pt x="489" y="526" on="1"/>
        <pt x="537" y="526" on="0"/>
        <pt x="592" y="519" on="0"/>
        <pt x="621" y="503" on="0"/>
        <pt x="628" y="474" on="0"/>
        <pt x="627" y="453" on="1"/>
        <pt x="622" y="297" on="1"/>
        <pt x="621" y="278" on="0"/>
        <pt x="611" y="255" on="0"/>
        <pt x="583" y="242" on="0"/>
        <pt x="531" y="237" on="0"/>
        <pt x="489" y="237" on="1"/>
        <pt x="446" y="237" on="0"/>
        <pt x="395" y="242" on="0"/>
        <pt x="367" y="255" on="0"/>
        <pt x="358" y="278" on="0"/>
        <pt x="357" y="297" on="1"/>
      </contour>
    </TTGlyph>
    <TTGlyph name="dollar" xMin="108" yMin="-239" xMax="1079" yMax="1944">
      <contour>
        <pt x="144" y="415" on="1"/>
        <pt x="143" y="445" on="0"/>
        <pt x="153" y="482" on="0"/>
        <pt x="184" y="501" on="0"/>
        <pt x="240" y="507" on="0"/>
        <pt x="286" y="507" on="1"/>
        <pt x="332" y="507" on="0"/>
        <pt x="394" y="501" on="0"/>
        <pt x="431" y="482" on="0"/>
        <pt x="446" y="445" on="0"/>
        <pt x="445" y="415" on="1"/>
        <pt x="441" y="296" on="1"/>
        <pt x="439" y="254" on="0"/>
        <pt x="456" y="198" on="0"/>
        <pt x="495" y="165" on="0"/>
        <pt x="557" y="151" on="0"/>
        <pt x="601" y="151" on="1"/>
        <pt x="646" y="151" on="0"/>
        <pt x="709" y="165" on="0"/>
        <pt x="747" y="198" on="0"/>
        <pt x="763" y="254" on="0"/>
        <pt x="763" y="296" on="1"/>
        <pt x="762" y="361" on="1"/>
        <pt x="762" y="396" on="0"/>
        <pt x="756" y="453" on="0"/>
        <pt x="737" y="499" on="0"/>
        <pt x="700" y="535" on="0"/>
        <pt x="667" y="549" on="1"/>
        <pt x="320" y="697" on="1"/>
        <pt x="263" y="722" on="0"/>
        <pt x="187" y="784" on="0"/>
        <pt x="142" y="864" on="0"/>
        <pt x="122" y="964" on="0"/>
        <pt x="120" y="1026" on="1"/>
        <pt x="110" y="1365" on="1"/>
        <pt x="108" y="1432" on="0"/>
        <pt x="149" y="1545" on="0"/>
        <pt x="242" y="1631" on="0"/>
        <pt x="387" y="1687" on="0"/>
        <pt x="489" y="1696" on="1"/>
        <pt x="485" y="1873" on="1"/>
        <pt x="485" y="1894" on="0"/>
        <pt x="493" y="1921" on="0"/>
        <pt x="518" y="1938" on="0"/>
        <pt x="564" y="1944" on="0"/>
        <pt x="602" y="1944" on="1"/>
        <pt x="640" y="1944" on="0"/>
        <pt x="686" y="1938" on="0"/>
        <pt x="711" y="1922" on="0"/>
        <pt x="719" y="1895" on="0"/>
        <pt x="719" y="1874" on="1"/>
        <pt x="715" y="1695" on="1"/>
        <pt x="812" y="1684" on="0"/>
        <pt x="951" y="1627" on="0"/>
        <pt x="1039" y="1542" on="0"/>
        <pt x="1079" y="1431" on="0"/>
        <pt x="1078" y="1365" on="1"/>
        <pt x="1068" y="965" on="1"/>
        <pt x="1067" y="935" on="0"/>
        <pt x="1051" y="898" on="0"/>
        <pt x="1013" y="879" on="0"/>
        <pt x="950" y="873" on="0"/>
        <pt x="904" y="873" on="1"/>
        <pt x="857" y="873" on="0"/>
        <pt x="794" y="879" on="0"/>
        <pt x="756" y="898" on="0"/>
        <pt x="740" y="935" on="0"/>
        <pt x="739" y="965" on="1"/>
        <pt x="727" y="1396" on="1"/>
        <pt x="726" y="1440" on="0"/>
        <pt x="708" y="1492" on="0"/>
        <pt x="675" y="1520" on="0"/>
        <pt x="626" y="1529" on="0"/>
        <pt x="594" y="1529" on="1"/>
        <pt x="562" y="1529" on="0"/>
        <pt x="513" y="1520" on="0"/>
        <pt x="480" y="1492" on="0"/>
        <pt x="462" y="1440" on="0"/>
        <pt x="461" y="1396" on="1"/>
        <pt x="450" y="997" on="1"/>
        <pt x="449" y="959" on="0"/>
        <pt x="458" y="902" on="0"/>
        <pt x="483" y="858" on="0"/>
        <pt x="525" y="824" on="0"/>
        <pt x="558" y="810" on="1"/>
        <pt x="882" y="674" on="1"/>
        <pt x="935" y="652" on="0"/>
        <pt x="1006" y="601" on="0"/>
        <pt x="1048" y="529" on="0"/>
        <pt x="1063" y="429" on="0"/>
        <pt x="1059" y="357" on="1"/>
        <pt x="1057" y="301" on="1"/>
        <pt x="1055" y="242" on="0"/>
        <pt x="1012" y="138" on="0"/>
        <pt x="924" y="56" on="0"/>
        <pt x="788" y="1" on="0"/>
        <pt x="692" y="-8" on="1"/>
        <pt x="688" y="-182" on="1"/>
        <pt x="688" y="-200" on="0"/>
        <pt x="680" y="-223" on="0"/>
        <pt x="661" y="-235" on="0"/>
        <pt x="628" y="-239" on="0"/>
        <pt x="603" y="-239" on="1"/>
        <pt x="577" y="-239" on="0"/>
        <pt x="545" y="-236" on="0"/>
        <pt x="526" y="-224" on="0"/>
        <pt x="518" y="-201" on="0"/>
        <pt x="518" y="-183" on="1"/>
        <pt x="513" y="-8" on="1"/>
        <pt x="416" y="1" on="0"/>
        <pt x="279" y="57" on="0"/>
        <pt x="190" y="140" on="0"/>
        <pt x="148" y="246" on="0"/>
        <pt x="147" y="305" on="1"/>
      </contour>
    </TTGlyph>
    <TTGlyph name="dotaccent" xMin="115" yMin="1360" xMax="439" yMax="1685">
      <contour>
        <pt x="277" y="1360" on="1"/>
        <pt x="228" y="1360" on="0"/>
        <pt x="169" y="1364" on="0"/>
        <pt x="138" y="1376" on="0"/>
        <pt x="127" y="1398" on="0"/>
        <pt x="127" y="1417" on="1"/>
        <pt x="115" y="1612" on="1"/>
        <pt x="115" y="1633" on="0"/>
        <pt x="124" y="1662" on="0"/>
        <pt x="158" y="1678" on="0"/>
        <pt x="223" y="1685" on="0"/>
        <pt x="277" y="1685" on="1"/>
        <pt x="331" y="1685" on="0"/>
        <pt x="396" y="1678" on="0"/>
        <pt x="430" y="1662" on="0"/>
        <pt x="439" y="1633" on="0"/>
        <pt x="439" y="1612" on="1"/>
        <pt x="428" y="1417" on="1"/>
        <pt x="428" y="1398" on="0"/>
        <pt x="417" y="1376" on="0"/>
        <pt x="385" y="1364" on="0"/>
        <pt x="326" y="1360" on="0"/>
      </contour>
    </TTGlyph>
    <TTGlyph name="dotlessi" xMin="121" yMin="0" xMax="445" yMax="1202">
      <contour>
        <pt x="121" y="1129" on="1"/>
        <pt x="121" y="1150" on="0"/>
        <pt x="130" y="1179" on="0"/>
        <pt x="164" y="1195" on="0"/>
        <pt x="229" y="1202" on="0"/>
        <pt x="283" y="1202" on="1"/>
        <pt x="337" y="1202" on="0"/>
        <pt x="402" y="1195" on="0"/>
        <pt x="436" y="1179" on="0"/>
        <pt x="445" y="1150" on="0"/>
        <pt x="445" y="1129" on="1"/>
        <pt x="414" y="57" on="1"/>
        <pt x="414" y="38" on="0"/>
        <pt x="404" y="16" on="0"/>
        <pt x="376" y="4" on="0"/>
        <pt x="325" y="0" on="0"/>
        <pt x="283" y="0" on="1"/>
        <pt x="241" y="0" on="0"/>
        <pt x="190" y="4" on="0"/>
        <pt x="163" y="16" on="0"/>
        <pt x="153" y="38" on="0"/>
        <pt x="153" y="57" on="1"/>
      </contour>
    </TTGlyph>
    <TTGlyph name="dotlessj" xMin="122" yMin="-420" xMax="448" yMax="1202">
      <contour>
        <pt x="123" y="1129" on="1"/>
        <pt x="122" y="1150" on="0"/>
        <pt x="132" y="1179" on="0"/>
        <pt x="166" y="1195" on="0"/>
        <pt x="231" y="1202" on="0"/>
        <pt x="285" y="1202" on="1"/>
        <pt x="339" y="1202" on="0"/>
        <pt x="404" y="1195" on="0"/>
        <pt x="438" y="1179" on="0"/>
        <pt x="448" y="1150" on="0"/>
        <pt x="447" y="1129" on="1"/>
        <pt x="415" y="-363" on="1"/>
        <pt x="415" y="-382" on="0"/>
        <pt x="405" y="-404" on="0"/>
        <pt x="377" y="-416" on="0"/>
        <pt x="327" y="-420" on="0"/>
        <pt x="285" y="-420" on="1"/>
        <pt x="243" y="-420" on="0"/>
        <pt x="192" y="-416" on="0"/>
        <pt x="165" y="-404" on="0"/>
        <pt x="156" y="-382" on="0"/>
        <pt x="156" y="-363" on="1"/>
      </contour>
    </TTGlyph>
    <TTGlyph name="e" xMin="108" yMin="-12" xMax="964" yMax="1214">
      <contour>
        <pt x="111" y="910" on="1"/>
        <pt x="108" y="990" on="0"/>
        <pt x="181" y="1105" on="0"/>
        <pt x="304" y="1179" on="0"/>
        <pt x="463" y="1214" on="0"/>
        <pt x="546" y="1214" on="1"/>
        <pt x="625" y="1214" on="0"/>
        <pt x="777" y="1179" on="0"/>
        <pt x="895" y="1105" on="0"/>
        <pt x="964" y="990" on="0"/>
        <pt x="961" y="910" on="1"/>
        <pt x="946" y="541" on="1"/>
        <pt x="945" y="522" on="0"/>
        <pt x="934" y="500" on="0"/>
        <pt x="904" y="488" on="0"/>
        <pt x="849" y="484" on="0"/>
        <pt x="804" y="484" on="1"/>
        <pt x="414" y="484" on="1"/>
        <pt x="408" y="268" on="1"/>
        <pt x="407" y="230" on="0"/>
        <pt x="424" y="178" on="0"/>
        <pt x="458" y="146" on="0"/>
        <pt x="508" y="132" on="0"/>
        <pt x="540" y="132" on="1"/>
        <pt x="604" y="132" on="0"/>
        <pt x="664" y="188" on="0"/>
        <pt x="664" y="259" on="1"/>
        <pt x="664" y="290" on="1"/>
        <pt x="664" y="309" on="0"/>
        <pt x="674" y="334" on="0"/>
        <pt x="703" y="349" on="0"/>
        <pt x="757" y="355" on="0"/>
        <pt x="802" y="355" on="1"/>
        <pt x="846" y="355" on="0"/>
        <pt x="900" y="349" on="0"/>
        <pt x="929" y="334" on="0"/>
        <pt x="938" y="310" on="0"/>
        <pt x="938" y="291" on="1"/>
        <pt x="938" y="247" on="1"/>
        <pt x="938" y="168" on="0"/>
        <pt x="870" y="68" on="0"/>
        <pt x="759" y="10" on="0"/>
        <pt x="616" y="-12" on="0"/>
        <pt x="541" y="-12" on="1"/>
        <pt x="465" y="-12" on="0"/>
        <pt x="321" y="17" on="0"/>
        <pt x="208" y="84" on="0"/>
        <pt x="137" y="194" on="0"/>
        <pt x="134" y="276" on="1"/>
      </contour>
      <contour>
        <pt x="664" y="634" on="1"/>
        <pt x="654" y="927" on="1"/>
        <pt x="653" y="969" on="0"/>
        <pt x="636" y="1021" on="0"/>
        <pt x="607" y="1049" on="0"/>
        <pt x="568" y="1058" on="0"/>
        <pt x="546" y="1058" on="1"/>
        <pt x="521" y="1058" on="0"/>
        <pt x="479" y="1049" on="0"/>
        <pt x="448" y="1021" on="0"/>
        <pt x="429" y="969" on="0"/>
        <pt x="428" y="927" on="1"/>
        <pt x="419" y="634" on="1"/>
      </contour>
    </TTGlyph>
    <TTGlyph name="eacute" xMin="108" yMin="-12" xMax="964" yMax="1784">
      <component glyphName="e" x="0" y="0" flags="0x204"/>
      <component glyphName="acute" x="295" y="0" flags="0x4"/>
    </TTGlyph>
    <TTGlyph name="ecircumflex" xMin="108" yMin="-12" xMax="964" yMax="1214">
      <component glyphName="e" x="0" y="0" flags="0x204"/>
      <component glyphName="circumflex" x="531" y="0" flags="0x4"/>
    </TTGlyph>
    <TTGlyph name="edieresis" xMin="108" yMin="-12" xMax="964" yMax="1708">
      <component glyphName="e" x="0" y="0" flags="0x204"/>
      <component glyphName="dieresis" x="64" y="0" flags="0x4"/>
    </TTGlyph>
    <TTGlyph name="egrave" xMin="108" yMin="-12" xMax="964" yMax="1784">
      <component glyphName="e" x="0" y="0" flags="0x204"/>
      <component glyphName="grave" x="79" y="0" flags="0x4"/>
    </TTGlyph>
    <TTGlyph name="eight" xMin="110" yMin="-12" xMax="1066" yMax="1701">
      <contour>
        <pt x="145" y="482" on="1"/>
        <pt x="143" y="535" on="0"/>
        <pt x="168" y="611" on="0"/>
        <pt x="218" y="670" on="0"/>
        <pt x="294" y="720" on="0"/>
        <pt x="344" y="749" on="1"/>
        <pt x="344" y="757" on="1"/>
        <pt x="278" y="785" on="0"/>
        <pt x="196" y="848" on="0"/>
        <pt x="150" y="918" on="0"/>
        <pt x="133" y="995" on="0"/>
        <pt x="132" y="1036" on="1"/>
        <pt x="111" y="1407" on="1"/>
        <pt x="110" y="1462" on="0"/>
        <pt x="150" y="1549" on="0"/>
        <pt x="221" y="1614" on="0"/>
        <pt x="315" y="1660" on="0"/>
        <pt x="422" y="1688" on="0"/>
        <pt x="534" y="1701" on="0"/>
        <pt x="587" y="1701" on="1"/>
        <pt x="640" y="1701" on="0"/>
        <pt x="753" y="1688" on="0"/>
        <pt x="860" y="1660" on="0"/>
        <pt x="955" y="1614" on="0"/>
        <pt x="1026" y="1549" on="0"/>
        <pt x="1066" y="1462" on="0"/>
        <pt x="1065" y="1407" on="1"/>
        <pt x="1044" y="1036" on="1"/>
        <pt x="1043" y="995" on="0"/>
        <pt x="1026" y="918" on="0"/>
        <pt x="980" y="848" on="0"/>
        <pt x="898" y="785" on="0"/>
        <pt x="832" y="757" on="1"/>
        <pt x="832" y="749" on="1"/>
        <pt x="882" y="720" on="0"/>
        <pt x="958" y="670" on="0"/>
        <pt x="1008" y="611" on="0"/>
        <pt x="1032" y="535" on="0"/>
        <pt x="1031" y="482" on="1"/>
        <pt x="1024" y="278" on="1"/>
        <pt x="1022" y="219" on="0"/>
        <pt x="979" y="114" on="0"/>
        <pt x="878" y="35" on="0"/>
        <pt x="711" y="-12" on="0"/>
        <pt x="587" y="-12" on="1"/>
        <pt x="464" y="-12" on="0"/>
        <pt x="299" y="35" on="0"/>
        <pt x="198" y="114" on="0"/>
        <pt x="153" y="219" on="0"/>
        <pt x="152" y="278" on="1"/>
      </contour>
      <contour>
        <pt x="589" y="837" on="1"/>
        <pt x="666" y="837" on="0"/>
        <pt x="736" y="900" on="0"/>
        <pt x="733" y="984" on="1"/>
        <pt x="719" y="1389" on="1"/>
        <pt x="717" y="1428" on="0"/>
        <pt x="702" y="1479" on="0"/>
        <pt x="671" y="1510" on="0"/>
        <pt x="622" y="1522" on="0"/>
        <pt x="587" y="1522" on="1"/>
        <pt x="553" y="1522" on="0"/>
        <pt x="505" y="1510" on="0"/>
        <pt x="474" y="1479" on="0"/>
        <pt x="458" y="1428" on="0"/>
        <pt x="457" y="1389" on="1"/>
        <pt x="443" y="984" on="1"/>
        <pt x="441" y="942" on="0"/>
        <pt x="457" y="886" on="0"/>
        <pt x="493" y="851" on="0"/>
        <pt x="550" y="837" on="0"/>
      </contour>
      <contour>
        <pt x="423" y="307" on="1"/>
        <pt x="421" y="227" on="0"/>
        <pt x="501" y="161" on="0"/>
        <pt x="587" y="161" on="1"/>
        <pt x="589" y="161" on="1"/>
        <pt x="674" y="161" on="0"/>
        <pt x="755" y="227" on="0"/>
        <pt x="753" y="307" on="1"/>
        <pt x="747" y="536" on="1"/>
        <pt x="746" y="575" on="0"/>
        <pt x="726" y="624" on="0"/>
        <pt x="687" y="651" on="0"/>
        <pt x="627" y="661" on="0"/>
        <pt x="587" y="661" on="1"/>
        <pt x="547" y="661" on="0"/>
        <pt x="488" y="651" on="0"/>
        <pt x="449" y="624" on="0"/>
        <pt x="430" y="575" on="0"/>
        <pt x="429" y="536" on="1"/>
      </contour>
    </TTGlyph>
    <TTGlyph name="ellipsis" xMin="136" yMin="0" xMax="1663" yMax="325">
      <contour>
        <pt x="1338" y="252" on="1"/>
        <pt x="1336" y="273" on="0"/>
        <pt x="1346" y="302" on="0"/>
        <pt x="1380" y="318" on="0"/>
        <pt x="1446" y="325" on="0"/>
        <pt x="1500" y="325" on="1"/>
        <pt x="1554" y="325" on="0"/>
        <pt x="1619" y="318" on="0"/>
        <pt x="1654" y="302" on="0"/>
        <pt x="1663" y="273" on="0"/>
        <pt x="1662" y="252" on="1"/>
        <pt x="1651" y="57" on="1"/>
        <pt x="1650" y="38" on="0"/>
        <pt x="1639" y="16" on="0"/>
        <pt x="1607" y="4" on="0"/>
        <pt x="1549" y="0" on="0"/>
        <pt x="1500" y="0" on="1"/>
        <pt x="1451" y="0" on="0"/>
        <pt x="1393" y="4" on="0"/>
        <pt x="1362" y="16" on="0"/>
        <pt x="1351" y="38" on="0"/>
        <pt x="1350" y="57" on="1"/>
      </contour>
      <contour>
        <pt x="738" y="252" on="1"/>
        <pt x="736" y="273" on="0"/>
        <pt x="746" y="302" on="0"/>
        <pt x="780" y="318" on="0"/>
        <pt x="846" y="325" on="0"/>
        <pt x="900" y="325" on="1"/>
        <pt x="954" y="325" on="0"/>
        <pt x="1019" y="318" on="0"/>
        <pt x="1054" y="302" on="0"/>
        <pt x="1063" y="273" on="0"/>
        <pt x="1062" y="252" on="1"/>
        <pt x="1051" y="57" on="1"/>
        <pt x="1050" y="38" on="0"/>
        <pt x="1039" y="16" on="0"/>
        <pt x="1007" y="4" on="0"/>
        <pt x="949" y="0" on="0"/>
        <pt x="900" y="0" on="1"/>
        <pt x="851" y="0" on="0"/>
        <pt x="793" y="4" on="0"/>
        <pt x="762" y="16" on="0"/>
        <pt x="751" y="38" on="0"/>
        <pt x="750" y="57" on="1"/>
      </contour>
      <contour>
        <pt x="138" y="252" on="1"/>
        <pt x="136" y="273" on="0"/>
        <pt x="146" y="302" on="0"/>
        <pt x="180" y="318" on="0"/>
        <pt x="246" y="325" on="0"/>
        <pt x="300" y="325" on="1"/>
        <pt x="354" y="325" on="0"/>
        <pt x="419" y="318" on="0"/>
        <pt x="454" y="302" on="0"/>
        <pt x="463" y="273" on="0"/>
        <pt x="462" y="252" on="1"/>
        <pt x="451" y="57" on="1"/>
        <pt x="450" y="38" on="0"/>
        <pt x="439" y="16" on="0"/>
        <pt x="407" y="4" on="0"/>
        <pt x="349" y="0" on="0"/>
        <pt x="300" y="0" on="1"/>
        <pt x="251" y="0" on="0"/>
        <pt x="193" y="4" on="0"/>
        <pt x="162" y="16" on="0"/>
        <pt x="151" y="38" on="0"/>
        <pt x="150" y="57" on="1"/>
      </contour>
    </TTGlyph>
    <TTGlyph name="emdash" xMin="110" yMin="480" xMax="1510" yMax="706">
      <contour>
        <pt x="182" y="480" on="1"/>
        <pt x="156" y="480" on="0"/>
        <pt x="127" y="491" on="0"/>
        <pt x="113" y="516" on="0"/>
        <pt x="110" y="557" on="0"/>
        <pt x="110" y="588" on="1"/>
        <pt x="110" y="622" on="0"/>
        <pt x="113" y="667" on="0"/>
        <pt x="127" y="694" on="0"/>
        <pt x="156" y="706" on="0"/>
        <pt x="182" y="706" on="1"/>
        <pt x="1438" y="706" on="1"/>
        <pt x="1464" y="706" on="0"/>
        <pt x="1493" y="694" on="0"/>
        <pt x="1507" y="666" on="0"/>
        <pt x="1510" y="621" on="0"/>
        <pt x="1510" y="587" on="1"/>
        <pt x="1510" y="556" on="0"/>
        <pt x="1507" y="515" on="0"/>
        <pt x="1493" y="490" on="0"/>
        <pt x="1464" y="480" on="0"/>
        <pt x="1438" y="480" on="1"/>
        <pt x="182" y="480" on="1"/>
      </contour>
    </TTGlyph>
    <TTGlyph name="endash" xMin="110" yMin="480" xMax="970" yMax="706">
      <contour>
        <pt x="182" y="480" on="1"/>
        <pt x="156" y="480" on="0"/>
        <pt x="127" y="491" on="0"/>
        <pt x="113" y="516" on="0"/>
        <pt x="110" y="557" on="0"/>
        <pt x="110" y="588" on="1"/>
        <pt x="110" y="622" on="0"/>
        <pt x="113" y="667" on="0"/>
        <pt x="127" y="694" on="0"/>
        <pt x="156" y="706" on="0"/>
        <pt x="182" y="706" on="1"/>
        <pt x="898" y="706" on="1"/>
        <pt x="924" y="706" on="0"/>
        <pt x="953" y="694" on="0"/>
        <pt x="967" y="666" on="0"/>
        <pt x="970" y="621" on="0"/>
        <pt x="970" y="587" on="1"/>
        <pt x="970" y="556" on="0"/>
        <pt x="967" y="515" on="0"/>
        <pt x="953" y="490" on="0"/>
        <pt x="924" y="480" on="0"/>
        <pt x="898" y="480" on="1"/>
        <pt x="182" y="480" on="1"/>
      </contour>
    </TTGlyph>
    <TTGlyph name="equal" xMin="60" yMin="428" xMax="878" yMax="1041">
      <contour>
        <pt x="132" y="831" on="1"/>
        <pt x="106" y="831" on="0"/>
        <pt x="78" y="840" on="0"/>
        <pt x="63" y="863" on="0"/>
        <pt x="60" y="902" on="0"/>
        <pt x="60" y="931" on="1"/>
        <pt x="60" y="963" on="0"/>
        <pt x="63" y="1006" on="0"/>
        <pt x="78" y="1031" on="0"/>
        <pt x="106" y="1041" on="0"/>
        <pt x="132" y="1041" on="1"/>
        <pt x="806" y="1041" on="1"/>
        <pt x="831" y="1041" on="0"/>
        <pt x="860" y="1030" on="0"/>
        <pt x="875" y="1005" on="0"/>
        <pt x="878" y="962" on="0"/>
        <pt x="878" y="930" on="1"/>
        <pt x="878" y="901" on="0"/>
        <pt x="875" y="862" on="0"/>
        <pt x="860" y="840" on="0"/>
        <pt x="831" y="831" on="0"/>
        <pt x="806" y="831" on="1"/>
      </contour>
      <contour>
        <pt x="132" y="428" on="1"/>
        <pt x="106" y="428" on="0"/>
        <pt x="78" y="437" on="0"/>
        <pt x="63" y="460" on="0"/>
        <pt x="60" y="499" on="0"/>
        <pt x="60" y="528" on="1"/>
        <pt x="60" y="560" on="0"/>
        <pt x="63" y="603" on="0"/>
        <pt x="78" y="628" on="0"/>
        <pt x="106" y="638" on="0"/>
        <pt x="132" y="638" on="1"/>
        <pt x="806" y="638" on="1"/>
        <pt x="831" y="638" on="0"/>
        <pt x="860" y="627" on="0"/>
        <pt x="875" y="602" on="0"/>
        <pt x="878" y="559" on="0"/>
        <pt x="878" y="527" on="1"/>
        <pt x="878" y="498" on="0"/>
        <pt x="875" y="459" on="0"/>
        <pt x="860" y="437" on="0"/>
        <pt x="831" y="428" on="0"/>
        <pt x="806" y="428" on="1"/>
      </contour>
    </TTGlyph>
    <TTGlyph name="eth" xMin="108" yMin="-12" xMax="971" yMax="1870">
      <contour>
        <pt x="111" y="910" on="1"/>
        <pt x="108" y="989" on="0"/>
        <pt x="157" y="1103" on="0"/>
        <pt x="271" y="1177" on="0"/>
        <pt x="453" y="1213" on="0"/>
        <pt x="584" y="1214" on="1"/>
        <pt x="450" y="1409" on="1"/>
        <pt x="338" y="1343" on="1"/>
        <pt x="315" y="1330" on="0"/>
        <pt x="287" y="1321" on="0"/>
        <pt x="265" y="1331" on="0"/>
        <pt x="244" y="1360" on="0"/>
        <pt x="230" y="1384" on="1"/>
        <pt x="216" y="1408" on="0"/>
        <pt x="200" y="1439" on="0"/>
        <pt x="202" y="1463" on="0"/>
        <pt x="223" y="1484" on="0"/>
        <pt x="246" y="1498" on="1"/>
        <pt x="348" y="1558" on="1"/>
        <pt x="234" y="1725" on="1"/>
        <pt x="217" y="1751" on="0"/>
        <pt x="189" y="1792" on="0"/>
        <pt x="185" y="1812" on="1"/>
        <pt x="181" y="1831" on="0"/>
        <pt x="202" y="1854" on="0"/>
        <pt x="247" y="1866" on="0"/>
        <pt x="315" y="1870" on="0"/>
        <pt x="359" y="1870" on="1"/>
        <pt x="403" y="1870" on="0"/>
        <pt x="465" y="1866" on="0"/>
        <pt x="510" y="1849" on="0"/>
        <pt x="542" y="1814" on="0"/>
        <pt x="556" y="1782" on="1"/>
        <pt x="564" y="1762" on="0"/>
        <pt x="583" y="1724" on="0"/>
        <pt x="593" y="1704" on="1"/>
        <pt x="712" y="1775" on="1"/>
        <pt x="734" y="1788" on="0"/>
        <pt x="763" y="1797" on="0"/>
        <pt x="785" y="1787" on="0"/>
        <pt x="806" y="1758" on="0"/>
        <pt x="820" y="1734" on="1"/>
        <pt x="834" y="1710" on="0"/>
        <pt x="850" y="1678" on="0"/>
        <pt x="848" y="1654" on="0"/>
        <pt x="826" y="1633" on="0"/>
        <pt x="804" y="1620" on="1"/>
        <pt x="682" y="1548" on="1"/>
        <pt x="717" y="1490" on="0"/>
        <pt x="789" y="1374" on="0"/>
        <pt x="856" y="1259" on="0"/>
        <pt x="913" y="1146" on="0"/>
        <pt x="933" y="1091" on="1"/>
        <pt x="952" y="1035" on="0"/>
        <pt x="971" y="932" on="0"/>
        <pt x="966" y="882" on="1"/>
        <pt x="966" y="881" on="0"/>
        <pt x="967" y="880" on="1"/>
        <pt x="948" y="277" on="1"/>
        <pt x="945" y="195" on="0"/>
        <pt x="875" y="84" on="0"/>
        <pt x="763" y="17" on="0"/>
        <pt x="619" y="-12" on="0"/>
        <pt x="542" y="-12" on="1"/>
        <pt x="464" y="-12" on="0"/>
        <pt x="320" y="17" on="0"/>
        <pt x="207" y="84" on="0"/>
        <pt x="137" y="194" on="0"/>
        <pt x="134" y="276" on="1"/>
      </contour>
      <contour>
        <pt x="408" y="268" on="1"/>
        <pt x="407" y="230" on="0"/>
        <pt x="422" y="178" on="0"/>
        <pt x="455" y="146" on="0"/>
        <pt x="506" y="132" on="0"/>
        <pt x="541" y="132" on="1"/>
        <pt x="611" y="132" on="0"/>
        <pt x="676" y="192" on="0"/>
        <pt x="674" y="269" on="1"/>
        <pt x="654" y="927" on="1"/>
        <pt x="653" y="969" on="0"/>
        <pt x="636" y="1021" on="0"/>
        <pt x="606" y="1049" on="0"/>
        <pt x="566" y="1058" on="0"/>
        <pt x="541" y="1058" on="1"/>
        <pt x="516" y="1058" on="0"/>
        <pt x="476" y="1049" on="0"/>
        <pt x="446" y="1021" on="0"/>
        <pt x="429" y="969" on="0"/>
        <pt x="428" y="927" on="1"/>
      </contour>
    </TTGlyph>
    <TTGlyph name="exclam" xMin="125" yMin="0" xMax="495" yMax="1724">
      <contour>
        <pt x="310" y="600" on="1"/>
        <pt x="263" y="600" on="0"/>
        <pt x="209" y="604" on="0"/>
        <pt x="180" y="618" on="0"/>
        <pt x="171" y="646" on="0"/>
        <pt x="170" y="669" on="1"/>
        <pt x="126" y="1640" on="1"/>
        <pt x="125" y="1666" on="0"/>
        <pt x="138" y="1699" on="0"/>
        <pt x="177" y="1717" on="0"/>
        <pt x="250" y="1724" on="0"/>
        <pt x="310" y="1724" on="1"/>
        <pt x="370" y="1724" on="0"/>
        <pt x="443" y="1717" on="0"/>
        <pt x="482" y="1699" on="0"/>
        <pt x="495" y="1666" on="0"/>
        <pt x="494" y="1640" on="1"/>
        <pt x="450" y="669" on="1"/>
        <pt x="449" y="646" on="0"/>
        <pt x="440" y="618" on="0"/>
        <pt x="411" y="604" on="0"/>
        <pt x="356" y="600" on="0"/>
      </contour>
      <contour>
        <pt x="148" y="252" on="1"/>
        <pt x="146" y="273" on="0"/>
        <pt x="156" y="302" on="0"/>
        <pt x="190" y="318" on="0"/>
        <pt x="256" y="325" on="0"/>
        <pt x="310" y="325" on="1"/>
        <pt x="364" y="325" on="0"/>
        <pt x="429" y="318" on="0"/>
        <pt x="464" y="302" on="0"/>
        <pt x="473" y="273" on="0"/>
        <pt x="472" y="252" on="1"/>
        <pt x="461" y="57" on="1"/>
        <pt x="460" y="38" on="0"/>
        <pt x="449" y="16" on="0"/>
        <pt x="417" y="4" on="0"/>
        <pt x="359" y="0" on="0"/>
        <pt x="310" y="0" on="1"/>
        <pt x="261" y="0" on="0"/>
        <pt x="203" y="4" on="0"/>
        <pt x="172" y="16" on="0"/>
        <pt x="161" y="38" on="0"/>
        <pt x="160" y="57" on="1"/>
      </contour>
    </TTGlyph>
    <TTGlyph name="exclamdown" xMin="125" yMin="0" xMax="495" yMax="1724">
      <contour>
        <pt x="310" y="1375" on="1"/>
        <pt x="257" y="1375" on="0"/>
        <pt x="190" y="1377" on="0"/>
        <pt x="150" y="1388" on="0"/>
        <pt x="133" y="1411" on="0"/>
        <pt x="132" y="1432" on="1"/>
        <pt x="126" y="1637" on="1"/>
        <pt x="125" y="1661" on="0"/>
        <pt x="135" y="1695" on="0"/>
        <pt x="172" y="1715" on="0"/>
        <pt x="246" y="1724" on="0"/>
        <pt x="310" y="1724" on="1"/>
        <pt x="374" y="1724" on="0"/>
        <pt x="448" y="1715" on="0"/>
        <pt x="485" y="1695" on="0"/>
        <pt x="495" y="1662" on="0"/>
        <pt x="494" y="1638" on="1"/>
        <pt x="488" y="1432" on="1"/>
        <pt x="487" y="1413" on="0"/>
        <pt x="473" y="1391" on="0"/>
        <pt x="434" y="1379" on="0"/>
        <pt x="365" y="1375" on="0"/>
      </contour>
      <contour>
        <pt x="143" y="1040" on="1"/>
        <pt x="142" y="1066" on="0"/>
        <pt x="154" y="1099" on="0"/>
        <pt x="190" y="1117" on="0"/>
        <pt x="257" y="1124" on="0"/>
        <pt x="310" y="1124" on="1"/>
        <pt x="363" y="1124" on="0"/>
        <pt x="430" y="1117" on="0"/>
        <pt x="466" y="1099" on="0"/>
        <pt x="478" y="1066" on="0"/>
        <pt x="477" y="1040" on="1"/>
        <pt x="447" y="69" on="1"/>
        <pt x="446" y="46" on="0"/>
        <pt x="438" y="18" on="0"/>
        <pt x="410" y="4" on="0"/>
        <pt x="356" y="0" on="0"/>
        <pt x="310" y="0" on="1"/>
        <pt x="263" y="0" on="0"/>
        <pt x="208" y="4" on="0"/>
        <pt x="179" y="18" on="0"/>
        <pt x="170" y="46" on="0"/>
        <pt x="169" y="69" on="1"/>
      </contour>
    </TTGlyph>
    <TTGlyph name="f" xMin="38" yMin="0" xMax="644" yMax="1724">
      <contour>
        <pt x="144" y="926" on="1"/>
        <pt x="110" y="926" on="1"/>
        <pt x="84" y="926" on="0"/>
        <pt x="55" y="934" on="0"/>
        <pt x="41" y="956" on="0"/>
        <pt x="38" y="995" on="0"/>
        <pt x="38" y="1026" on="1"/>
        <pt x="38" y="1054" on="0"/>
        <pt x="41" y="1089" on="0"/>
        <pt x="55" y="1109" on="0"/>
        <pt x="84" y="1116" on="0"/>
        <pt x="110" y="1116" on="1"/>
        <pt x="140" y="1116" on="1"/>
        <pt x="135" y="1384" on="1"/>
        <pt x="134" y="1449" on="0"/>
        <pt x="170" y="1571" on="0"/>
        <pt x="245" y="1666" on="0"/>
        <pt x="361" y="1724" on="0"/>
        <pt x="440" y="1724" on="1"/>
        <pt x="572" y="1724" on="1"/>
        <pt x="598" y="1724" on="0"/>
        <pt x="627" y="1717" on="0"/>
        <pt x="641" y="1697" on="0"/>
        <pt x="644" y="1662" on="0"/>
        <pt x="644" y="1634" on="1"/>
        <pt x="644" y="1609" on="0"/>
        <pt x="642" y="1574" on="0"/>
        <pt x="631" y="1553" on="0"/>
        <pt x="609" y="1544" on="0"/>
        <pt x="590" y="1544" on="1"/>
        <pt x="550" y="1544" on="1"/>
        <pt x="535" y="1544" on="0"/>
        <pt x="501" y="1533" on="0"/>
        <pt x="471" y="1504" on="0"/>
        <pt x="451" y="1453" on="0"/>
        <pt x="450" y="1413" on="1"/>
        <pt x="444" y="1116" on="1"/>
        <pt x="524" y="1116" on="1"/>
        <pt x="550" y="1116" on="0"/>
        <pt x="579" y="1109" on="0"/>
        <pt x="593" y="1089" on="0"/>
        <pt x="596" y="1054" on="0"/>
        <pt x="596" y="1026" on="1"/>
        <pt x="596" y="995" on="0"/>
        <pt x="593" y="956" on="0"/>
        <pt x="579" y="934" on="0"/>
        <pt x="550" y="926" on="0"/>
        <pt x="524" y="926" on="1"/>
        <pt x="440" y="926" on="1"/>
        <pt x="423" y="57" on="1"/>
        <pt x="423" y="38" on="0"/>
        <pt x="413" y="16" on="0"/>
        <pt x="385" y="4" on="0"/>
        <pt x="334" y="0" on="0"/>
        <pt x="292" y="0" on="1"/>
        <pt x="250" y="0" on="0"/>
        <pt x="199" y="4" on="0"/>
        <pt x="172" y="16" on="0"/>
        <pt x="162" y="38" on="0"/>
        <pt x="162" y="57" on="1"/>
      </contour>
    </TTGlyph>
    <TTGlyph name="five" xMin="110" yMin="-12" xMax="1016" yMax="1690">
      <contour>
        <pt x="122" y="417" on="1"/>
        <pt x="121" y="443" on="0"/>
        <pt x="130" y="475" on="0"/>
        <pt x="160" y="493" on="0"/>
        <pt x="215" y="500" on="0"/>
        <pt x="262" y="500" on="1"/>
        <pt x="312" y="500" on="0"/>
        <pt x="372" y="493" on="0"/>
        <pt x="403" y="475" on="0"/>
        <pt x="413" y="443" on="0"/>
        <pt x="412" y="417" on="1"/>
        <pt x="409" y="312" on="1"/>
        <pt x="407" y="228" on="0"/>
        <pt x="474" y="159" on="0"/>
        <pt x="551" y="159" on="1"/>
        <pt x="628" y="159" on="0"/>
        <pt x="696" y="228" on="0"/>
        <pt x="694" y="312" on="1"/>
        <pt x="680" y="818" on="1"/>
        <pt x="679" y="860" on="0"/>
        <pt x="662" y="915" on="0"/>
        <pt x="626" y="948" on="0"/>
        <pt x="570" y="961" on="0"/>
        <pt x="531" y="961" on="1"/>
        <pt x="330" y="961" on="1"/>
        <pt x="319" y="960" on="0"/>
        <pt x="291" y="960" on="0"/>
        <pt x="275" y="960" on="1"/>
        <pt x="228" y="960" on="0"/>
        <pt x="174" y="964" on="0"/>
        <pt x="145" y="978" on="0"/>
        <pt x="136" y="1005" on="0"/>
        <pt x="135" y="1028" on="1"/>
        <pt x="111" y="1607" on="1"/>
        <pt x="110" y="1633" on="0"/>
        <pt x="124" y="1665" on="0"/>
        <pt x="161" y="1683" on="0"/>
        <pt x="225" y="1690" on="0"/>
        <pt x="275" y="1690" on="1"/>
        <pt x="276" y="1690" on="1"/>
        <pt x="917" y="1690" on="1"/>
        <pt x="943" y="1690" on="0"/>
        <pt x="972" y="1680" on="0"/>
        <pt x="986" y="1655" on="0"/>
        <pt x="989" y="1612" on="0"/>
        <pt x="989" y="1579" on="1"/>
        <pt x="989" y="1546" on="0"/>
        <pt x="986" y="1503" on="0"/>
        <pt x="972" y="1478" on="0"/>
        <pt x="943" y="1468" on="0"/>
        <pt x="917" y="1468" on="1"/>
        <pt x="433" y="1468" on="1"/>
        <pt x="420" y="1147" on="1"/>
        <pt x="735" y="1147" on="1"/>
        <pt x="772" y="1147" on="0"/>
        <pt x="870" y="1123" on="0"/>
        <pt x="957" y="1064" on="0"/>
        <pt x="1016" y="965" on="0"/>
        <pt x="1014" y="890" on="1"/>
        <pt x="977" y="273" on="1"/>
        <pt x="975" y="208" on="0"/>
        <pt x="915" y="103" on="0"/>
        <pt x="806" y="28" on="0"/>
        <pt x="649" y="-12" on="0"/>
        <pt x="551" y="-12" on="1"/>
        <pt x="453" y="-12" on="0"/>
        <pt x="297" y="28" on="0"/>
        <pt x="187" y="103" on="0"/>
        <pt x="128" y="208" on="0"/>
        <pt x="126" y="273" on="1"/>
      </contour>
    </TTGlyph>
</ttFont>
